0
SECTION
2
HEADER
9
$INSUNITS
70
4
0
ENDSEC
0
SECTION
2
TABLES
0
TABLE
2
LTYPE
0
LTYPE
72
65
70
64
2
CONTINUOUS
3
______
73
0
40
0
0
ENDTAB
0
TABLE
2
LAYER
0
ENDTAB
0
ENDSEC
0
SECTION
2
ENTITIES
0
LINE
8
0
10
73.51
20
-3.8585
11
86.51
21
-3.8585
0
LINE
8
0
10
73.51
20
-17.8585
11
86.51
21
-17.8585
0
LINE
8
0
10
73.01
20
-4.3585
11
73.01
21
-17.3585
0
LINE
8
0
10
87.01
20
-4.3585
11
87.01
21
-17.3585
0
ARC
8
0
10
73.51
20
-4.3585
40
0.5
50
90
51
180
0
ARC
8
0
10
86.51
20
-4.3585
40
0.5
50
0
51
90
0
ARC
8
0
10
73.51
20
-17.3585
40
0.5
50
180
51
270
0
ARC
8
0
10
86.51
20
-17.3585
40
0.5
50
270
51
0
0
LINE
8
0
10
50.65
20
-53.0075
11
63.65
21
-53.0075
0
LINE
8
0
10
50.65
20
-67.0075
11
63.65
21
-67.0075
0
LINE
8
0
10
50.15
20
-53.5075
11
50.15
21
-66.5075
0
LINE
8
0
10
64.15
20
-53.5075
11
64.15
21
-66.5075
0
ARC
8
0
10
50.65
20
-53.5075
40
0.5
50
90
51
180
0
ARC
8
0
10
63.65
20
-53.5075
40
0.5
50
0
51
90
0
ARC
8
0
10
50.65
20
-66.5075
40
0.5
50
180
51
270
0
ARC
8
0
10
63.65
20
-66.5075
40
0.5
50
270
51
0
0
LINE
8
0
10
74.4625
20
-53.0075
11
87.4625
21
-53.0075
0
LINE
8
0
10
74.4625
20
-67.0075
11
87.4625
21
-67.0075
0
LINE
8
0
10
73.9625
20
-53.5075
11
73.9625
21
-66.5075
0
LINE
8
0
10
87.9625
20
-53.5075
11
87.9625
21
-66.5075
0
ARC
8
0
10
74.4625
20
-53.5075
40
0.5
50
90
51
180
0
ARC
8
0
10
87.4625
20
-53.5075
40
0.5
50
0
51
90
0
ARC
8
0
10
74.4625
20
-66.5075
40
0.5
50
180
51
270
0
ARC
8
0
10
87.4625
20
-66.5075
40
0.5
50
270
51
0
0
LINE
8
0
10
98.275
20
-53.0075
11
111.275
21
-53.0075
0
LINE
8
0
10
98.275
20
-67.0075
11
111.275
21
-67.0075
0
LINE
8
0
10
97.775
20
-53.5075
11
97.775
21
-66.5075
0
LINE
8
0
10
111.775
20
-53.5075
11
111.775
21
-66.5075
0
ARC
8
0
10
98.275
20
-53.5075
40
0.5
50
90
51
180
0
ARC
8
0
10
111.275
20
-53.5075
40
0.5
50
0
51
90
0
ARC
8
0
10
98.275
20
-66.5075
40
0.5
50
180
51
270
0
ARC
8
0
10
111.275
20
-66.5075
40
0.5
50
270
51
0
0
LINE
8
0
10
5.5015
20
-59.8655
11
18.5015
21
-59.8655
0
LINE
8
0
10
5.5015
20
-73.8655
11
18.5015
21
-73.8655
0
LINE
8
0
10
5.0015
20
-60.3655
11
5.0015
21
-73.3655
0
LINE
8
0
10
19.0015
20
-60.3655
11
19.0015
21
-73.3655
0
ARC
8
0
10
5.5015
20
-60.3655
40
0.5
50
90
51
180
0
ARC
8
0
10
18.5015
20
-60.3655
40
0.5
50
0
51
90
0
ARC
8
0
10
5.5015
20
-73.3655
40
0.5
50
180
51
270
0
ARC
8
0
10
18.5015
20
-73.3655
40
0.5
50
270
51
0
0
LINE
8
0
10
24.5515
20
-59.8655
11
37.5515
21
-59.8655
0
LINE
8
0
10
24.5515
20
-73.8655
11
37.5515
21
-73.8655
0
LINE
8
0
10
24.0515
20
-60.3655
11
24.0515
21
-73.3655
0
LINE
8
0
10
38.0515
20
-60.3655
11
38.0515
21
-73.3655
0
ARC
8
0
10
24.5515
20
-60.3655
40
0.5
50
90
51
180
0
ARC
8
0
10
37.5515
20
-60.3655
40
0.5
50
0
51
90
0
ARC
8
0
10
24.5515
20
-73.3655
40
0.5
50
180
51
270
0
ARC
8
0
10
37.5515
20
-73.3655
40
0.5
50
270
51
0
0
LINE
8
0
10
122.0875
20
-59.8655
11
135.0875
21
-59.8655
0
LINE
8
0
10
122.0875
20
-73.8655
11
135.0875
21
-73.8655
0
LINE
8
0
10
121.5875
20
-60.3655
11
121.5875
21
-73.3655
0
LINE
8
0
10
135.5875
20
-60.3655
11
135.5875
21
-73.3655
0
ARC
8
0
10
122.0875
20
-60.3655
40
0.5
50
90
51
180
0
ARC
8
0
10
135.0875
20
-60.3655
40
0.5
50
0
51
90
0
ARC
8
0
10
122.0875
20
-73.3655
40
0.5
50
180
51
270
0
ARC
8
0
10
135.0875
20
-73.3655
40
0.5
50
270
51
0
0
LINE
8
0
10
141.1375
20
-59.8655
11
154.1375
21
-59.8655
0
LINE
8
0
10
141.1375
20
-73.8655
11
154.1375
21
-73.8655
0
LINE
8
0
10
140.6375
20
-60.3655
11
140.6375
21
-73.3655
0
LINE
8
0
10
154.6375
20
-60.3655
11
154.6375
21
-73.3655
0
ARC
8
0
10
141.1375
20
-60.3655
40
0.5
50
90
51
180
0
ARC
8
0
10
154.1375
20
-60.3655
40
0.5
50
0
51
90
0
ARC
8
0
10
141.1375
20
-73.3655
40
0.5
50
180
51
270
0
ARC
8
0
10
154.1375
20
-73.3655
40
0.5
50
270
51
0
0
LINE
8
0
10
50.65
20
-76.6295
11
63.65
21
-76.6295
0
LINE
8
0
10
50.65
20
-90.6295
11
63.65
21
-90.6295
0
LINE
8
0
10
50.15
20
-77.1295
11
50.15
21
-90.1295
0
LINE
8
0
10
64.15
20
-77.1295
11
64.15
21
-90.1295
0
ARC
8
0
10
50.65
20
-77.1295
40
0.5
50
90
51
180
0
ARC
8
0
10
63.65
20
-77.1295
40
0.5
50
0
51
90
0
ARC
8
0
10
50.65
20
-90.1295
40
0.5
50
180
51
270
0
ARC
8
0
10
63.65
20
-90.1295
40
0.5
50
270
51
0
0
LINE
8
0
10
74.4625
20
-76.6295
11
87.4625
21
-76.6295
0
LINE
8
0
10
74.4625
20
-90.6295
11
87.4625
21
-90.6295
0
LINE
8
0
10
73.9625
20
-77.1295
11
73.9625
21
-90.1295
0
LINE
8
0
10
87.9625
20
-77.1295
11
87.9625
21
-90.1295
0
ARC
8
0
10
74.4625
20
-77.1295
40
0.5
50
90
51
180
0
ARC
8
0
10
87.4625
20
-77.1295
40
0.5
50
0
51
90
0
ARC
8
0
10
74.4625
20
-90.1295
40
0.5
50
180
51
270
0
ARC
8
0
10
87.4625
20
-90.1295
40
0.5
50
270
51
0
0
LINE
8
0
10
98.275
20
-76.6295
11
111.275
21
-76.6295
0
LINE
8
0
10
98.275
20
-90.6295
11
111.275
21
-90.6295
0
LINE
8
0
10
97.775
20
-77.1295
11
97.775
21
-90.1295
0
LINE
8
0
10
111.775
20
-77.1295
11
111.775
21
-90.1295
0
ARC
8
0
10
98.275
20
-77.1295
40
0.5
50
90
51
180
0
ARC
8
0
10
111.275
20
-77.1295
40
0.5
50
0
51
90
0
ARC
8
0
10
98.275
20
-90.1295
40
0.5
50
180
51
270
0
ARC
8
0
10
111.275
20
-90.1295
40
0.5
50
270
51
0
0
LINE
8
0
10
122.0875
20
-83.678
11
135.0875
21
-83.678
0
LINE
8
0
10
122.0875
20
-97.678
11
135.0875
21
-97.678
0
LINE
8
0
10
121.5875
20
-84.178
11
121.5875
21
-97.178
0
LINE
8
0
10
135.5875
20
-84.178
11
135.5875
21
-97.178
0
ARC
8
0
10
122.0875
20
-84.178
40
0.5
50
90
51
180
0
ARC
8
0
10
135.0875
20
-84.178
40
0.5
50
0
51
90
0
ARC
8
0
10
122.0875
20
-97.178
40
0.5
50
180
51
270
0
ARC
8
0
10
135.0875
20
-97.178
40
0.5
50
270
51
0
0
LINE
8
0
10
141.1375
20
-83.678
11
154.1375
21
-83.678
0
LINE
8
0
10
141.1375
20
-97.678
11
154.1375
21
-97.678
0
LINE
8
0
10
140.6375
20
-84.178
11
140.6375
21
-97.178
0
LINE
8
0
10
154.6375
20
-84.178
11
154.6375
21
-97.178
0
ARC
8
0
10
141.1375
20
-84.178
40
0.5
50
90
51
180
0
ARC
8
0
10
154.1375
20
-84.178
40
0.5
50
0
51
90
0
ARC
8
0
10
141.1375
20
-97.178
40
0.5
50
180
51
270
0
ARC
8
0
10
154.1375
20
-97.178
40
0.5
50
270
51
0
0
LINE
8
0
10
24.5515
20
-83.8685
11
37.5515
21
-83.8685
0
LINE
8
0
10
24.5515
20
-97.8685
11
37.5515
21
-97.8685
0
LINE
8
0
10
24.0515
20
-84.3685
11
24.0515
21
-97.3685
0
LINE
8
0
10
38.0515
20
-84.3685
11
38.0515
21
-97.3685
0
ARC
8
0
10
24.5515
20
-84.3685
40
0.5
50
90
51
180
0
ARC
8
0
10
37.5515
20
-84.3685
40
0.5
50
0
51
90
0
ARC
8
0
10
24.5515
20
-97.3685
40
0.5
50
180
51
270
0
ARC
8
0
10
37.5515
20
-97.3685
40
0.5
50
270
51
0
0
LINE
8
0
10
24.5515
20
-107.4905
11
37.5515
21
-107.4905
0
LINE
8
0
10
24.5515
20
-121.4905
11
37.5515
21
-121.4905
0
LINE
8
0
10
24.0515
20
-107.9905
11
24.0515
21
-120.9905
0
LINE
8
0
10
38.0515
20
-107.9905
11
38.0515
21
-120.9905
0
ARC
8
0
10
24.5515
20
-107.9905
40
0.5
50
90
51
180
0
ARC
8
0
10
37.5515
20
-107.9905
40
0.5
50
0
51
90
0
ARC
8
0
10
24.5515
20
-120.9905
40
0.5
50
180
51
270
0
ARC
8
0
10
37.5515
20
-120.9905
40
0.5
50
270
51
0
0
LINE
8
0
10
110.2765
20
-107.4905
11
123.2765
21
-107.4905
0
LINE
8
0
10
110.2765
20
-121.4905
11
123.2765
21
-121.4905
0
LINE
8
0
10
109.7765
20
-107.9905
11
109.7765
21
-120.9905
0
LINE
8
0
10
123.7765
20
-107.9905
11
123.7765
21
-120.9905
0
ARC
8
0
10
110.2765
20
-107.9905
40
0.5
50
90
51
180
0
ARC
8
0
10
123.2765
20
-107.9905
40
0.5
50
0
51
90
0
ARC
8
0
10
110.2765
20
-120.9905
40
0.5
50
180
51
270
0
ARC
8
0
10
123.2765
20
-120.9905
40
0.5
50
270
51
0
0
LINE
8
0
10
129.3265
20
-117.0155
11
142.3265
21
-117.0155
0
LINE
8
0
10
129.3265
20
-131.0155
11
142.3265
21
-131.0155
0
LINE
8
0
10
128.8265
20
-117.5155
11
128.8265
21
-130.5155
0
LINE
8
0
10
142.8265
20
-117.5155
11
142.8265
21
-130.5155
0
ARC
8
0
10
129.3265
20
-117.5155
40
0.5
50
90
51
180
0
ARC
8
0
10
142.3265
20
-117.5155
40
0.5
50
0
51
90
0
ARC
8
0
10
129.3265
20
-130.5155
40
0.5
50
180
51
270
0
ARC
8
0
10
142.3265
20
-130.5155
40
0.5
50
270
51
0
0
LINE
8
0
10
148.3765
20
-117.0155
11
161.3765
21
-117.0155
0
LINE
8
0
10
148.3765
20
-131.0155
11
161.3765
21
-131.0155
0
LINE
8
0
10
147.8765
20
-117.5155
11
147.8765
21
-130.5155
0
LINE
8
0
10
161.8765
20
-117.5155
11
161.8765
21
-130.5155
0
ARC
8
0
10
148.3765
20
-117.5155
40
0.5
50
90
51
180
0
ARC
8
0
10
161.3765
20
-117.5155
40
0.5
50
0
51
90
0
ARC
8
0
10
148.3765
20
-130.5155
40
0.5
50
180
51
270
0
ARC
8
0
10
161.3765
20
-130.5155
40
0.5
50
270
51
0
0
LINE
8
0
10
24.5515
20
-131.303
11
37.5515
21
-131.303
0
LINE
8
0
10
24.5515
20
-145.303
11
37.5515
21
-145.303
0
LINE
8
0
10
24.0515
20
-131.803
11
24.0515
21
-144.803
0
LINE
8
0
10
38.0515
20
-131.803
11
38.0515
21
-144.803
0
ARC
8
0
10
24.5515
20
-131.803
40
0.5
50
90
51
180
0
ARC
8
0
10
37.5515
20
-131.803
40
0.5
50
0
51
90
0
ARC
8
0
10
24.5515
20
-144.803
40
0.5
50
180
51
270
0
ARC
8
0
10
37.5515
20
-144.803
40
0.5
50
270
51
0
0
LINE
8
0
10
119.8015
20
-136.0655
11
132.8015
21
-136.0655
0
LINE
8
0
10
119.8015
20
-150.0655
11
132.8015
21
-150.0655
0
LINE
8
0
10
119.3015
20
-136.5655
11
119.3015
21
-149.5655
0
LINE
8
0
10
133.3015
20
-136.5655
11
133.3015
21
-149.5655
0
ARC
8
0
10
119.8015
20
-136.5655
40
0.5
50
90
51
180
0
ARC
8
0
10
132.8015
20
-136.5655
40
0.5
50
0
51
90
0
ARC
8
0
10
119.8015
20
-149.5655
40
0.5
50
180
51
270
0
ARC
8
0
10
132.8015
20
-149.5655
40
0.5
50
270
51
0
0
LINE
8
0
10
143.614
20
-136.0655
11
156.614
21
-136.0655
0
LINE
8
0
10
143.614
20
-150.0655
11
156.614
21
-150.0655
0
LINE
8
0
10
143.114
20
-136.5655
11
143.114
21
-149.5655
0
LINE
8
0
10
157.114
20
-136.5655
11
157.114
21
-149.5655
0
ARC
8
0
10
143.614
20
-136.5655
40
0.5
50
90
51
180
0
ARC
8
0
10
156.614
20
-136.5655
40
0.5
50
0
51
90
0
ARC
8
0
10
143.614
20
-149.5655
40
0.5
50
180
51
270
0
ARC
8
0
10
156.614
20
-149.5655
40
0.5
50
270
51
0
0
LINE
8
0
10
84.1543968
20
-24.8944356
11
97.1049278
21
-26.0274602
0
LINE
8
0
10
82.9342164
20
-38.8411614
11
95.8847474
21
-39.974186
0
LINE
8
0
10
83.6127215
20
-25.3489551
11
82.4796969
21
-38.2994861
0
LINE
8
0
10
97.5594473
20
-26.5691355
11
96.4264227
21
-39.5196665
0
ARC
8
0
10
84.1108189
20
-25.3925329
40
0.5
50
85
51
175
0
ARC
8
0
10
97.06135
20
-26.5255576
40
0.5
50
355
51
85
0
ARC
8
0
10
82.9777942
20
-38.343064
40
0.5
50
175
51
265
0
ARC
8
0
10
95.9283253
20
-39.4760887
40
0.5
50
265
51
355
0
LINE
8
0
10
94.913185
20
-4.3895554
11
107.8419697
21
-5.7484254
0
LINE
8
0
10
93.4497865
20
-18.312862
11
106.3785712
21
-19.671732
0
LINE
8
0
10
94.3636598
20
-4.8345521
11
93.0047898
21
-17.7633368
0
LINE
8
0
10
108.2869664
20
-6.2979506
11
106.9280964
21
-19.2267353
0
ARC
8
0
10
94.8609208
20
-4.8868164
40
0.5
50
84
51
174
0
ARC
8
0
10
107.7897054
20
-6.2456864
40
0.5
50
354
51
84
0
ARC
8
0
10
93.5020508
20
-17.815601
40
0.5
50
174
51
264
0
ARC
8
0
10
106.4308354
20
-19.174471
40
0.5
50
264
51
354
0
LINE
8
0
10
106.3902426
20
-27.3837091
11
119.151396
21
-29.8642261
0
LINE
8
0
10
103.7189166
20
-41.1264897
11
116.48007
21
-43.6070067
0
LINE
8
0
10
105.8040245
20
-27.7791182
11
103.3235075
21
-40.5402716
0
LINE
8
0
10
119.5468051
20
-30.4504442
11
117.0662881
21
-43.2115976
0
ARC
8
0
10
106.2948381
20
-27.8745227
40
0.5
50
79
51
169
0
ARC
8
0
10
119.0559915
20
-30.3550397
40
0.5
50
349
51
79
0
ARC
8
0
10
103.8143211
20
-40.6356761
40
0.5
50
169
51
259
0
ARC
8
0
10
116.5754745
20
-43.1161931
40
0.5
50
259
51
349
0
LINE
8
0
10
116.3265096
20
-7.758368
11
129.0424284
21
-10.46122
0
LINE
8
0
10
113.415746
20
-21.4524344
11
126.1316648
21
-24.1552864
0
LINE
8
0
10
115.73348
20
-8.143486
11
113.030628
21
-20.8594048
0
LINE
8
0
10
129.4275464
20
-11.0542496
11
126.7246944
21
-23.7701684
0
ARC
8
0
10
116.2225538
20
-8.2474418
40
0.5
50
78
51
168
0
ARC
8
0
10
128.9384726
20
-10.9502938
40
0.5
50
348
51
78
0
ARC
8
0
10
113.5197018
20
-20.9633606
40
0.5
50
168
51
258
0
ARC
8
0
10
126.2356206
20
-23.6662126
40
0.5
50
258
51
348
0
LINE
8
0
10
136.9601607
20
-13.3233509
11
149.3238954
21
-17.3405718
0
LINE
8
0
10
132.6339228
20
-26.6381422
11
144.9976575
21
-30.6553631
0
LINE
8
0
10
136.3301239
20
-13.6443707
11
132.312903
21
-26.0081054
0
LINE
8
0
10
149.6449152
20
-17.9706086
11
145.6276943
21
-30.3343433
0
ARC
8
0
10
136.8056522
20
-13.7988792
40
0.5
50
72
51
162
0
ARC
8
0
10
149.1693869
20
-17.8161001
40
0.5
50
342
51
72
0
ARC
8
0
10
132.7884313
20
-26.1626139
40
0.5
50
162
51
252
0
ARC
8
0
10
145.152166
20
-30.1798348
40
0.5
50
252
51
342
0
LINE
8
0
10
128.5117717
20
-32.2890594
11
140.8035132
21
-36.5214454
0
LINE
8
0
10
123.9538176
20
-45.5263194
11
136.2455591
21
-49.7587054
0
LINE
8
0
10
127.8762284
20
-32.5990346
11
123.6438424
21
-44.8907761
0
LINE
8
0
10
141.1134884
20
-37.1569887
11
136.8811024
21
-49.4487302
0
ARC
8
0
10
128.3489877
20
-32.7618187
40
0.5
50
71
51
161
0
ARC
8
0
10
140.6407291
20
-36.9942047
40
0.5
50
341
51
71
0
ARC
8
0
10
124.1166017
20
-45.0535601
40
0.5
50
161
51
251
0
ARC
8
0
10
136.4083431
20
-49.2859461
40
0.5
50
251
51
341
0
LINE
8
0
10
17.3747652
20
-37.6615822
11
29.6665067
21
-33.4291962
0
LINE
8
0
10
21.9327193
20
-50.8988422
11
34.2244608
21
-46.6664562
0
LINE
8
0
10
17.06479
20
-38.2971255
11
21.297176
21
-50.588867
0
LINE
8
0
10
30.30205
20
-33.7391714
11
34.534436
21
-46.0309129
0
ARC
8
0
10
17.5375493
20
-38.1343415
40
0.5
50
109
51
199
0
ARC
8
0
10
29.8292907
20
-33.9019555
40
0.5
50
19
51
109
0
ARC
8
0
10
21.7699353
20
-50.4260829
40
0.5
50
199
51
289
0
ARC
8
0
10
34.0616767
20
-46.1936969
40
0.5
50
289
51
19
0
LINE
8
0
10
10.3650187
20
-16.7741777
11
22.7287534
21
-12.7569568
0
LINE
8
0
10
14.6912566
20
-30.088969
11
27.0549913
21
-26.0717481
0
LINE
8
0
10
10.0439989
20
-17.4042145
11
14.0612198
21
-29.7679492
0
LINE
8
0
10
23.3587902
20
-13.0779766
11
27.3760111
21
-25.4417113
0
ARC
8
0
10
10.5195272
20
-17.249706
40
0.5
50
108
51
198
0
ARC
8
0
10
22.8832619
20
-13.2324851
40
0.5
50
18
51
108
0
ARC
8
0
10
14.5367481
20
-29.6134407
40
0.5
50
198
51
288
0
ARC
8
0
10
26.9004828
20
-25.5962198
40
0.5
50
288
51
18
0
LINE
8
0
10
30.9052121
20
-9.8652785
11
43.6211309
21
-7.1624265
0
LINE
8
0
10
33.8159757
20
-23.5593449
11
46.5318945
21
-20.8564929
0
LINE
8
0
10
30.5200941
20
-10.4583081
11
33.2229461
21
-23.1742269
0
LINE
8
0
10
44.2141605
20
-7.5475445
11
46.9170125
21
-20.2634633
0
ARC
8
0
10
31.0091679
20
-10.3543523
40
0.5
50
102
51
192
0
ARC
8
0
10
43.7250867
20
-7.6515003
40
0.5
50
12
51
102
0
ARC
8
0
10
33.7120199
20
-23.0702711
40
0.5
50
192
51
282
0
ARC
8
0
10
46.4279387
20
-20.3674191
40
0.5
50
282
51
12
0
LINE
8
0
10
39.0686046
20
-30.9546996
11
51.829758
21
-28.4741826
0
LINE
8
0
10
41.7399306
20
-44.6974802
11
54.501084
21
-42.2169632
0
LINE
8
0
10
38.6731955
20
-31.5409177
11
41.1537125
21
-44.3020711
0
LINE
8
0
10
52.4159761
20
-28.8695917
11
54.8964931
21
-41.6307451
0
ARC
8
0
10
39.1640091
20
-31.4455132
40
0.5
50
101
51
191
0
ARC
8
0
10
51.9251625
20
-28.9649962
40
0.5
50
11
51
101
0
ARC
8
0
10
41.6445261
20
-44.2066666
40
0.5
50
191
51
281
0
ARC
8
0
10
54.4056795
20
-41.7261496
40
0.5
50
281
51
11
0
LINE
8
0
10
52.3286203
20
-5.5583969
11
65.257405
21
-4.1995269
0
LINE
8
0
10
53.7920188
20
-19.4817035
11
66.7208035
21
-18.1228335
0
LINE
8
0
10
51.8836236
20
-6.1079221
11
53.2424936
21
-19.0367068
0
LINE
8
0
10
65.8069302
20
-4.6445236
11
67.1658002
21
-17.5733083
0
ARC
8
0
10
52.3808846
20
-6.0556579
40
0.5
50
96
51
186
0
ARC
8
0
10
65.3096692
20
-4.6967879
40
0.5
50
6
51
96
0
ARC
8
0
10
53.7397546
20
-18.9844425
40
0.5
50
186
51
276
0
ARC
8
0
10
66.6685392
20
-17.6255725
40
0.5
50
276
51
6
0
LINE
8
0
10
61.0245704
20
-26.3595236
11
73.9751014
21
-25.226499
0
LINE
8
0
10
62.2447508
20
-40.3062494
11
75.1952818
21
-39.1732248
0
LINE
8
0
10
60.5700509
20
-26.9011989
11
61.7030755
21
-39.8517299
0
LINE
8
0
10
74.5167767
20
-25.6810185
11
75.6498013
21
-38.6315495
0
ARC
8
0
10
61.0681482
20
-26.857621
40
0.5
50
95
51
185
0
ARC
8
0
10
74.0186793
20
-25.7245963
40
0.5
50
5
51
95
0
ARC
8
0
10
62.2011729
20
-39.8081521
40
0.5
50
185
51
275
0
ARC
8
0
10
75.151704
20
-38.6751274
40
0.5
50
275
51
5
0
LINE
8
0
10
2.4765
20
-152.5905
11
164.4015
21
-152.5905
0
LINE
8
0
10
2.4765
20
-1.3335
11
164.4015
21
-1.3335
0
LINE
8
0
10
2.4765
20
-152.5905
11
2.4765
21
-1.3335
0
LINE
8
0
10
164.4015
20
-152.5905
11
164.4015
21
-1.3335
0
ENDSEC
0
EOF