0
SECTION
2
HEADER
9
$INSUNITS
70
4
0
ENDSEC
0
SECTION
2
TABLES
0
TABLE
2
LTYPE
0
LTYPE
72
65
70
64
2
CONTINUOUS
3
______
73
0
40
0
0
ENDTAB
0
TABLE
2
LAYER
0
ENDTAB
0
ENDSEC
0
SECTION
2
ENTITIES
0
LINE
8
0
10
26.8375
20
-2.525
11
39.8375
21
-2.525
0
LINE
8
0
10
26.8375
20
-16.525
11
39.8375
21
-16.525
0
LINE
8
0
10
26.3375
20
-3.025
11
26.3375
21
-16.025
0
LINE
8
0
10
40.3375
20
-3.025
11
40.3375
21
-16.025
0
ARC
8
0
10
26.8375
20
-3.025
40
0.5
50
90
51
180
0
ARC
8
0
10
39.8375
20
-3.025
40
0.5
50
0
51
90
0
ARC
8
0
10
26.8375
20
-16.025
40
0.5
50
180
51
270
0
ARC
8
0
10
39.8375
20
-16.025
40
0.5
50
270
51
0
0
LINE
8
0
10
45.8875
20
-2.525
11
58.8875
21
-2.525
0
LINE
8
0
10
45.8875
20
-16.525
11
58.8875
21
-16.525
0
LINE
8
0
10
45.3875
20
-3.025
11
45.3875
21
-16.025
0
LINE
8
0
10
59.3875
20
-3.025
11
59.3875
21
-16.025
0
ARC
8
0
10
45.8875
20
-3.025
40
0.5
50
90
51
180
0
ARC
8
0
10
58.8875
20
-3.025
40
0.5
50
0
51
90
0
ARC
8
0
10
45.8875
20
-16.025
40
0.5
50
180
51
270
0
ARC
8
0
10
58.8875
20
-16.025
40
0.5
50
270
51
0
0
LINE
8
0
10
64.9375
20
-2.525
11
77.9375
21
-2.525
0
LINE
8
0
10
64.9375
20
-16.525
11
77.9375
21
-16.525
0
LINE
8
0
10
64.4375
20
-3.025
11
64.4375
21
-16.025
0
LINE
8
0
10
78.4375
20
-3.025
11
78.4375
21
-16.025
0
ARC
8
0
10
64.9375
20
-3.025
40
0.5
50
90
51
180
0
ARC
8
0
10
77.9375
20
-3.025
40
0.5
50
0
51
90
0
ARC
8
0
10
64.9375
20
-16.025
40
0.5
50
180
51
270
0
ARC
8
0
10
77.9375
20
-16.025
40
0.5
50
270
51
0
0
LINE
8
0
10
83.9875
20
-2.525
11
96.9875
21
-2.525
0
LINE
8
0
10
83.9875
20
-16.525
11
96.9875
21
-16.525
0
LINE
8
0
10
83.4875
20
-3.025
11
83.4875
21
-16.025
0
LINE
8
0
10
97.4875
20
-3.025
11
97.4875
21
-16.025
0
ARC
8
0
10
83.9875
20
-3.025
40
0.5
50
90
51
180
0
ARC
8
0
10
96.9875
20
-3.025
40
0.5
50
0
51
90
0
ARC
8
0
10
83.9875
20
-16.025
40
0.5
50
180
51
270
0
ARC
8
0
10
96.9875
20
-16.025
40
0.5
50
270
51
0
0
LINE
8
0
10
103.0375
20
-2.525
11
116.0375
21
-2.525
0
LINE
8
0
10
103.0375
20
-16.525
11
116.0375
21
-16.525
0
LINE
8
0
10
102.5375
20
-3.025
11
102.5375
21
-16.025
0
LINE
8
0
10
116.5375
20
-3.025
11
116.5375
21
-16.025
0
ARC
8
0
10
103.0375
20
-3.025
40
0.5
50
90
51
180
0
ARC
8
0
10
116.0375
20
-3.025
40
0.5
50
0
51
90
0
ARC
8
0
10
103.0375
20
-16.025
40
0.5
50
180
51
270
0
ARC
8
0
10
116.0375
20
-16.025
40
0.5
50
270
51
0
0
LINE
8
0
10
36.3625
20
-21.575
11
49.3625
21
-21.575
0
LINE
8
0
10
36.3625
20
-35.575
11
49.3625
21
-35.575
0
LINE
8
0
10
35.8625
20
-22.075
11
35.8625
21
-35.075
0
LINE
8
0
10
49.8625
20
-22.075
11
49.8625
21
-35.075
0
ARC
8
0
10
36.3625
20
-22.075
40
0.5
50
90
51
180
0
ARC
8
0
10
49.3625
20
-22.075
40
0.5
50
0
51
90
0
ARC
8
0
10
36.3625
20
-35.075
40
0.5
50
180
51
270
0
ARC
8
0
10
49.3625
20
-35.075
40
0.5
50
270
51
0
0
LINE
8
0
10
55.4125
20
-21.575
11
68.4125
21
-21.575
0
LINE
8
0
10
55.4125
20
-35.575
11
68.4125
21
-35.575
0
LINE
8
0
10
54.9125
20
-22.075
11
54.9125
21
-35.075
0
LINE
8
0
10
68.9125
20
-22.075
11
68.9125
21
-35.075
0
ARC
8
0
10
55.4125
20
-22.075
40
0.5
50
90
51
180
0
ARC
8
0
10
68.4125
20
-22.075
40
0.5
50
0
51
90
0
ARC
8
0
10
55.4125
20
-35.075
40
0.5
50
180
51
270
0
ARC
8
0
10
68.4125
20
-35.075
40
0.5
50
270
51
0
0
LINE
8
0
10
74.4625
20
-21.575
11
87.4625
21
-21.575
0
LINE
8
0
10
74.4625
20
-35.575
11
87.4625
21
-35.575
0
LINE
8
0
10
73.9625
20
-22.075
11
73.9625
21
-35.075
0
LINE
8
0
10
87.9625
20
-22.075
11
87.9625
21
-35.075
0
ARC
8
0
10
74.4625
20
-22.075
40
0.5
50
90
51
180
0
ARC
8
0
10
87.4625
20
-22.075
40
0.5
50
0
51
90
0
ARC
8
0
10
74.4625
20
-35.075
40
0.5
50
180
51
270
0
ARC
8
0
10
87.4625
20
-35.075
40
0.5
50
270
51
0
0
LINE
8
0
10
93.5125
20
-21.575
11
106.5125
21
-21.575
0
LINE
8
0
10
93.5125
20
-35.575
11
106.5125
21
-35.575
0
LINE
8
0
10
93.0125
20
-22.075
11
93.0125
21
-35.075
0
LINE
8
0
10
107.0125
20
-22.075
11
107.0125
21
-35.075
0
ARC
8
0
10
93.5125
20
-22.075
40
0.5
50
90
51
180
0
ARC
8
0
10
106.5125
20
-22.075
40
0.5
50
0
51
90
0
ARC
8
0
10
93.5125
20
-35.075
40
0.5
50
180
51
270
0
ARC
8
0
10
106.5125
20
-35.075
40
0.5
50
270
51
0
0
LINE
8
0
10
17.3125
20
-26.3375
11
30.3125
21
-26.3375
0
LINE
8
0
10
17.3125
20
-40.3375
11
30.3125
21
-40.3375
0
LINE
8
0
10
16.8125
20
-26.8375
11
16.8125
21
-39.8375
0
LINE
8
0
10
30.8125
20
-26.8375
11
30.8125
21
-39.8375
0
ARC
8
0
10
17.3125
20
-26.8375
40
0.5
50
90
51
180
0
ARC
8
0
10
30.3125
20
-26.8375
40
0.5
50
0
51
90
0
ARC
8
0
10
17.3125
20
-39.8375
40
0.5
50
180
51
270
0
ARC
8
0
10
30.3125
20
-39.8375
40
0.5
50
270
51
0
0
LINE
8
0
10
112.5625
20
-26.3375
11
125.5625
21
-26.3375
0
LINE
8
0
10
112.5625
20
-40.3375
11
125.5625
21
-40.3375
0
LINE
8
0
10
112.0625
20
-26.8375
11
112.0625
21
-39.8375
0
LINE
8
0
10
126.0625
20
-26.8375
11
126.0625
21
-39.8375
0
ARC
8
0
10
112.5625
20
-26.8375
40
0.5
50
90
51
180
0
ARC
8
0
10
125.5625
20
-26.8375
40
0.5
50
0
51
90
0
ARC
8
0
10
112.5625
20
-39.8375
40
0.5
50
180
51
270
0
ARC
8
0
10
125.5625
20
-39.8375
40
0.5
50
270
51
0
0
LINE
8
0
10
3.025
20
-45.3875
11
16.025
21
-45.3875
0
LINE
8
0
10
3.025
20
-59.3875
11
16.025
21
-59.3875
0
LINE
8
0
10
2.525
20
-45.8875
11
2.525
21
-58.8875
0
LINE
8
0
10
16.525
20
-45.8875
11
16.525
21
-58.8875
0
ARC
8
0
10
3.025
20
-45.8875
40
0.5
50
90
51
180
0
ARC
8
0
10
16.025
20
-45.8875
40
0.5
50
0
51
90
0
ARC
8
0
10
3.025
20
-58.8875
40
0.5
50
180
51
270
0
ARC
8
0
10
16.025
20
-58.8875
40
0.5
50
270
51
0
0
LINE
8
0
10
22.075
20
-45.3875
11
35.075
21
-45.3875
0
LINE
8
0
10
22.075
20
-59.3875
11
35.075
21
-59.3875
0
LINE
8
0
10
21.575
20
-45.8875
11
21.575
21
-58.8875
0
LINE
8
0
10
35.575
20
-45.8875
11
35.575
21
-58.8875
0
ARC
8
0
10
22.075
20
-45.8875
40
0.5
50
90
51
180
0
ARC
8
0
10
35.075
20
-45.8875
40
0.5
50
0
51
90
0
ARC
8
0
10
22.075
20
-58.8875
40
0.5
50
180
51
270
0
ARC
8
0
10
35.075
20
-58.8875
40
0.5
50
270
51
0
0
LINE
8
0
10
45.8875
20
-45.3875
11
58.8875
21
-45.3875
0
LINE
8
0
10
45.8875
20
-59.3875
11
58.8875
21
-59.3875
0
LINE
8
0
10
45.3875
20
-45.8875
11
45.3875
21
-58.8875
0
LINE
8
0
10
59.3875
20
-45.8875
11
59.3875
21
-58.8875
0
ARC
8
0
10
45.8875
20
-45.8875
40
0.5
50
90
51
180
0
ARC
8
0
10
58.8875
20
-45.8875
40
0.5
50
0
51
90
0
ARC
8
0
10
45.8875
20
-58.8875
40
0.5
50
180
51
270
0
ARC
8
0
10
58.8875
20
-58.8875
40
0.5
50
270
51
0
0
LINE
8
0
10
64.9375
20
-45.3875
11
77.9375
21
-45.3875
0
LINE
8
0
10
64.9375
20
-59.3875
11
77.9375
21
-59.3875
0
LINE
8
0
10
64.4375
20
-45.8875
11
64.4375
21
-58.8875
0
LINE
8
0
10
78.4375
20
-45.8875
11
78.4375
21
-58.8875
0
ARC
8
0
10
64.9375
20
-45.8875
40
0.5
50
90
51
180
0
ARC
8
0
10
77.9375
20
-45.8875
40
0.5
50
0
51
90
0
ARC
8
0
10
64.9375
20
-58.8875
40
0.5
50
180
51
270
0
ARC
8
0
10
77.9375
20
-58.8875
40
0.5
50
270
51
0
0
LINE
8
0
10
83.9875
20
-45.3875
11
96.9875
21
-45.3875
0
LINE
8
0
10
83.9875
20
-59.3875
11
96.9875
21
-59.3875
0
LINE
8
0
10
83.4875
20
-45.8875
11
83.4875
21
-58.8875
0
LINE
8
0
10
97.4875
20
-45.8875
11
97.4875
21
-58.8875
0
ARC
8
0
10
83.9875
20
-45.8875
40
0.5
50
90
51
180
0
ARC
8
0
10
96.9875
20
-45.8875
40
0.5
50
0
51
90
0
ARC
8
0
10
83.9875
20
-58.8875
40
0.5
50
180
51
270
0
ARC
8
0
10
96.9875
20
-58.8875
40
0.5
50
270
51
0
0
LINE
8
0
10
107.8
20
-45.3875
11
120.8
21
-45.3875
0
LINE
8
0
10
107.8
20
-59.3875
11
120.8
21
-59.3875
0
LINE
8
0
10
107.3
20
-45.8875
11
107.3
21
-58.8875
0
LINE
8
0
10
121.3
20
-45.8875
11
121.3
21
-58.8875
0
ARC
8
0
10
107.8
20
-45.8875
40
0.5
50
90
51
180
0
ARC
8
0
10
120.8
20
-45.8875
40
0.5
50
0
51
90
0
ARC
8
0
10
107.8
20
-58.8875
40
0.5
50
180
51
270
0
ARC
8
0
10
120.8
20
-58.8875
40
0.5
50
270
51
0
0
LINE
8
0
10
126.85
20
-45.3875
11
139.85
21
-45.3875
0
LINE
8
0
10
126.85
20
-59.3875
11
139.85
21
-59.3875
0
LINE
8
0
10
126.35
20
-45.8875
11
126.35
21
-58.8875
0
LINE
8
0
10
140.35
20
-45.8875
11
140.35
21
-58.8875
0
ARC
8
0
10
126.85
20
-45.8875
40
0.5
50
90
51
180
0
ARC
8
0
10
139.85
20
-45.8875
40
0.5
50
0
51
90
0
ARC
8
0
10
126.85
20
-58.8875
40
0.5
50
180
51
270
0
ARC
8
0
10
139.85
20
-58.8875
40
0.5
50
270
51
0
0
LINE
8
0
10
22.075
20
-64.4375
11
35.075
21
-64.4375
0
LINE
8
0
10
22.075
20
-78.4375
11
35.075
21
-78.4375
0
LINE
8
0
10
21.575
20
-64.9375
11
21.575
21
-77.9375
0
LINE
8
0
10
35.575
20
-64.9375
11
35.575
21
-77.9375
0
ARC
8
0
10
22.075
20
-64.9375
40
0.5
50
90
51
180
0
ARC
8
0
10
35.075
20
-64.9375
40
0.5
50
0
51
90
0
ARC
8
0
10
22.075
20
-77.9375
40
0.5
50
180
51
270
0
ARC
8
0
10
35.075
20
-77.9375
40
0.5
50
270
51
0
0
LINE
8
0
10
45.8875
20
-64.4375
11
58.8875
21
-64.4375
0
LINE
8
0
10
45.8875
20
-78.4375
11
58.8875
21
-78.4375
0
LINE
8
0
10
45.3875
20
-64.9375
11
45.3875
21
-77.9375
0
LINE
8
0
10
59.3875
20
-64.9375
11
59.3875
21
-77.9375
0
ARC
8
0
10
45.8875
20
-64.9375
40
0.5
50
90
51
180
0
ARC
8
0
10
58.8875
20
-64.9375
40
0.5
50
0
51
90
0
ARC
8
0
10
45.8875
20
-77.9375
40
0.5
50
180
51
270
0
ARC
8
0
10
58.8875
20
-77.9375
40
0.5
50
270
51
0
0
LINE
8
0
10
64.9375
20
-64.4375
11
77.9375
21
-64.4375
0
LINE
8
0
10
64.9375
20
-78.4375
11
77.9375
21
-78.4375
0
LINE
8
0
10
64.4375
20
-64.9375
11
64.4375
21
-77.9375
0
LINE
8
0
10
78.4375
20
-64.9375
11
78.4375
21
-77.9375
0
ARC
8
0
10
64.9375
20
-64.9375
40
0.5
50
90
51
180
0
ARC
8
0
10
77.9375
20
-64.9375
40
0.5
50
0
51
90
0
ARC
8
0
10
64.9375
20
-77.9375
40
0.5
50
180
51
270
0
ARC
8
0
10
77.9375
20
-77.9375
40
0.5
50
270
51
0
0
LINE
8
0
10
83.9875
20
-64.4375
11
96.9875
21
-64.4375
0
LINE
8
0
10
83.9875
20
-78.4375
11
96.9875
21
-78.4375
0
LINE
8
0
10
83.4875
20
-64.9375
11
83.4875
21
-77.9375
0
LINE
8
0
10
97.4875
20
-64.9375
11
97.4875
21
-77.9375
0
ARC
8
0
10
83.9875
20
-64.9375
40
0.5
50
90
51
180
0
ARC
8
0
10
96.9875
20
-64.9375
40
0.5
50
0
51
90
0
ARC
8
0
10
83.9875
20
-77.9375
40
0.5
50
180
51
270
0
ARC
8
0
10
96.9875
20
-77.9375
40
0.5
50
270
51
0
0
LINE
8
0
10
107.8
20
-64.4375
11
120.8
21
-64.4375
0
LINE
8
0
10
107.8
20
-78.4375
11
120.8
21
-78.4375
0
LINE
8
0
10
107.3
20
-64.9375
11
107.3
21
-77.9375
0
LINE
8
0
10
121.3
20
-64.9375
11
121.3
21
-77.9375
0
ARC
8
0
10
107.8
20
-64.9375
40
0.5
50
90
51
180
0
ARC
8
0
10
120.8
20
-64.9375
40
0.5
50
0
51
90
0
ARC
8
0
10
107.8
20
-77.9375
40
0.5
50
180
51
270
0
ARC
8
0
10
120.8
20
-77.9375
40
0.5
50
270
51
0
0
LINE
8
0
10
126.85
20
-64.4375
11
139.85
21
-64.4375
0
LINE
8
0
10
126.85
20
-78.4375
11
139.85
21
-78.4375
0
LINE
8
0
10
126.35
20
-64.9375
11
126.35
21
-77.9375
0
LINE
8
0
10
140.35
20
-64.9375
11
140.35
21
-77.9375
0
ARC
8
0
10
126.85
20
-64.9375
40
0.5
50
90
51
180
0
ARC
8
0
10
139.85
20
-64.9375
40
0.5
50
0
51
90
0
ARC
8
0
10
126.85
20
-77.9375
40
0.5
50
180
51
270
0
ARC
8
0
10
139.85
20
-77.9375
40
0.5
50
270
51
0
0
LINE
8
0
10
17.3125
20
-83.4875
11
30.3125
21
-83.4875
0
LINE
8
0
10
17.3125
20
-97.4875
11
30.3125
21
-97.4875
0
LINE
8
0
10
16.8125
20
-83.9875
11
16.8125
21
-96.9875
0
LINE
8
0
10
30.8125
20
-83.9875
11
30.8125
21
-96.9875
0
ARC
8
0
10
17.3125
20
-83.9875
40
0.5
50
90
51
180
0
ARC
8
0
10
30.3125
20
-83.9875
40
0.5
50
0
51
90
0
ARC
8
0
10
17.3125
20
-96.9875
40
0.5
50
180
51
270
0
ARC
8
0
10
30.3125
20
-96.9875
40
0.5
50
270
51
0
0
LINE
8
0
10
93.5125
20
-88.25
11
106.5125
21
-88.25
0
LINE
8
0
10
93.5125
20
-102.25
11
106.5125
21
-102.25
0
LINE
8
0
10
93.0125
20
-88.75
11
93.0125
21
-101.75
0
LINE
8
0
10
107.0125
20
-88.75
11
107.0125
21
-101.75
0
ARC
8
0
10
93.5125
20
-88.75
40
0.5
50
90
51
180
0
ARC
8
0
10
106.5125
20
-88.75
40
0.5
50
0
51
90
0
ARC
8
0
10
93.5125
20
-101.75
40
0.5
50
180
51
270
0
ARC
8
0
10
106.5125
20
-101.75
40
0.5
50
270
51
0
0
LINE
8
0
10
112.5625
20
-93.0125
11
125.5625
21
-93.0125
0
LINE
8
0
10
112.5625
20
-107.0125
11
125.5625
21
-107.0125
0
LINE
8
0
10
112.0625
20
-93.5125
11
112.0625
21
-106.5125
0
LINE
8
0
10
126.0625
20
-93.5125
11
126.0625
21
-106.5125
0
ARC
8
0
10
112.5625
20
-93.5125
40
0.5
50
90
51
180
0
ARC
8
0
10
125.5625
20
-93.5125
40
0.5
50
0
51
90
0
ARC
8
0
10
112.5625
20
-106.5125
40
0.5
50
180
51
270
0
ARC
8
0
10
125.5625
20
-106.5125
40
0.5
50
270
51
0
0
LINE
8
0
10
131.6125
20
-93.0125
11
144.6125
21
-93.0125
0
LINE
8
0
10
131.6125
20
-107.0125
11
144.6125
21
-107.0125
0
LINE
8
0
10
131.1125
20
-93.5125
11
131.1125
21
-106.5125
0
LINE
8
0
10
145.1125
20
-93.5125
11
145.1125
21
-106.5125
0
ARC
8
0
10
131.6125
20
-93.5125
40
0.5
50
90
51
180
0
ARC
8
0
10
144.6125
20
-93.5125
40
0.5
50
0
51
90
0
ARC
8
0
10
131.6125
20
-106.5125
40
0.5
50
180
51
270
0
ARC
8
0
10
144.6125
20
-106.5125
40
0.5
50
270
51
0
0
LINE
8
0
10
12.55
20
-102.5375
11
25.55
21
-102.5375
0
LINE
8
0
10
12.55
20
-116.5375
11
25.55
21
-116.5375
0
LINE
8
0
10
12.05
20
-103.0375
11
12.05
21
-116.0375
0
LINE
8
0
10
26.05
20
-103.0375
11
26.05
21
-116.0375
0
ARC
8
0
10
12.55
20
-103.0375
40
0.5
50
90
51
180
0
ARC
8
0
10
25.55
20
-103.0375
40
0.5
50
0
51
90
0
ARC
8
0
10
12.55
20
-116.0375
40
0.5
50
180
51
270
0
ARC
8
0
10
25.55
20
-116.0375
40
0.5
50
270
51
0
0
LINE
8
0
10
98.275
20
-112.0625
11
111.275
21
-112.0625
0
LINE
8
0
10
98.275
20
-126.0625
11
111.275
21
-126.0625
0
LINE
8
0
10
97.775
20
-112.5625
11
97.775
21
-125.5625
0
LINE
8
0
10
111.775
20
-112.5625
11
111.775
21
-125.5625
0
ARC
8
0
10
98.275
20
-112.5625
40
0.5
50
90
51
180
0
ARC
8
0
10
111.275
20
-112.5625
40
0.5
50
0
51
90
0
ARC
8
0
10
98.275
20
-125.5625
40
0.5
50
180
51
270
0
ARC
8
0
10
111.275
20
-125.5625
40
0.5
50
270
51
0
0
LINE
8
0
10
122.0875
20
-112.0625
11
135.0875
21
-112.0625
0
LINE
8
0
10
122.0875
20
-126.0625
11
135.0875
21
-126.0625
0
LINE
8
0
10
121.5875
20
-112.5625
11
121.5875
21
-125.5625
0
LINE
8
0
10
135.5875
20
-112.5625
11
135.5875
21
-125.5625
0
ARC
8
0
10
122.0875
20
-112.5625
40
0.5
50
90
51
180
0
ARC
8
0
10
135.0875
20
-112.5625
40
0.5
50
0
51
90
0
ARC
8
0
10
122.0875
20
-125.5625
40
0.5
50
180
51
270
0
ARC
8
0
10
135.0875
20
-125.5625
40
0.5
50
270
51
0
0
LINE
8
0
10
0
20
-128.5875
11
147.6375
21
-128.5875
0
LINE
8
0
10
0
20
0
11
147.6375
21
0
0
LINE
8
0
10
0
20
-128.5875
11
0
21
0
0
LINE
8
0
10
147.6375
20
-128.5875
11
147.6375
21
0
0
ENDSEC
0
EOF