0
SECTION
2
HEADER
9
$INSUNITS
70
4
9
$ACADVER
1
AC1014
9
$HANDSEED
5
FFFF
0
ENDSEC
0
SECTION
2
TABLES
0
TABLE
2
VPORT
5
8
100
AcDbSymbolTable
0
ENDTAB
0
TABLE
2
LTYPE
5
5
100
AcDbSymbolTable
0
LTYPE
5
14
100
AcDbSymbolTableRecord
100
AcDbLinetypeTableRecord
2
BYBLOCK
70
0
0
LTYPE
5
15
100
AcDbSymbolTableRecord
100
AcDbLinetypeTableRecord
2
BYLAYER
70
0
0
ENDTAB
0
TABLE
2
LAYER
5
2
100
AcDbSymbolTable
70
2
0
LAYER
5
50
100
AcDbSymbolTableRecord
100
AcDbLayerTableRecord
2
0
70
0
6
CONTINUOUS
0
ENDTAB
0
TABLE
2
STYLE
5
3
100
AcDbSymbolTable
70
1
0
STYLE
5
11
100
AcDbSymbolTableRecord
100
AcDbTextStyleTableRecord
2
STANDARD
70
0
0
ENDTAB
0
TABLE
2
VIEW
5
6
100
AcDbSymbolTable
70
0
0
ENDTAB
0
TABLE
2
UCS
5
7
100
AcDbSymbolTable
70
0
0
ENDTAB
0
TABLE
2
APPID
5
9
100
AcDbSymbolTable
70
2
0
APPID
5
12
100
AcDbSymbolTableRecord
100
AcDbRegAppTableRecord
2
ACAD
70
0
0
ENDTAB
0
TABLE
2
DIMSTYLE
5
A
100
AcDbSymbolTable
70
1
0
ENDTAB
0
TABLE
2
BLOCK_RECORD
5
1
100
AcDbSymbolTable
70
1
0
BLOCK_RECORD
5
1F
100
AcDbSymbolTableRecord
100
AcDbBlockTableRecord
2
*MODEL_SPACE
0
BLOCK_RECORD
5
1B
100
AcDbSymbolTableRecord
100
AcDbBlockTableRecord
2
*PAPER_SPACE
0
ENDTAB
0
ENDSEC
0
SECTION
2
BLOCKS
0
BLOCK
5
20
100
AcDbEntity
100
AcDbBlockBegin
2
*MODEL_SPACE
0
ENDBLK
5
21
100
AcDbEntity
100
AcDbBlockEnd
0
BLOCK
5
1C
100
AcDbEntity
100
AcDbBlockBegin
2
*PAPER_SPACE
0
ENDBLK
5
1D
100
AcDbEntity
100
AcDbBlockEnd
0
ENDSEC
0
SECTION
2
ENTITIES
0
LWPOLYLINE
5
100
100
AcDbEntity
8
0
100
AcDbPolyline
90
4
70
1
43
0.0
10
27.30192636630964
20
125.95318971259499
10
46.032842599276471
20
129.42526071900889
10
42.560771592862459
20
148.15617695197574
10
23.82985535989565
20
144.68410594556175
0
CIRCLE
5
101
100
AcDbEntity
8
0
100
AcDbCircle
10
95
20
-187
30
0
40
320.05000000000001
210
0
220
-0
230
1
0
LINE
5
102
100
AcDbEntity
8
0
100
AcDbLine
10
33.19531347637907
20
146.42014144876876
30
0
11
36.667384482793047
21
127.68922521580193
31
0
0
LINE
5
103
100
AcDbEntity
8
0
100
AcDbLine
10
44.296807096069472
20
138.79071883549233
30
0
11
25.565890863102645
21
135.31864782907837
31
0
0
LWPOLYLINE
5
104
100
AcDbEntity
8
0
100
AcDbPolyline
90
4
70
1
43
0.0
10
43.08992696780998
20
131.44775857712153
10
29.324424224422255
20
128.89610534406137
10
26.77277099136213
20
142.66160808744917
10
40.538273734749822
20
145.21326132050925
0
LINE
5
105
100
AcDbEntity
8
0
100
AcDbLine
10
43.08992696780998
20
131.44775857712153
30
0
11
26.77277099136213
21
142.66160808744917
31
0
0
LINE
5
106
100
AcDbEntity
8
0
100
AcDbLine
10
29.324424224422255
20
128.89610534406137
30
0
11
40.538273734749822
21
145.21326132050925
31
0
0
LWPOLYLINE
5
107
100
AcDbEntity
8
0
100
AcDbPolyline
90
4
70
1
43
0.0
10
44.214322702469318
20
148.41071927777017
10
46.536259575878461
20
129.50275510507549
10
65.444223748573094
20
131.82469197848451
10
63.122286875163937
20
150.73265615117927
0
LWPOLYLINE
5
108
100
AcDbEntity
8
0
100
AcDbPolyline
90
4
70
1
43
0.0
10
62.630286733275888
20
134.02310242104085
10
48.734670018434649
20
132.31669212037266
10
47.028259717766531
20
146.21230883521395
10
60.923876432607727
20
147.91871913588204
0
LWPOLYLINE
5
109
100
AcDbEntity
8
0
100
AcDbPolyline
90
4
70
1
43
0.0
10
64.788294535336547
20
150.88576246701558
10
65.951433071833321
20
131.87130457979413
10
84.965890959054761
20
133.03444311629082
10
83.802752422557944
20
152.04890100351238
0
LWPOLYLINE
5
110
100
AcDbEntity
8
0
100
AcDbPolyline
90
4
70
1
43
0.0
10
82.291432640425455
20
135.40056287275181
10
68.317552828294168
20
134.54576289842345
10
67.462752853965853
20
148.51964271055473
10
81.436632666097083
20
149.37444268488298
0
LWPOLYLINE
5
111
100
AcDbEntity
8
0
100
AcDbPolyline
90
4
70
1
43
0.0
10
85.474999999999994
20
152.10000000000011
10
85.47499999999998
20
133.05000000000001
10
104.52500000000001
20
133.0499999999999
10
104.52500000000001
20
152.10000000000005
0
LWPOLYLINE
5
112
100
AcDbEntity
8
0
100
AcDbPolyline
90
4
70
1
43
0.0
10
102.00000000000003
20
135.57499999999996
10
87.999999999999972
20
135.57499999999993
10
88.000000000000028
20
149.57500000000007
10
102.00000000000003
20
149.57500000000005
0
LWPOLYLINE
5
113
100
AcDbEntity
8
0
100
AcDbPolyline
90
4
70
1
43
0.0
10
106.19724757744207
20
152.04890100351233
10
105.0341090409453
20
133.03444311629087
10
124.04856692816668
20
131.87130457979399
10
125.21170546466348
20
150.88576246701552
0
LWPOLYLINE
5
114
100
AcDbEntity
8
0
100
AcDbPolyline
90
4
70
1
43
0.0
10
121.68244717170586
20
134.54576289842345
10
107.70856735957459
20
135.40056287275169
10
108.56336733390295
20
149.37444268488309
10
122.53724714603419
20
148.51964271055468
0
LWPOLYLINE
5
115
100
AcDbEntity
8
0
100
AcDbPolyline
90
4
70
1
43
0.0
10
126.87771312483611
20
150.7326561511793
10
124.55577625142695
20
131.82469197848465
10
143.46374042412157
20
129.50275510507538
10
145.78567729753073
20
148.41071927777011
0
LWPOLYLINE
5
116
100
AcDbEntity
8
0
100
AcDbPolyline
90
4
70
1
43
0.0
10
141.26532998156537
20
132.31669212037264
10
127.36971326672415
20
134.02310242104079
10
129.0761235673923
20
147.91871913588213
10
142.9717402822335
20
146.2123088352138
0
LWPOLYLINE
5
117
100
AcDbEntity
8
0
100
AcDbPolyline
90
4
70
1
43
0.0
10
147.43922840713756
20
148.15617695197574
10
143.96715740072358
20
129.42526071900892
10
162.6980736336904
20
125.95318971259482
10
166.17014464010435
20
144.68410594556175
0
LWPOLYLINE
5
118
100
AcDbEntity
8
0
100
AcDbPolyline
90
4
70
1
43
0.0
10
160.67557577557778
20
128.8961053440614
10
146.91007303219004
20
131.4477585771215
10
149.46172626525021
20
145.21326132050933
10
163.22722900863792
20
142.66160808744911
0
LWPOLYLINE
5
119
100
AcDbEntity
8
0
100
AcDbPolyline
90
4
70
1
43
0.0
10
34.313956318800052
20
126.37012018908807
10
37.376101457578741
20
107.56783928625467
10
56.178382360412165
20
110.62998442503346
10
53.116237221633398
20
129.4322653278669
0
LWPOLYLINE
5
120
100
AcDbEntity
8
0
100
AcDbPolyline
90
3
70
1
43
0.0
10
53.280341638361278
20
112.71627538588578
10
39.462392418431108
20
110.46588000830552
10
51.029946260781038
20
126.53422460581584
0
LINE
5
121
100
AcDbEntity
8
0
100
AcDbLine
10
37.211997040850974
20
124.28382922823565
30
0
11
51.029946260781038
21
126.53422460581584
31
0
0
LINE
5
122
100
AcDbEntity
8
0
100
AcDbLine
10
39.462392418431108
20
110.46588000830552
30
0
11
37.211997040850974
21
124.28382922823565
31
0
0
CIRCLE
5
123
100
AcDbEntity
8
0
100
AcDbCircle
10
95
20
-187
30
0
40
300
210
0
220
-0
230
1
0
LINE
5
124
100
AcDbEntity
8
0
100
AcDbLine
10
53.280341638361278
20
112.71627538588578
30
0
11
37.211997040850974
21
124.28382922823565
31
0
0
LINE
5
125
100
AcDbEntity
8
0
100
AcDbLine
10
43.715096770216675
20
127.90119275847749
30
0
11
46.777241908995457
21
109.09891185564405
31
0
0
LINE
5
126
100
AcDbEntity
8
0
100
AcDbLine
10
35.845028888189432
20
116.96897973767138
30
0
11
54.647309791022785
21
120.03112487645015
31
0
0
LWPOLYLINE
5
127
100
AcDbEntity
8
0
100
AcDbPolyline
90
4
70
1
43
0.0
10
54.66294143512723
20
129.63314708244633
10
56.505349604320429
20
110.67245004520396
10
75.46604664156277
20
112.51485821439715
10
73.623638472369592
20
131.47555525163943
0
LWPOLYLINE
5
128
100
AcDbEntity
8
0
100
AcDbPolyline
90
4
70
1
43
0.0
10
72.708679678505078
20
114.78381776252436
10
58.774309152447657
20
113.42981700826157
10
57.420308398185007
20
127.36418753431894
10
71.354678924242322
20
128.71818828858167
0
LWPOLYLINE
5
129
100
AcDbEntity
8
0
100
AcDbPolyline
90
4
70
1
43
0.0
10
75.180082125595519
20
131.57620592324835
10
75.795072765080121
20
112.53613537418401
10
94.835143314144432
20
113.15112601366862
10
94.220152674659857
20
132.1911965627329
0
LWPOLYLINE
5
130
100
AcDbEntity
8
0
100
AcDbPolyline
90
4
70
1
43
0.0
10
92.22994491513731
20
115.59329539800913
10
78.23724214942068
20
115.14133377319104
10
77.785280524602683
20
129.13403653890759
10
91.777983290319213
20
129.58599816372563
0
LWPOLYLINE
5
131
100
AcDbEntity
8
0
100
AcDbPolyline
90
4
70
1
43
0.0
10
95.779847325340697
20
132.19119656273293
10
95.164856685856023
20
113.15112601366855
10
114.20492723492038
20
112.53613537418394
10
114.81991787440505
20
131.57620592324827
0
LWPOLYLINE
5
132
100
AcDbEntity
8
0
100
AcDbPolyline
90
4
70
1
43
0.0
10
111.76275785057979
20
115.14133377319099
10
97.770055084863131
20
115.59329539800902
10
98.222016709681341
20
129.58599816372561
10
112.21471947539786
20
129.13403653890757
0
LWPOLYLINE
5
133
100
AcDbEntity
8
0
100
AcDbPolyline
90
4
70
1
43
0.0
10
116.37636152763095
20
131.47555525163943
10
114.53395335843769
20
112.51485821439724
10
133.49465039568005
20
110.67245004520386
10
135.33705856487333
20
129.63314708244619
0
LWPOLYLINE
5
134
100
AcDbEntity
8
0
100
AcDbPolyline
90
4
70
1
43
0.0
10
131.22569084755281
20
113.42981700826155
10
117.29132032149539
20
114.78381776252421
10
118.6453210757582
20
128.71818828858159
10
132.57969160181557
20
127.3641875343189
0
LWPOLYLINE
5
135
100
AcDbEntity
8
0
100
AcDbPolyline
90
4
70
1
43
0.0
10
136.88376277836716
20
129.43226532786684
10
133.82161763958834
20
110.62998442503341
10
152.62389854242176
20
107.56783928625458
10
155.6860436812006
20
126.37012018908803
0
LWPOLYLINE
5
136
100
AcDbEntity
8
0
100
AcDbPolyline
90
4
70
1
43
0.0
10
150.53760758156938
20
110.46588000830548
10
136.71965836163923
20
112.71627538588568
10
138.97005373921954
20
126.53422460581574
10
152.78800295914959
20
124.2838292282355
0
LINE
5
137
100
AcDbEntity
8
0
100
AcDbLine
10
36.667384482793047
20
127.68922521580193
30
0
11
95
21
-186.99999999999994
31
0
0
LINE
5
138
100
AcDbEntity
8
0
100
AcDbLine
10
95
20
-187
30
0
11
46.777241908995457
21
109.09891185564405
31
0
0
LWPOLYLINE
5
139
100
AcDbEntity
8
0
100
AcDbPolyline
90
4
70
1
43
0.0
10
85.475000000000023
20
110.1292761811192
10
104.52500000000002
20
110.12927618111924
10
104.52500000000002
20
91.079276181119184
10
85.475000000000009
20
91.079276181119184
0
LWPOLYLINE
5
140
100
AcDbEntity
8
0
100
AcDbPolyline
90
4
70
1
43
0.0
10
88
20
107.60427618111913
10
102.00000000000003
20
107.60427618111913
10
102.00000000000001
20
93.604276181119133
10
88
20
93.604276181119133
0
LINE
5
141
100
AcDbEntity
8
0
100
AcDbLine
10
88
20
107.60427618111913
30
0
11
102.00000000000001
21
93.604276181119133
31
0
0
LINE
5
142
100
AcDbEntity
8
0
100
AcDbLine
10
88
20
93.604276181119133
30
0
11
102.00000000000003
21
107.60427618111913
31
0
0
LINE
5
143
100
AcDbEntity
8
0
100
AcDbLine
10
95.000000000000014
20
110.1292761811192
30
0
11
95.000000000000014
21
91.079276181119184
31
0
0
LINE
5
144
100
AcDbEntity
8
0
100
AcDbLine
10
104.52500000000002
20
100.60427618111922
30
0
11
85.475000000000023
21
100.60427618111923
31
0
0
LINE
5
145
100
AcDbEntity
8
0
100
AcDbLine
10
95.000000000000014
20
133.05000000000001
30
0
11
95
21
-187.00000000000003
31
0
0
LWPOLYLINE
5
146
100
AcDbEntity
8
0
100
AcDbPolyline
90
4
70
1
43
0.0
10
66.425000000000026
20
110.1292761811192
10
85.475000000000023
20
110.12927618111924
10
85.475000000000023
20
91.079276181119184
10
66.425000000000011
20
91.079276181119184
0
LWPOLYLINE
5
147
100
AcDbEntity
8
0
100
AcDbPolyline
90
4
70
1
43
0.0
10
82.950000000000031
20
107.60427618111913
10
82.950000000000003
20
93.604276181119133
10
68.950000000000003
20
93.604276181119133
10
68.950000000000017
20
107.60427618111913
0
LWPOLYLINE
5
148
100
AcDbEntity
8
0
100
AcDbPolyline
90
4
70
1
43
0.0
10
104.52500000000003
20
110.1292761811192
10
123.57500000000002
20
110.12927618111924
10
123.57500000000002
20
91.079276181119184
10
104.52500000000001
20
91.079276181119184
0
LWPOLYLINE
5
149
100
AcDbEntity
8
0
100
AcDbPolyline
90
4
70
1
43
0.0
10
121.05000000000003
20
107.60427618111913
10
121.05000000000003
20
93.604276181119133
10
107.05
20
93.604276181119133
10
107.05000000000001
20
107.60427618111913
0
LWPOLYLINE
5
150
100
AcDbEntity
8
0
100
AcDbPolyline
90
4
70
1
43
0.0
10
66.425000000000026
20
91.079276181119184
10
85.475000000000023
20
91.079276181119241
10
85.475000000000023
20
72.029276181119201
10
66.425000000000011
20
72.029276181119201
0
LWPOLYLINE
5
151
100
AcDbEntity
8
0
100
AcDbPolyline
90
4
70
1
43
0.0
10
82.950000000000031
20
88.55427618111915
10
82.950000000000003
20
74.554276181119135
10
68.950000000000003
20
74.554276181119135
10
68.950000000000017
20
88.55427618111915
0
LWPOLYLINE
5
152
100
AcDbEntity
8
0
100
AcDbPolyline
90
4
70
1
43
0.0
10
85.475000000000023
20
91.079276181119184
10
104.52500000000002
20
91.079276181119241
10
104.52500000000002
20
72.029276181119201
10
85.475000000000009
20
72.029276181119201
0
LWPOLYLINE
5
153
100
AcDbEntity
8
0
100
AcDbPolyline
90
4
70
1
43
0.0
10
102.00000000000003
20
88.55427618111915
10
102.00000000000001
20
74.554276181119135
10
88
20
74.554276181119135
10
88
20
88.55427618111915
0
LWPOLYLINE
5
154
100
AcDbEntity
8
0
100
AcDbPolyline
90
4
70
1
43
0.0
10
104.52500000000003
20
91.079276181119184
10
123.57500000000002
20
91.079276181119241
10
123.57500000000002
20
72.029276181119201
10
104.52500000000001
20
72.029276181119201
0
LWPOLYLINE
5
155
100
AcDbEntity
8
0
100
AcDbPolyline
90
4
70
1
43
0.0
10
121.05000000000003
20
88.55427618111915
10
121.05000000000003
20
74.554276181119135
10
107.05
20
74.554276181119135
10
107.05000000000001
20
88.55427618111915
0
LWPOLYLINE
5
156
100
AcDbEntity
8
0
100
AcDbPolyline
90
4
70
1
43
0.0
10
54.375000000000036
20
102.84177618111924
10
54.375000000000043
20
88.841776181119258
10
40.375000000000021
20
88.841776181119258
10
40.375000000000028
20
102.84177618111926
0
LINE
5
157
100
AcDbEntity
8
0
100
AcDbLine
10
40.375000000000028
20
102.84177618111926
30
0
11
54.375000000000043
21
88.841776181119258
31
0
0
LINE
5
158
100
AcDbEntity
8
0
100
AcDbLine
10
47.375000000000014
20
105.36677618111925
30
0
11
47.375000000000014
21
86.316776181119224
31
0
0
LINE
5
159
100
AcDbEntity
8
0
100
AcDbLine
10
40.375000000000021
20
88.841776181119258
30
0
11
54.375000000000036
21
102.84177618111924
31
0
0
LINE
5
160
100
AcDbEntity
8
0
100
AcDbLine
10
56.899999999999991
20
95.841776181119229
30
0
11
37.85000000000003
21
95.841776181119258
31
0
0
LINE
5
161
100
AcDbEntity
8
0
100
AcDbLine
10
56.900000000000013
20
105.36677618111925
30
0
11
56.899999999999977
21
86.316776181119209
31
0
0
LINE
5
162
100
AcDbEntity
8
0
100
AcDbLine
10
37.850000000000016
20
105.36677618111925
30
0
11
56.900000000000013
21
105.36677618111925
31
0
0
LINE
5
163
100
AcDbEntity
8
0
100
AcDbLine
10
37.850000000000044
20
86.316776181119252
30
0
11
56.899999999999977
21
86.316776181119209
31
0
0
LINE
5
164
100
AcDbEntity
8
0
100
AcDbLine
10
37.850000000000016
20
105.36677618111925
30
0
11
37.850000000000044
21
86.316776181119252
31
0
0
LINE
5
165
100
AcDbEntity
8
0
100
AcDbLine
10
133.09999999999999
20
105.36677618111906
30
0
11
152.15000000000001
21
105.36677618111906
31
0
0
LINE
5
166
100
AcDbEntity
8
0
100
AcDbLine
10
152.15000000000001
20
105.36677618111906
30
0
11
152.15000000000001
21
86.316776181119053
31
0
0
LINE
5
167
100
AcDbEntity
8
0
100
AcDbLine
10
133.09999999999999
20
86.316776181119053
30
0
11
152.15000000000001
21
86.316776181119053
31
0
0
LINE
5
168
100
AcDbEntity
8
0
100
AcDbLine
10
133.09999999999999
20
105.36677618111906
30
0
11
133.09999999999999
21
86.316776181119067
31
0
0
LINE
5
169
100
AcDbEntity
8
0
100
AcDbLine
10
152.15000000000001
20
95.841776181119059
30
0
11
133.09999999999999
21
95.841776181119059
31
0
0
LINE
5
170
100
AcDbEntity
8
0
100
AcDbLine
10
142.625
20
105.36677618111906
30
0
11
142.625
21
86.316776181119053
31
0
0
LWPOLYLINE
5
171
100
AcDbEntity
8
0
100
AcDbPolyline
90
4
70
1
43
0.0
10
149.62500000000003
20
102.84177618111904
10
149.62500000000003
20
88.841776181119073
10
135.62500000000003
20
88.841776181119073
10
135.625
20
102.84177618111906
0
LINE
5
172
100
AcDbEntity
8
0
100
AcDbLine
10
135.625
20
102.84177618111906
30
0
11
149.62500000000003
21
88.841776181119073
31
0
0
LINE
5
173
100
AcDbEntity
8
0
100
AcDbLine
10
135.62500000000003
20
88.841776181119073
30
0
11
149.62500000000003
21
102.84177618111904
31
0
0
LINE
5
174
100
AcDbEntity
8
0
100
AcDbLine
10
18.80000000000004
20
86.316776181119252
30
0
11
37.849999999999973
21
86.316776181119209
31
0
0
LINE
5
175
100
AcDbEntity
8
0
100
AcDbLine
10
37.850000000000009
20
105.36677618111925
30
0
11
37.849999999999973
21
86.316776181119209
31
0
0
LINE
5
176
100
AcDbEntity
8
0
100
AcDbLine
10
18.800000000000011
20
105.36677618111925
30
0
11
37.850000000000009
21
105.36677618111925
31
0
0
LINE
5
177
100
AcDbEntity
8
0
100
AcDbLine
10
18.800000000000011
20
105.36677618111925
30
0
11
18.80000000000004
21
86.316776181119252
31
0
0
LWPOLYLINE
5
178
100
AcDbEntity
8
0
100
AcDbPolyline
90
4
70
1
43
0.0
10
21.325000000000021
20
88.841776181119258
10
21.325000000000031
20
102.84177618111926
10
35.325000000000031
20
102.84177618111924
10
35.325000000000045
20
88.841776181119258
0
LINE
5
179
100
AcDbEntity
8
0
100
AcDbLine
10
37.850000000000044
20
67.266776181119255
30
0
11
56.899999999999977
21
67.266776181119198
31
0
0
LINE
5
180
100
AcDbEntity
8
0
100
AcDbLine
10
56.900000000000013
20
86.316776181119252
30
0
11
56.899999999999977
21
67.266776181119198
31
0
0
LINE
5
181
100
AcDbEntity
8
0
100
AcDbLine
10
37.850000000000016
20
86.316776181119252
30
0
11
56.900000000000013
21
86.316776181119252
31
0
0
LINE
5
182
100
AcDbEntity
8
0
100
AcDbLine
10
37.850000000000016
20
86.316776181119252
30
0
11
37.850000000000044
21
67.266776181119255
31
0
0
LWPOLYLINE
5
183
100
AcDbEntity
8
0
100
AcDbPolyline
90
4
70
1
43
0.0
10
40.375000000000021
20
69.791776181119246
10
40.375000000000028
20
83.791776181119246
10
54.375000000000036
20
83.791776181119246
10
54.375000000000043
20
69.791776181119246
0
LINE
5
184
100
AcDbEntity
8
0
100
AcDbLine
10
37.850000000000044
20
48.216776181119258
30
0
11
56.899999999999977
21
48.216776181119201
31
0
0
LINE
5
185
100
AcDbEntity
8
0
100
AcDbLine
10
56.900000000000013
20
67.266776181119241
30
0
11
56.899999999999977
21
48.216776181119201
31
0
0
LINE
5
186
100
AcDbEntity
8
0
100
AcDbLine
10
37.850000000000016
20
67.266776181119241
30
0
11
56.900000000000013
21
67.266776181119241
31
0
0
LINE
5
187
100
AcDbEntity
8
0
100
AcDbLine
10
37.850000000000016
20
67.266776181119241
30
0
11
37.850000000000044
21
48.216776181119258
31
0
0
LWPOLYLINE
5
188
100
AcDbEntity
8
0
100
AcDbPolyline
90
4
70
1
43
0.0
10
40.375000000000021
20
50.741776181119249
10
40.375000000000028
20
64.741776181119249
10
54.375000000000036
20
64.741776181119235
10
54.375000000000043
20
50.741776181119249
0
LINE
5
189
100
AcDbEntity
8
0
100
AcDbLine
10
123.57500000000003
20
48.216776181119045
30
0
11
142.625
21
48.216776181118973
31
0
0
LINE
5
190
100
AcDbEntity
8
0
100
AcDbLine
10
142.625
20
67.266776181119056
30
0
11
142.625
21
48.216776181118973
31
0
0
LINE
5
191
100
AcDbEntity
8
0
100
AcDbLine
10
123.57499999999999
20
67.266776181119042
30
0
11
142.625
21
67.266776181119056
31
0
0
LINE
5
192
100
AcDbEntity
8
0
100
AcDbLine
10
123.57499999999999
20
67.266776181119056
30
0
11
123.57500000000003
21
48.21677618111903
31
0
0
LINE
5
193
100
AcDbEntity
8
0
100
AcDbLine
10
126.09999999999994
20
64.741776181119036
30
0
11
140.09999999999994
21
50.741776181119
31
0
0
LWPOLYLINE
5
194
100
AcDbEntity
8
0
100
AcDbPolyline
90
3
70
1
43
0.0
10
126.10000000000007
20
50.741776181119036
10
140.09999999999997
20
64.741776181119022
10
126.09999999999994
20
64.741776181119036
0
LINE
5
195
100
AcDbEntity
8
0
100
AcDbLine
10
142.625
20
57.741776181119022
30
0
11
123.57500000000002
21
57.74177618111905
31
0
0
LINE
5
196
100
AcDbEntity
8
0
100
AcDbLine
10
133.09999999999999
20
67.266776181119056
30
0
11
133.09999999999999
21
48.216776181119016
31
0
0
LINE
5
197
100
AcDbEntity
8
0
100
AcDbLine
10
140.09999999999994
20
50.741776181119
30
0
11
126.10000000000007
21
50.741776181119036
31
0
0
LINE
5
198
100
AcDbEntity
8
0
100
AcDbLine
10
140.09999999999997
20
64.741776181119022
30
0
11
140.09999999999994
21
50.741776181119
31
0
0
LINE
5
199
100
AcDbEntity
8
0
100
AcDbLine
10
171.20000000000002
20
105.36677618111906
30
0
11
171.20000000000002
21
86.316776181119053
31
0
0
LINE
5
200
100
AcDbEntity
8
0
100
AcDbLine
10
152.15000000000001
20
86.316776181119053
30
0
11
171.20000000000002
21
86.316776181119053
31
0
0
LINE
5
201
100
AcDbEntity
8
0
100
AcDbLine
10
152.15000000000001
20
105.36677618111906
30
0
11
152.15000000000001
21
86.316776181119067
31
0
0
LINE
5
202
100
AcDbEntity
8
0
100
AcDbLine
10
152.15000000000001
20
105.36677618111906
30
0
11
171.20000000000002
21
105.36677618111906
31
0
0
LWPOLYLINE
5
203
100
AcDbEntity
8
0
100
AcDbPolyline
90
4
70
1
43
0.0
10
168.67500000000004
20
88.841776181119073
10
154.67500000000001
20
88.841776181119073
10
154.67500000000001
20
102.84177618111906
10
168.67500000000004
20
102.84177618111904
0
LINE
5
204
100
AcDbEntity
8
0
100
AcDbLine
10
152.15000000000001
20
86.316776181119053
30
0
11
152.15000000000001
21
67.266776181119042
31
0
0
LINE
5
205
100
AcDbEntity
8
0
100
AcDbLine
10
133.09999999999999
20
67.266776181119042
30
0
11
152.15000000000001
21
67.266776181119042
31
0
0
LINE
5
206
100
AcDbEntity
8
0
100
AcDbLine
10
133.09999999999999
20
86.316776181119053
30
0
11
133.09999999999999
21
67.266776181119056
31
0
0
LINE
5
207
100
AcDbEntity
8
0
100
AcDbLine
10
133.09999999999999
20
86.316776181119053
30
0
11
152.15000000000001
21
86.316776181119053
31
0
0
LWPOLYLINE
5
208
100
AcDbEntity
8
0
100
AcDbPolyline
90
4
70
1
43
0.0
10
149.62500000000003
20
69.791776181119076
10
135.62500000000003
20
69.791776181119076
10
135.625
20
83.791776181119076
10
149.62500000000003
20
83.791776181119033
0
LINE
5
209
100
AcDbEntity
8
0
100
AcDbLine
10
171.20000000000002
20
86.316776181119053
30
0
11
171.20000000000002
21
67.266776181119042
31
0
0
LINE
5
210
100
AcDbEntity
8
0
100
AcDbLine
10
152.15000000000001
20
67.266776181119042
30
0
11
171.20000000000002
21
67.266776181119042
31
0
0
LINE
5
211
100
AcDbEntity
8
0
100
AcDbLine
10
152.15000000000001
20
86.316776181119053
30
0
11
152.15000000000001
21
67.266776181119056
31
0
0
LINE
5
212
100
AcDbEntity
8
0
100
AcDbLine
10
152.15000000000001
20
86.316776181119053
30
0
11
171.20000000000002
21
86.316776181119053
31
0
0
LWPOLYLINE
5
213
100
AcDbEntity
8
0
100
AcDbPolyline
90
4
70
1
43
0.0
10
168.67500000000004
20
69.791776181119076
10
154.67500000000001
20
69.791776181119076
10
154.67500000000001
20
83.791776181119076
10
168.67500000000004
20
83.791776181119033
0
LINE
5
214
100
AcDbEntity
8
0
100
AcDbLine
10
161.67500000000001
20
62.504276181119053
30
0
11
161.67500000000001
21
43.454276181118971
31
0
0
LINE
5
215
100
AcDbEntity
8
0
100
AcDbLine
10
142.62500000000003
20
43.454276181119042
30
0
11
161.67500000000001
21
43.454276181118971
31
0
0
LINE
5
216
100
AcDbEntity
8
0
100
AcDbLine
10
142.625
20
62.504276181119053
30
0
11
142.62500000000003
21
43.454276181119027
31
0
0
LWPOLYLINE
5
217
100
AcDbEntity
8
0
100
AcDbPolyline
90
4
70
1
43
0.0
10
159.14999999999995
20
45.979276181118998
10
145.15000000000009
20
45.979276181119033
10
145.14999999999992
20
59.979276181119026
10
159.14999999999995
20
59.979276181119019
0
LINE
5
218
100
AcDbEntity
8
0
100
AcDbLine
10
142.625
20
62.504276181119039
30
0
11
161.67500000000001
21
62.504276181119053
31
0
0
LINE
5
219
100
AcDbEntity
8
0
100
AcDbLine
10
180.72499999999997
20
62.504276181119053
30
0
11
180.72499999999997
21
43.454276181118971
31
0
0
LINE
5
220
100
AcDbEntity
8
0
100
AcDbLine
10
161.67500000000004
20
43.454276181119042
30
0
11
180.72499999999997
21
43.454276181118971
31
0
0
LINE
5
221
100
AcDbEntity
8
0
100
AcDbLine
10
161.67499999999995
20
62.504276181119053
30
0
11
161.67500000000004
21
43.454276181119027
31
0
0
LWPOLYLINE
5
222
100
AcDbEntity
8
0
100
AcDbPolyline
90
4
70
1
43
0.0
10
178.19999999999993
20
45.979276181118998
10
164.2000000000001
20
45.979276181119033
10
164.19999999999993
20
59.979276181119026
10
178.19999999999996
20
59.979276181119019
0
LINE
5
223
100
AcDbEntity
8
0
100
AcDbLine
10
161.67499999999995
20
62.504276181119039
30
0
11
180.72499999999997
21
62.504276181119053
31
0
0
LINE
5
224
100
AcDbEntity
8
0
100
AcDbLine
10
128.33750000000003
20
24.404276181119037
30
0
11
147.38749999999999
21
24.404276181118966
31
0
0
LINE
5
225
100
AcDbEntity
8
0
100
AcDbLine
10
147.38749999999999
20
43.454276181119049
30
0
11
147.38749999999999
21
24.404276181118966
31
0
0
LINE
5
226
100
AcDbEntity
8
0
100
AcDbLine
10
128.33749999999998
20
43.454276181119042
30
0
11
147.38749999999999
21
43.454276181119049
31
0
0
LINE
5
227
100
AcDbEntity
8
0
100
AcDbLine
10
128.33749999999998
20
43.454276181119049
30
0
11
128.33750000000003
21
24.404276181119027
31
0
0
LWPOLYLINE
5
228
100
AcDbEntity
8
0
100
AcDbPolyline
90
4
70
1
43
0.0
10
130.86250000000007
20
26.929276181119029
10
130.86249999999995
20
40.929276181119022
10
144.86249999999995
20
40.929276181119015
10
144.86249999999995
20
26.929276181118993
0
LINE
5
229
100
AcDbEntity
8
0
100
AcDbLine
10
171.20000000000002
20
43.454276181119049
30
0
11
171.20000000000002
21
24.404276181118966
31
0
0
LINE
5
230
100
AcDbEntity
8
0
100
AcDbLine
10
152.15000000000003
20
24.404276181119037
30
0
11
171.20000000000002
21
24.404276181118966
31
0
0
LINE
5
231
100
AcDbEntity
8
0
100
AcDbLine
10
152.15000000000001
20
43.454276181119042
30
0
11
152.15000000000003
21
24.404276181119037
31
0
0
LINE
5
232
100
AcDbEntity
8
0
100
AcDbLine
10
152.15000000000001
20
43.454276181119042
30
0
11
171.20000000000002
21
43.454276181119049
31
0
0
LWPOLYLINE
5
233
100
AcDbEntity
8
0
100
AcDbPolyline
90
4
70
1
43
0.0
10
154.67499999999995
20
40.929276181119022
10
168.67499999999993
20
40.929276181119015
10
168.67499999999995
20
26.929276181118993
10
154.67500000000007
20
26.929276181119022
0
LWPOLYLINE
5
234
100
AcDbEntity
8
0
100
AcDbPolyline
90
4
70
1
43
0.0
10
175.96250000000001
20
43.454276181119063
10
147.38749999999999
20
43.454276181119063
10
147.38749999999999
20
24.404276181119062
10
175.96250000000001
20
24.404276181119062
0
LINE
5
235
100
AcDbEntity
8
0
100
AcDbLine
10
175.96250000000001
20
43.454276181119063
30
0
11
147.38749999999999
21
24.404276181119062
31
0
0
LINE
5
236
100
AcDbEntity
8
0
100
AcDbLine
10
147.38749999999999
20
43.454276181119063
30
0
11
175.96250000000001
21
24.404276181119062
31
0
0
LINE
5
237
100
AcDbEntity
8
0
100
AcDbLine
10
37.850000000000044
20
29.166776181119253
30
0
11
56.899999999999977
21
29.166776181119197
31
0
0
LINE
5
238
100
AcDbEntity
8
0
100
AcDbLine
10
56.900000000000013
20
48.216776181119243
30
0
11
56.899999999999977
21
29.166776181119197
31
0
0
LINE
5
239
100
AcDbEntity
8
0
100
AcDbLine
10
37.850000000000016
20
48.216776181119243
30
0
11
56.900000000000013
21
48.216776181119243
31
0
0
LINE
5
240
100
AcDbEntity
8
0
100
AcDbLine
10
37.850000000000016
20
48.216776181119243
30
0
11
37.850000000000044
21
29.166776181119253
31
0
0
LWPOLYLINE
5
241
100
AcDbEntity
8
0
100
AcDbPolyline
90
4
70
1
43
0.0
10
40.375000000000021
20
31.691776181119245
10
40.375000000000028
20
45.691776181119252
10
54.375000000000036
20
45.691776181119231
10
54.375000000000043
20
31.691776181119245
0
ENDSEC
0
SECTION
2
OBJECTS
0
DICTIONARY
5
C
100
AcDbDictionary
3
ACAD_GROUP
350
D
3
ACAD_MLINESTYLE
350
17
0
DICTIONARY
5
D
100
AcDbDictionary
0
DICTIONARY
5
1A
330
C
100
AcDbDictionary
0
DICTIONARY
5
17
100
AcDbDictionary
0
ENDSEC
0
EOF
