  0
SECTION
  2
HEADER
  9
$ACADVER
  1
AC1009
  9
$FILLMODE
 70
 0
  9
$SPLFRAME
 70
 1
  9
$EXTMIN
 10
0
 20
0
 30
0.0
  9
$EXTMAX
 10
1058.33
 20
1058.33
 30
0.0
  0
ENDSEC
  0
SECTION
  2
TABLES
  0
TABLE
  2
LAYER
 70
1
  0
LAYER
  2
0
 70
     0
 62
     7
  6
CONTINUOUS
  0
ENDTAB
  0
ENDSEC
  0
SECTION
  2
ENTITIES
  0
LINE
  8
0
 62
     0
 10
0.0950846
 20
153.01
 30
0.0
 11
164.496
 21
153.01
 31
0.0
  0
LINE
  8
0
 62
     0
 10
164.496
 20
153.01
 30
0.0
 11
164.496
 21
0.420303
 31
0.0
  0
LINE
  8
0
 62
     0
 10
164.496
 20
0.420303
 30
0.0
 11
0.0950846
 21
0.420303
 31
0.0
  0
LINE
  8
0
 62
     0
 10
0.0950846
 20
0.420303
 30
0.0
 11
0.0950846
 21
153.01
 31
0.0
  0
LINE
  8
0
 62
     0
 10
119.396
 20
16.9458
 30
0.0
 11
119.396
 21
15.9466
 31
0.0
  0
LINE
  8
0
 62
     0
 10
119.396
 20
15.9466
 30
0.0
 11
118.595
 21
15.9466
 31
0.0
  0
LINE
  8
0
 62
     0
 10
118.595
 20
15.9466
 30
0.0
 11
118.595
 21
12.8461
 31
0.0
  0
LINE
  8
0
 62
     0
 10
118.595
 20
12.8461
 30
0.0
 11
119.396
 21
12.8461
 31
0.0
  0
LINE
  8
0
 62
     0
 10
119.396
 20
12.8461
 30
0.0
 11
119.396
 21
7.04592
 31
0.0
  0
LINE
  8
0
 62
     0
 10
119.396
 20
7.04592
 30
0.0
 11
118.595
 21
7.04592
 31
0.0
  0
LINE
  8
0
 62
     0
 10
118.595
 20
7.04592
 30
0.0
 11
118.595
 21
3.9467
 31
0.0
  0
LINE
  8
0
 62
     0
 10
118.595
 20
3.9467
 30
0.0
 11
119.396
 21
3.9467
 31
0.0
  0
LINE
  8
0
 62
     0
 10
119.396
 20
3.9467
 30
0.0
 11
119.396
 21
2.94624
 31
0.0
  0
LINE
  8
0
 62
     0
 10
119.396
 20
2.94624
 30
0.0
 11
133.396
 21
2.94624
 31
0.0
  0
LINE
  8
0
 62
     0
 10
133.396
 20
2.94624
 30
0.0
 11
133.396
 21
3.9467
 31
0.0
  0
LINE
  8
0
 62
     0
 10
133.396
 20
3.9467
 30
0.0
 11
134.196
 21
3.9467
 31
0.0
  0
LINE
  8
0
 62
     0
 10
134.196
 20
3.9467
 30
0.0
 11
134.196
 21
7.04592
 31
0.0
  0
LINE
  8
0
 62
     0
 10
134.196
 20
7.04592
 30
0.0
 11
133.396
 21
7.04592
 31
0.0
  0
LINE
  8
0
 62
     0
 10
133.396
 20
7.04592
 30
0.0
 11
133.396
 21
12.8461
 31
0.0
  0
LINE
  8
0
 62
     0
 10
133.396
 20
12.8461
 30
0.0
 11
134.196
 21
12.8461
 31
0.0
  0
LINE
  8
0
 62
     0
 10
134.196
 20
12.8461
 30
0.0
 11
134.196
 21
15.9466
 31
0.0
  0
LINE
  8
0
 62
     0
 10
134.196
 20
15.9466
 30
0.0
 11
133.396
 21
15.9466
 31
0.0
  0
LINE
  8
0
 62
     0
 10
133.396
 20
15.9466
 30
0.0
 11
133.396
 21
16.9458
 31
0.0
  0
LINE
  8
0
 62
     0
 10
133.396
 20
16.9458
 30
0.0
 11
119.396
 21
16.9458
 31
0.0
  0
LINE
  8
0
 62
     0
 10
143.208
 20
16.9458
 30
0.0
 11
143.208
 21
15.9466
 31
0.0
  0
LINE
  8
0
 62
     0
 10
143.208
 20
15.9466
 30
0.0
 11
142.408
 21
15.9466
 31
0.0
  0
LINE
  8
0
 62
     0
 10
142.408
 20
15.9466
 30
0.0
 11
142.408
 21
12.8461
 31
0.0
  0
LINE
  8
0
 62
     0
 10
142.408
 20
12.8461
 30
0.0
 11
143.208
 21
12.8461
 31
0.0
  0
LINE
  8
0
 62
     0
 10
143.208
 20
12.8461
 30
0.0
 11
143.208
 21
7.04592
 31
0.0
  0
LINE
  8
0
 62
     0
 10
143.208
 20
7.04592
 30
0.0
 11
142.408
 21
7.04592
 31
0.0
  0
LINE
  8
0
 62
     0
 10
142.408
 20
7.04592
 30
0.0
 11
142.408
 21
3.9467
 31
0.0
  0
LINE
  8
0
 62
     0
 10
142.408
 20
3.9467
 30
0.0
 11
143.208
 21
3.9467
 31
0.0
  0
LINE
  8
0
 62
     0
 10
143.208
 20
3.9467
 30
0.0
 11
143.208
 21
2.94624
 31
0.0
  0
LINE
  8
0
 62
     0
 10
143.208
 20
2.94624
 30
0.0
 11
157.208
 21
2.94624
 31
0.0
  0
LINE
  8
0
 62
     0
 10
157.208
 20
2.94624
 30
0.0
 11
157.208
 21
3.9467
 31
0.0
  0
LINE
  8
0
 62
     0
 10
157.208
 20
3.9467
 30
0.0
 11
158.008
 21
3.9467
 31
0.0
  0
LINE
  8
0
 62
     0
 10
158.008
 20
3.9467
 30
0.0
 11
158.008
 21
7.04592
 31
0.0
  0
LINE
  8
0
 62
     0
 10
158.008
 20
7.04592
 30
0.0
 11
157.208
 21
7.04592
 31
0.0
  0
LINE
  8
0
 62
     0
 10
157.208
 20
7.04592
 30
0.0
 11
157.208
 21
12.8461
 31
0.0
  0
LINE
  8
0
 62
     0
 10
157.208
 20
12.8461
 30
0.0
 11
158.008
 21
12.8461
 31
0.0
  0
LINE
  8
0
 62
     0
 10
158.008
 20
12.8461
 30
0.0
 11
158.008
 21
15.9466
 31
0.0
  0
LINE
  8
0
 62
     0
 10
158.008
 20
15.9466
 30
0.0
 11
157.208
 21
15.9466
 31
0.0
  0
LINE
  8
0
 62
     0
 10
157.208
 20
15.9466
 30
0.0
 11
157.208
 21
16.9458
 31
0.0
  0
LINE
  8
0
 62
     0
 10
157.208
 20
16.9458
 30
0.0
 11
143.208
 21
16.9458
 31
0.0
  0
LINE
  8
0
 62
     0
 10
24.146
 20
21.7083
 30
0.0
 11
24.146
 21
20.7078
 31
0.0
  0
LINE
  8
0
 62
     0
 10
24.146
 20
20.7078
 30
0.0
 11
23.3454
 21
20.7078
 31
0.0
  0
LINE
  8
0
 62
     0
 10
23.3454
 20
20.7078
 30
0.0
 11
23.3454
 21
17.6086
 31
0.0
  0
LINE
  8
0
 62
     0
 10
23.3454
 20
17.6086
 30
0.0
 11
24.146
 21
17.6086
 31
0.0
  0
LINE
  8
0
 62
     0
 10
24.146
 20
17.6086
 30
0.0
 11
24.146
 21
11.8084
 31
0.0
  0
LINE
  8
0
 62
     0
 10
24.146
 20
11.8084
 30
0.0
 11
23.3454
 21
11.8084
 31
0.0
  0
LINE
  8
0
 62
     0
 10
23.3454
 20
11.8084
 30
0.0
 11
23.3454
 21
8.70783
 31
0.0
  0
LINE
  8
0
 62
     0
 10
23.3454
 20
8.70783
 30
0.0
 11
24.146
 21
8.70783
 31
0.0
  0
LINE
  8
0
 62
     0
 10
24.146
 20
8.70783
 30
0.0
 11
24.146
 21
7.70876
 31
0.0
  0
LINE
  8
0
 62
     0
 10
24.146
 20
7.70876
 30
0.0
 11
38.1455
 21
7.70876
 31
0.0
  0
LINE
  8
0
 62
     0
 10
38.1455
 20
7.70876
 30
0.0
 11
38.1455
 21
8.70783
 31
0.0
  0
LINE
  8
0
 62
     0
 10
38.1455
 20
8.70783
 30
0.0
 11
38.946
 21
8.70783
 31
0.0
  0
LINE
  8
0
 62
     0
 10
38.946
 20
8.70783
 30
0.0
 11
38.946
 21
11.8084
 31
0.0
  0
LINE
  8
0
 62
     0
 10
38.946
 20
11.8084
 30
0.0
 11
38.1455
 21
11.8084
 31
0.0
  0
LINE
  8
0
 62
     0
 10
38.1455
 20
11.8084
 30
0.0
 11
38.1455
 21
17.6086
 31
0.0
  0
LINE
  8
0
 62
     0
 10
38.1455
 20
17.6086
 30
0.0
 11
38.946
 21
17.6086
 31
0.0
  0
LINE
  8
0
 62
     0
 10
38.946
 20
17.6086
 30
0.0
 11
38.946
 21
20.7078
 31
0.0
  0
LINE
  8
0
 62
     0
 10
38.946
 20
20.7078
 30
0.0
 11
38.1455
 21
20.7078
 31
0.0
  0
LINE
  8
0
 62
     0
 10
38.1455
 20
20.7078
 30
0.0
 11
38.1455
 21
21.7083
 31
0.0
  0
LINE
  8
0
 62
     0
 10
38.1455
 20
21.7083
 30
0.0
 11
24.146
 21
21.7083
 31
0.0
  0
LINE
  8
0
 62
     0
 10
128.921
 20
35.9957
 30
0.0
 11
128.921
 21
34.9967
 31
0.0
  0
LINE
  8
0
 62
     0
 10
128.921
 20
34.9967
 30
0.0
 11
128.12
 21
34.9967
 31
0.0
  0
LINE
  8
0
 62
     0
 10
128.12
 20
34.9967
 30
0.0
 11
128.12
 21
31.8961
 31
0.0
  0
LINE
  8
0
 62
     0
 10
128.12
 20
31.8961
 30
0.0
 11
128.921
 21
31.8961
 31
0.0
  0
LINE
  8
0
 62
     0
 10
128.921
 20
31.8961
 30
0.0
 11
128.921
 21
26.0959
 31
0.0
  0
LINE
  8
0
 62
     0
 10
128.921
 20
26.0959
 30
0.0
 11
128.12
 21
26.0959
 31
0.0
  0
LINE
  8
0
 62
     0
 10
128.12
 20
26.0959
 30
0.0
 11
128.12
 21
22.9967
 31
0.0
  0
LINE
  8
0
 62
     0
 10
128.12
 20
22.9967
 30
0.0
 11
128.921
 21
22.9967
 31
0.0
  0
LINE
  8
0
 62
     0
 10
128.921
 20
22.9967
 30
0.0
 11
128.921
 21
21.9963
 31
0.0
  0
LINE
  8
0
 62
     0
 10
128.921
 20
21.9963
 30
0.0
 11
142.921
 21
21.9963
 31
0.0
  0
LINE
  8
0
 62
     0
 10
142.921
 20
21.9963
 30
0.0
 11
142.921
 21
22.9967
 31
0.0
  0
LINE
  8
0
 62
     0
 10
142.921
 20
22.9967
 30
0.0
 11
143.721
 21
22.9967
 31
0.0
  0
LINE
  8
0
 62
     0
 10
143.721
 20
22.9967
 30
0.0
 11
143.721
 21
26.0959
 31
0.0
  0
LINE
  8
0
 62
     0
 10
143.721
 20
26.0959
 30
0.0
 11
142.921
 21
26.0959
 31
0.0
  0
LINE
  8
0
 62
     0
 10
142.921
 20
26.0959
 30
0.0
 11
142.921
 21
31.8961
 31
0.0
  0
LINE
  8
0
 62
     0
 10
142.921
 20
31.8961
 30
0.0
 11
143.721
 21
31.8961
 31
0.0
  0
LINE
  8
0
 62
     0
 10
143.721
 20
31.8961
 30
0.0
 11
143.721
 21
34.9967
 31
0.0
  0
LINE
  8
0
 62
     0
 10
143.721
 20
34.9967
 30
0.0
 11
142.921
 21
34.9967
 31
0.0
  0
LINE
  8
0
 62
     0
 10
142.921
 20
34.9967
 30
0.0
 11
142.921
 21
35.9957
 31
0.0
  0
LINE
  8
0
 62
     0
 10
142.921
 20
35.9957
 30
0.0
 11
128.921
 21
35.9957
 31
0.0
  0
LINE
  8
0
 62
     0
 10
147.971
 20
35.9957
 30
0.0
 11
147.971
 21
34.9967
 31
0.0
  0
LINE
  8
0
 62
     0
 10
147.971
 20
34.9967
 30
0.0
 11
147.17
 21
34.9967
 31
0.0
  0
LINE
  8
0
 62
     0
 10
147.17
 20
34.9967
 30
0.0
 11
147.17
 21
31.8961
 31
0.0
  0
LINE
  8
0
 62
     0
 10
147.17
 20
31.8961
 30
0.0
 11
147.971
 21
31.8961
 31
0.0
  0
LINE
  8
0
 62
     0
 10
147.971
 20
31.8961
 30
0.0
 11
147.971
 21
26.0959
 31
0.0
  0
LINE
  8
0
 62
     0
 10
147.971
 20
26.0959
 30
0.0
 11
147.17
 21
26.0959
 31
0.0
  0
LINE
  8
0
 62
     0
 10
147.17
 20
26.0959
 30
0.0
 11
147.17
 21
22.9967
 31
0.0
  0
LINE
  8
0
 62
     0
 10
147.17
 20
22.9967
 30
0.0
 11
147.971
 21
22.9967
 31
0.0
  0
LINE
  8
0
 62
     0
 10
147.971
 20
22.9967
 30
0.0
 11
147.971
 21
21.9963
 31
0.0
  0
LINE
  8
0
 62
     0
 10
147.971
 20
21.9963
 30
0.0
 11
161.971
 21
21.9963
 31
0.0
  0
LINE
  8
0
 62
     0
 10
161.971
 20
21.9963
 30
0.0
 11
161.971
 21
22.9967
 31
0.0
  0
LINE
  8
0
 62
     0
 10
161.971
 20
22.9967
 30
0.0
 11
162.771
 21
22.9967
 31
0.0
  0
LINE
  8
0
 62
     0
 10
162.771
 20
22.9967
 30
0.0
 11
162.771
 21
26.0959
 31
0.0
  0
LINE
  8
0
 62
     0
 10
162.771
 20
26.0959
 30
0.0
 11
161.971
 21
26.0959
 31
0.0
  0
LINE
  8
0
 62
     0
 10
161.971
 20
26.0959
 30
0.0
 11
161.971
 21
31.8961
 31
0.0
  0
LINE
  8
0
 62
     0
 10
161.971
 20
31.8961
 30
0.0
 11
162.771
 21
31.8961
 31
0.0
  0
LINE
  8
0
 62
     0
 10
162.771
 20
31.8961
 30
0.0
 11
162.771
 21
34.9967
 31
0.0
  0
LINE
  8
0
 62
     0
 10
162.771
 20
34.9967
 30
0.0
 11
161.971
 21
34.9967
 31
0.0
  0
LINE
  8
0
 62
     0
 10
161.971
 20
34.9967
 30
0.0
 11
161.971
 21
35.9957
 31
0.0
  0
LINE
  8
0
 62
     0
 10
161.971
 20
35.9957
 30
0.0
 11
147.971
 21
35.9957
 31
0.0
  0
LINE
  8
0
 62
     0
 10
24.146
 20
45.5207
 30
0.0
 11
24.146
 21
44.5216
 31
0.0
  0
LINE
  8
0
 62
     0
 10
24.146
 20
44.5216
 30
0.0
 11
23.3454
 21
44.5216
 31
0.0
  0
LINE
  8
0
 62
     0
 10
23.3454
 20
44.5216
 30
0.0
 11
23.3454
 21
41.4211
 31
0.0
  0
LINE
  8
0
 62
     0
 10
23.3454
 20
41.4211
 30
0.0
 11
24.146
 21
41.4211
 31
0.0
  0
LINE
  8
0
 62
     0
 10
24.146
 20
41.4211
 30
0.0
 11
24.146
 21
35.621
 31
0.0
  0
LINE
  8
0
 62
     0
 10
24.146
 20
35.621
 30
0.0
 11
23.3454
 21
35.621
 31
0.0
  0
LINE
  8
0
 62
     0
 10
23.3454
 20
35.621
 30
0.0
 11
23.3454
 21
32.5217
 31
0.0
  0
LINE
  8
0
 62
     0
 10
23.3454
 20
32.5217
 30
0.0
 11
24.146
 21
32.5217
 31
0.0
  0
LINE
  8
0
 62
     0
 10
24.146
 20
32.5217
 30
0.0
 11
24.146
 21
31.5213
 31
0.0
  0
LINE
  8
0
 62
     0
 10
24.146
 20
31.5213
 30
0.0
 11
38.1455
 21
31.5213
 31
0.0
  0
LINE
  8
0
 62
     0
 10
38.1455
 20
31.5213
 30
0.0
 11
38.1455
 21
32.5217
 31
0.0
  0
LINE
  8
0
 62
     0
 10
38.1455
 20
32.5217
 30
0.0
 11
38.946
 21
32.5217
 31
0.0
  0
LINE
  8
0
 62
     0
 10
38.946
 20
32.5217
 30
0.0
 11
38.946
 21
35.621
 31
0.0
  0
LINE
  8
0
 62
     0
 10
38.946
 20
35.621
 30
0.0
 11
38.1455
 21
35.621
 31
0.0
  0
LINE
  8
0
 62
     0
 10
38.1455
 20
35.621
 30
0.0
 11
38.1455
 21
41.4211
 31
0.0
  0
LINE
  8
0
 62
     0
 10
38.1455
 20
41.4211
 30
0.0
 11
38.946
 21
41.4211
 31
0.0
  0
LINE
  8
0
 62
     0
 10
38.946
 20
41.4211
 30
0.0
 11
38.946
 21
44.5216
 31
0.0
  0
LINE
  8
0
 62
     0
 10
38.946
 20
44.5216
 30
0.0
 11
38.1455
 21
44.5216
 31
0.0
  0
LINE
  8
0
 62
     0
 10
38.1455
 20
44.5216
 30
0.0
 11
38.1455
 21
45.5207
 31
0.0
  0
LINE
  8
0
 62
     0
 10
38.1455
 20
45.5207
 30
0.0
 11
24.146
 21
45.5207
 31
0.0
  0
LINE
  8
0
 62
     0
 10
109.871
 20
45.5207
 30
0.0
 11
109.871
 21
44.5216
 31
0.0
  0
LINE
  8
0
 62
     0
 10
109.871
 20
44.5216
 30
0.0
 11
109.07
 21
44.5216
 31
0.0
  0
LINE
  8
0
 62
     0
 10
109.07
 20
44.5216
 30
0.0
 11
109.07
 21
41.4211
 31
0.0
  0
LINE
  8
0
 62
     0
 10
109.07
 20
41.4211
 30
0.0
 11
109.871
 21
41.4211
 31
0.0
  0
LINE
  8
0
 62
     0
 10
109.871
 20
41.4211
 30
0.0
 11
109.871
 21
35.621
 31
0.0
  0
LINE
  8
0
 62
     0
 10
109.871
 20
35.621
 30
0.0
 11
109.07
 21
35.621
 31
0.0
  0
LINE
  8
0
 62
     0
 10
109.07
 20
35.621
 30
0.0
 11
109.07
 21
32.5217
 31
0.0
  0
LINE
  8
0
 62
     0
 10
109.07
 20
32.5217
 30
0.0
 11
109.871
 21
32.5217
 31
0.0
  0
LINE
  8
0
 62
     0
 10
109.871
 20
32.5217
 30
0.0
 11
109.871
 21
31.5213
 31
0.0
  0
LINE
  8
0
 62
     0
 10
109.871
 20
31.5213
 30
0.0
 11
123.871
 21
31.5213
 31
0.0
  0
LINE
  8
0
 62
     0
 10
123.871
 20
31.5213
 30
0.0
 11
123.871
 21
32.5217
 31
0.0
  0
LINE
  8
0
 62
     0
 10
123.871
 20
32.5217
 30
0.0
 11
124.671
 21
32.5217
 31
0.0
  0
LINE
  8
0
 62
     0
 10
124.671
 20
32.5217
 30
0.0
 11
124.671
 21
35.621
 31
0.0
  0
LINE
  8
0
 62
     0
 10
124.671
 20
35.621
 30
0.0
 11
123.871
 21
35.621
 31
0.0
  0
LINE
  8
0
 62
     0
 10
123.871
 20
35.621
 30
0.0
 11
123.871
 21
41.4211
 31
0.0
  0
LINE
  8
0
 62
     0
 10
123.871
 20
41.4211
 30
0.0
 11
124.671
 21
41.4211
 31
0.0
  0
LINE
  8
0
 62
     0
 10
124.671
 20
41.4211
 30
0.0
 11
124.671
 21
44.5216
 31
0.0
  0
LINE
  8
0
 62
     0
 10
124.671
 20
44.5216
 30
0.0
 11
123.871
 21
44.5216
 31
0.0
  0
LINE
  8
0
 62
     0
 10
123.871
 20
44.5216
 30
0.0
 11
123.871
 21
45.5207
 31
0.0
  0
LINE
  8
0
 62
     0
 10
123.871
 20
45.5207
 30
0.0
 11
109.871
 21
45.5207
 31
0.0
  0
LINE
  8
0
 62
     0
 10
24.146
 20
69.143
 30
0.0
 11
24.146
 21
68.1426
 31
0.0
  0
LINE
  8
0
 62
     0
 10
24.146
 20
68.1426
 30
0.0
 11
23.3454
 21
68.1426
 31
0.0
  0
LINE
  8
0
 62
     0
 10
23.3454
 20
68.1426
 30
0.0
 11
23.3454
 21
65.0434
 31
0.0
  0
LINE
  8
0
 62
     0
 10
23.3454
 20
65.0434
 30
0.0
 11
24.146
 21
65.0434
 31
0.0
  0
LINE
  8
0
 62
     0
 10
24.146
 20
65.0434
 30
0.0
 11
24.146
 21
59.2434
 31
0.0
  0
LINE
  8
0
 62
     0
 10
24.146
 20
59.2434
 30
0.0
 11
23.3454
 21
59.2434
 31
0.0
  0
LINE
  8
0
 62
     0
 10
23.3454
 20
59.2434
 30
0.0
 11
23.3454
 21
56.1428
 31
0.0
  0
LINE
  8
0
 62
     0
 10
23.3454
 20
56.1428
 30
0.0
 11
24.146
 21
56.1428
 31
0.0
  0
LINE
  8
0
 62
     0
 10
24.146
 20
56.1428
 30
0.0
 11
24.146
 21
55.1438
 31
0.0
  0
LINE
  8
0
 62
     0
 10
24.146
 20
55.1438
 30
0.0
 11
38.1455
 21
55.1438
 31
0.0
  0
LINE
  8
0
 62
     0
 10
38.1455
 20
55.1438
 30
0.0
 11
38.1455
 21
56.1428
 31
0.0
  0
LINE
  8
0
 62
     0
 10
38.1455
 20
56.1428
 30
0.0
 11
38.946
 21
56.1428
 31
0.0
  0
LINE
  8
0
 62
     0
 10
38.946
 20
56.1428
 30
0.0
 11
38.946
 21
59.2434
 31
0.0
  0
LINE
  8
0
 62
     0
 10
38.946
 20
59.2434
 30
0.0
 11
38.1455
 21
59.2434
 31
0.0
  0
LINE
  8
0
 62
     0
 10
38.1455
 20
59.2434
 30
0.0
 11
38.1455
 21
65.0434
 31
0.0
  0
LINE
  8
0
 62
     0
 10
38.1455
 20
65.0434
 30
0.0
 11
38.946
 21
65.0434
 31
0.0
  0
LINE
  8
0
 62
     0
 10
38.946
 20
65.0434
 30
0.0
 11
38.946
 21
68.1426
 31
0.0
  0
LINE
  8
0
 62
     0
 10
38.946
 20
68.1426
 30
0.0
 11
38.1455
 21
68.1426
 31
0.0
  0
LINE
  8
0
 62
     0
 10
38.1455
 20
68.1426
 30
0.0
 11
38.1455
 21
69.143
 31
0.0
  0
LINE
  8
0
 62
     0
 10
38.1455
 20
69.143
 30
0.0
 11
24.146
 21
69.143
 31
0.0
  0
LINE
  8
0
 62
     0
 10
121.682
 20
69.3332
 30
0.0
 11
121.682
 21
68.3327
 31
0.0
  0
LINE
  8
0
 62
     0
 10
121.682
 20
68.3327
 30
0.0
 11
120.881
 21
68.3327
 31
0.0
  0
LINE
  8
0
 62
     0
 10
120.881
 20
68.3327
 30
0.0
 11
120.881
 21
65.2336
 31
0.0
  0
LINE
  8
0
 62
     0
 10
120.881
 20
65.2336
 30
0.0
 11
121.682
 21
65.2336
 31
0.0
  0
LINE
  8
0
 62
     0
 10
121.682
 20
65.2336
 30
0.0
 11
121.682
 21
59.4335
 31
0.0
  0
LINE
  8
0
 62
     0
 10
121.682
 20
59.4335
 30
0.0
 11
120.881
 21
59.4335
 31
0.0
  0
LINE
  8
0
 62
     0
 10
120.881
 20
59.4335
 30
0.0
 11
120.881
 21
56.333
 31
0.0
  0
LINE
  8
0
 62
     0
 10
120.881
 20
56.333
 30
0.0
 11
121.682
 21
56.333
 31
0.0
  0
LINE
  8
0
 62
     0
 10
121.682
 20
56.333
 30
0.0
 11
121.682
 21
55.3339
 31
0.0
  0
LINE
  8
0
 62
     0
 10
121.682
 20
55.3339
 30
0.0
 11
135.682
 21
55.3339
 31
0.0
  0
LINE
  8
0
 62
     0
 10
135.682
 20
55.3339
 30
0.0
 11
135.682
 21
56.333
 31
0.0
  0
LINE
  8
0
 62
     0
 10
135.682
 20
56.333
 30
0.0
 11
136.481
 21
56.333
 31
0.0
  0
LINE
  8
0
 62
     0
 10
136.481
 20
56.333
 30
0.0
 11
136.481
 21
59.4335
 31
0.0
  0
LINE
  8
0
 62
     0
 10
136.481
 20
59.4335
 30
0.0
 11
135.682
 21
59.4335
 31
0.0
  0
LINE
  8
0
 62
     0
 10
135.682
 20
59.4335
 30
0.0
 11
135.682
 21
65.2336
 31
0.0
  0
LINE
  8
0
 62
     0
 10
135.682
 20
65.2336
 30
0.0
 11
136.481
 21
65.2336
 31
0.0
  0
LINE
  8
0
 62
     0
 10
136.481
 20
65.2336
 30
0.0
 11
136.481
 21
68.3327
 31
0.0
  0
LINE
  8
0
 62
     0
 10
136.481
 20
68.3327
 30
0.0
 11
135.682
 21
68.3327
 31
0.0
  0
LINE
  8
0
 62
     0
 10
135.682
 20
68.3327
 30
0.0
 11
135.682
 21
69.3332
 31
0.0
  0
LINE
  8
0
 62
     0
 10
135.682
 20
69.3332
 30
0.0
 11
121.682
 21
69.3332
 31
0.0
  0
LINE
  8
0
 62
     0
 10
140.732
 20
69.3332
 30
0.0
 11
140.732
 21
68.3327
 31
0.0
  0
LINE
  8
0
 62
     0
 10
140.732
 20
68.3327
 30
0.0
 11
139.931
 21
68.3327
 31
0.0
  0
LINE
  8
0
 62
     0
 10
139.931
 20
68.3327
 30
0.0
 11
139.931
 21
65.2336
 31
0.0
  0
LINE
  8
0
 62
     0
 10
139.931
 20
65.2336
 30
0.0
 11
140.732
 21
65.2336
 31
0.0
  0
LINE
  8
0
 62
     0
 10
140.732
 20
65.2336
 30
0.0
 11
140.732
 21
59.4335
 31
0.0
  0
LINE
  8
0
 62
     0
 10
140.732
 20
59.4335
 30
0.0
 11
139.931
 21
59.4335
 31
0.0
  0
LINE
  8
0
 62
     0
 10
139.931
 20
59.4335
 30
0.0
 11
139.931
 21
56.333
 31
0.0
  0
LINE
  8
0
 62
     0
 10
139.931
 20
56.333
 30
0.0
 11
140.732
 21
56.333
 31
0.0
  0
LINE
  8
0
 62
     0
 10
140.732
 20
56.333
 30
0.0
 11
140.732
 21
55.3339
 31
0.0
  0
LINE
  8
0
 62
     0
 10
140.732
 20
55.3339
 30
0.0
 11
154.732
 21
55.3339
 31
0.0
  0
LINE
  8
0
 62
     0
 10
154.732
 20
55.3339
 30
0.0
 11
154.732
 21
56.333
 31
0.0
  0
LINE
  8
0
 62
     0
 10
154.732
 20
56.333
 30
0.0
 11
155.531
 21
56.333
 31
0.0
  0
LINE
  8
0
 62
     0
 10
155.531
 20
56.333
 30
0.0
 11
155.531
 21
59.4335
 31
0.0
  0
LINE
  8
0
 62
     0
 10
155.531
 20
59.4335
 30
0.0
 11
154.732
 21
59.4335
 31
0.0
  0
LINE
  8
0
 62
     0
 10
154.732
 20
59.4335
 30
0.0
 11
154.732
 21
65.2336
 31
0.0
  0
LINE
  8
0
 62
     0
 10
154.732
 20
65.2336
 30
0.0
 11
155.531
 21
65.2336
 31
0.0
  0
LINE
  8
0
 62
     0
 10
155.531
 20
65.2336
 30
0.0
 11
155.531
 21
68.3327
 31
0.0
  0
LINE
  8
0
 62
     0
 10
155.531
 20
68.3327
 30
0.0
 11
154.732
 21
68.3327
 31
0.0
  0
LINE
  8
0
 62
     0
 10
154.732
 20
68.3327
 30
0.0
 11
154.732
 21
69.3332
 31
0.0
  0
LINE
  8
0
 62
     0
 10
154.732
 20
69.3332
 30
0.0
 11
140.732
 21
69.3332
 31
0.0
  0
LINE
  8
0
 62
     0
 10
50.2447
 20
76.382
 30
0.0
 11
50.2447
 21
75.3816
 31
0.0
  0
LINE
  8
0
 62
     0
 10
50.2447
 20
75.3816
 30
0.0
 11
49.4439
 21
75.3816
 31
0.0
  0
LINE
  8
0
 62
     0
 10
49.4439
 20
75.3816
 30
0.0
 11
49.4439
 21
72.2824
 31
0.0
  0
LINE
  8
0
 62
     0
 10
49.4439
 20
72.2824
 30
0.0
 11
50.2447
 21
72.2824
 31
0.0
  0
LINE
  8
0
 62
     0
 10
50.2447
 20
72.2824
 30
0.0
 11
50.2447
 21
66.482
 31
0.0
  0
LINE
  8
0
 62
     0
 10
50.2447
 20
66.482
 30
0.0
 11
49.4439
 21
66.482
 31
0.0
  0
LINE
  8
0
 62
     0
 10
49.4439
 20
66.482
 30
0.0
 11
49.4439
 21
63.3815
 31
0.0
  0
LINE
  8
0
 62
     0
 10
49.4439
 20
63.3815
 30
0.0
 11
50.2447
 21
63.3815
 31
0.0
  0
LINE
  8
0
 62
     0
 10
50.2447
 20
63.3815
 30
0.0
 11
50.2447
 21
62.3824
 31
0.0
  0
LINE
  8
0
 62
     0
 10
50.2447
 20
62.3824
 30
0.0
 11
64.244
 21
62.3824
 31
0.0
  0
LINE
  8
0
 62
     0
 10
64.244
 20
62.3824
 30
0.0
 11
64.244
 21
63.3815
 31
0.0
  0
LINE
  8
0
 62
     0
 10
64.244
 20
63.3815
 30
0.0
 11
65.0448
 21
63.3815
 31
0.0
  0
LINE
  8
0
 62
     0
 10
65.0448
 20
63.3815
 30
0.0
 11
65.0448
 21
66.482
 31
0.0
  0
LINE
  8
0
 62
     0
 10
65.0448
 20
66.482
 30
0.0
 11
64.244
 21
66.482
 31
0.0
  0
LINE
  8
0
 62
     0
 10
64.244
 20
66.482
 30
0.0
 11
64.244
 21
72.2824
 31
0.0
  0
LINE
  8
0
 62
     0
 10
64.244
 20
72.2824
 30
0.0
 11
65.0448
 21
72.2824
 31
0.0
  0
LINE
  8
0
 62
     0
 10
65.0448
 20
72.2824
 30
0.0
 11
65.0448
 21
75.3816
 31
0.0
  0
LINE
  8
0
 62
     0
 10
65.0448
 20
75.3816
 30
0.0
 11
64.244
 21
75.3816
 31
0.0
  0
LINE
  8
0
 62
     0
 10
64.244
 20
75.3816
 30
0.0
 11
64.244
 21
76.382
 31
0.0
  0
LINE
  8
0
 62
     0
 10
64.244
 20
76.382
 30
0.0
 11
50.2447
 21
76.382
 31
0.0
  0
LINE
  8
0
 62
     0
 10
74.0572
 20
76.382
 30
0.0
 11
74.0572
 21
75.3816
 31
0.0
  0
LINE
  8
0
 62
     0
 10
74.0572
 20
75.3816
 30
0.0
 11
73.2564
 21
75.3816
 31
0.0
  0
LINE
  8
0
 62
     0
 10
73.2564
 20
75.3816
 30
0.0
 11
73.2564
 21
72.2824
 31
0.0
  0
LINE
  8
0
 62
     0
 10
73.2564
 20
72.2824
 30
0.0
 11
74.0572
 21
72.2824
 31
0.0
  0
LINE
  8
0
 62
     0
 10
74.0572
 20
72.2824
 30
0.0
 11
74.0572
 21
66.482
 31
0.0
  0
LINE
  8
0
 62
     0
 10
74.0572
 20
66.482
 30
0.0
 11
73.2564
 21
66.482
 31
0.0
  0
LINE
  8
0
 62
     0
 10
73.2564
 20
66.482
 30
0.0
 11
73.2564
 21
63.3815
 31
0.0
  0
LINE
  8
0
 62
     0
 10
73.2564
 20
63.3815
 30
0.0
 11
74.0572
 21
63.3815
 31
0.0
  0
LINE
  8
0
 62
     0
 10
74.0572
 20
63.3815
 30
0.0
 11
74.0572
 21
62.3824
 31
0.0
  0
LINE
  8
0
 62
     0
 10
74.0572
 20
62.3824
 30
0.0
 11
88.0565
 21
62.3824
 31
0.0
  0
LINE
  8
0
 62
     0
 10
88.0565
 20
62.3824
 30
0.0
 11
88.0565
 21
63.3815
 31
0.0
  0
LINE
  8
0
 62
     0
 10
88.0565
 20
63.3815
 30
0.0
 11
88.8559
 21
63.3815
 31
0.0
  0
LINE
  8
0
 62
     0
 10
88.8559
 20
63.3815
 30
0.0
 11
88.8559
 21
66.482
 31
0.0
  0
LINE
  8
0
 62
     0
 10
88.8559
 20
66.482
 30
0.0
 11
88.0565
 21
66.482
 31
0.0
  0
LINE
  8
0
 62
     0
 10
88.0565
 20
66.482
 30
0.0
 11
88.0565
 21
72.2824
 31
0.0
  0
LINE
  8
0
 62
     0
 10
88.0565
 20
72.2824
 30
0.0
 11
88.8559
 21
72.2824
 31
0.0
  0
LINE
  8
0
 62
     0
 10
88.8559
 20
72.2824
 30
0.0
 11
88.8559
 21
75.3816
 31
0.0
  0
LINE
  8
0
 62
     0
 10
88.8559
 20
75.3816
 30
0.0
 11
88.0565
 21
75.3816
 31
0.0
  0
LINE
  8
0
 62
     0
 10
88.0565
 20
75.3816
 30
0.0
 11
88.0565
 21
76.382
 31
0.0
  0
LINE
  8
0
 62
     0
 10
88.0565
 20
76.382
 30
0.0
 11
74.0572
 21
76.382
 31
0.0
  0
LINE
  8
0
 62
     0
 10
97.8697
 20
76.382
 30
0.0
 11
97.8697
 21
75.3816
 31
0.0
  0
LINE
  8
0
 62
     0
 10
97.8697
 20
75.3816
 30
0.0
 11
97.0689
 21
75.3816
 31
0.0
  0
LINE
  8
0
 62
     0
 10
97.0689
 20
75.3816
 30
0.0
 11
97.0689
 21
72.2824
 31
0.0
  0
LINE
  8
0
 62
     0
 10
97.0689
 20
72.2824
 30
0.0
 11
97.8697
 21
72.2824
 31
0.0
  0
LINE
  8
0
 62
     0
 10
97.8697
 20
72.2824
 30
0.0
 11
97.8697
 21
66.482
 31
0.0
  0
LINE
  8
0
 62
     0
 10
97.8697
 20
66.482
 30
0.0
 11
97.0689
 21
66.482
 31
0.0
  0
LINE
  8
0
 62
     0
 10
97.0689
 20
66.482
 30
0.0
 11
97.0689
 21
63.3815
 31
0.0
  0
LINE
  8
0
 62
     0
 10
97.0689
 20
63.3815
 30
0.0
 11
97.8697
 21
63.3815
 31
0.0
  0
LINE
  8
0
 62
     0
 10
97.8697
 20
63.3815
 30
0.0
 11
97.8697
 21
62.3824
 31
0.0
  0
LINE
  8
0
 62
     0
 10
97.8697
 20
62.3824
 30
0.0
 11
111.869
 21
62.3824
 31
0.0
  0
LINE
  8
0
 62
     0
 10
111.869
 20
62.3824
 30
0.0
 11
111.869
 21
63.3815
 31
0.0
  0
LINE
  8
0
 62
     0
 10
111.869
 20
63.3815
 30
0.0
 11
112.67
 21
63.3815
 31
0.0
  0
LINE
  8
0
 62
     0
 10
112.67
 20
63.3815
 30
0.0
 11
112.67
 21
66.482
 31
0.0
  0
LINE
  8
0
 62
     0
 10
112.67
 20
66.482
 30
0.0
 11
111.869
 21
66.482
 31
0.0
  0
LINE
  8
0
 62
     0
 10
111.869
 20
66.482
 30
0.0
 11
111.869
 21
72.2824
 31
0.0
  0
LINE
  8
0
 62
     0
 10
111.869
 20
72.2824
 30
0.0
 11
112.67
 21
72.2824
 31
0.0
  0
LINE
  8
0
 62
     0
 10
112.67
 20
72.2824
 30
0.0
 11
112.67
 21
75.3816
 31
0.0
  0
LINE
  8
0
 62
     0
 10
112.67
 20
75.3816
 30
0.0
 11
111.869
 21
75.3816
 31
0.0
  0
LINE
  8
0
 62
     0
 10
111.869
 20
75.3816
 30
0.0
 11
111.869
 21
76.382
 31
0.0
  0
LINE
  8
0
 62
     0
 10
111.869
 20
76.382
 30
0.0
 11
97.8697
 21
76.382
 31
0.0
  0
LINE
  8
0
 62
     0
 10
5.09598
 20
93.1471
 30
0.0
 11
5.09598
 21
92.1466
 31
0.0
  0
LINE
  8
0
 62
     0
 10
5.09598
 20
92.1466
 30
0.0
 11
4.29535
 21
92.1466
 31
0.0
  0
LINE
  8
0
 62
     0
 10
4.29535
 20
92.1466
 30
0.0
 11
4.29535
 21
89.0461
 31
0.0
  0
LINE
  8
0
 62
     0
 10
4.29535
 20
89.0461
 30
0.0
 11
5.09598
 21
89.0461
 31
0.0
  0
LINE
  8
0
 62
     0
 10
5.09598
 20
89.0461
 30
0.0
 11
5.09598
 21
83.246
 31
0.0
  0
LINE
  8
0
 62
     0
 10
5.09598
 20
83.246
 30
0.0
 11
4.29535
 21
83.246
 31
0.0
  0
LINE
  8
0
 62
     0
 10
4.29535
 20
83.246
 30
0.0
 11
4.29535
 21
80.1469
 31
0.0
  0
LINE
  8
0
 62
     0
 10
4.29535
 20
80.1469
 30
0.0
 11
5.09598
 21
80.1469
 31
0.0
  0
LINE
  8
0
 62
     0
 10
5.09598
 20
80.1469
 30
0.0
 11
5.09598
 21
79.1464
 31
0.0
  0
LINE
  8
0
 62
     0
 10
5.09598
 20
79.1464
 30
0.0
 11
19.0955
 21
79.1464
 31
0.0
  0
LINE
  8
0
 62
     0
 10
19.0955
 20
79.1464
 30
0.0
 11
19.0955
 21
80.1469
 31
0.0
  0
LINE
  8
0
 62
     0
 10
19.0955
 20
80.1469
 30
0.0
 11
19.8961
 21
80.1469
 31
0.0
  0
LINE
  8
0
 62
     0
 10
19.8961
 20
80.1469
 30
0.0
 11
19.8961
 21
83.246
 31
0.0
  0
LINE
  8
0
 62
     0
 10
19.8961
 20
83.246
 30
0.0
 11
19.0955
 21
83.246
 31
0.0
  0
LINE
  8
0
 62
     0
 10
19.0955
 20
83.246
 30
0.0
 11
19.0955
 21
89.0461
 31
0.0
  0
LINE
  8
0
 62
     0
 10
19.0955
 20
89.0461
 30
0.0
 11
19.8961
 21
89.0461
 31
0.0
  0
LINE
  8
0
 62
     0
 10
19.8961
 20
89.0461
 30
0.0
 11
19.8961
 21
92.1466
 31
0.0
  0
LINE
  8
0
 62
     0
 10
19.8961
 20
92.1466
 30
0.0
 11
19.0955
 21
92.1466
 31
0.0
  0
LINE
  8
0
 62
     0
 10
19.0955
 20
92.1466
 30
0.0
 11
19.0955
 21
93.1471
 31
0.0
  0
LINE
  8
0
 62
     0
 10
19.0955
 20
93.1471
 30
0.0
 11
5.09598
 21
93.1471
 31
0.0
  0
LINE
  8
0
 62
     0
 10
24.146
 20
93.1471
 30
0.0
 11
24.146
 21
92.1466
 31
0.0
  0
LINE
  8
0
 62
     0
 10
24.146
 20
92.1466
 30
0.0
 11
23.3454
 21
92.1466
 31
0.0
  0
LINE
  8
0
 62
     0
 10
23.3454
 20
92.1466
 30
0.0
 11
23.3454
 21
89.0461
 31
0.0
  0
LINE
  8
0
 62
     0
 10
23.3454
 20
89.0461
 30
0.0
 11
24.146
 21
89.0461
 31
0.0
  0
LINE
  8
0
 62
     0
 10
24.146
 20
89.0461
 30
0.0
 11
24.146
 21
83.246
 31
0.0
  0
LINE
  8
0
 62
     0
 10
24.146
 20
83.246
 30
0.0
 11
23.3454
 21
83.246
 31
0.0
  0
LINE
  8
0
 62
     0
 10
23.3454
 20
83.246
 30
0.0
 11
23.3454
 21
80.1469
 31
0.0
  0
LINE
  8
0
 62
     0
 10
23.3454
 20
80.1469
 30
0.0
 11
24.146
 21
80.1469
 31
0.0
  0
LINE
  8
0
 62
     0
 10
24.146
 20
80.1469
 30
0.0
 11
24.146
 21
79.1464
 31
0.0
  0
LINE
  8
0
 62
     0
 10
24.146
 20
79.1464
 30
0.0
 11
38.1455
 21
79.1464
 31
0.0
  0
LINE
  8
0
 62
     0
 10
38.1455
 20
79.1464
 30
0.0
 11
38.1455
 21
80.1469
 31
0.0
  0
LINE
  8
0
 62
     0
 10
38.1455
 20
80.1469
 30
0.0
 11
38.946
 21
80.1469
 31
0.0
  0
LINE
  8
0
 62
     0
 10
38.946
 20
80.1469
 30
0.0
 11
38.946
 21
83.246
 31
0.0
  0
LINE
  8
0
 62
     0
 10
38.946
 20
83.246
 30
0.0
 11
38.1455
 21
83.246
 31
0.0
  0
LINE
  8
0
 62
     0
 10
38.1455
 20
83.246
 30
0.0
 11
38.1455
 21
89.0461
 31
0.0
  0
LINE
  8
0
 62
     0
 10
38.1455
 20
89.0461
 30
0.0
 11
38.946
 21
89.0461
 31
0.0
  0
LINE
  8
0
 62
     0
 10
38.946
 20
89.0461
 30
0.0
 11
38.946
 21
92.1466
 31
0.0
  0
LINE
  8
0
 62
     0
 10
38.946
 20
92.1466
 30
0.0
 11
38.1455
 21
92.1466
 31
0.0
  0
LINE
  8
0
 62
     0
 10
38.1455
 20
92.1466
 30
0.0
 11
38.1455
 21
93.1471
 31
0.0
  0
LINE
  8
0
 62
     0
 10
38.1455
 20
93.1471
 30
0.0
 11
24.146
 21
93.1471
 31
0.0
  0
LINE
  8
0
 62
     0
 10
121.682
 20
93.1471
 30
0.0
 11
121.682
 21
92.1466
 31
0.0
  0
LINE
  8
0
 62
     0
 10
121.682
 20
92.1466
 30
0.0
 11
120.881
 21
92.1466
 31
0.0
  0
LINE
  8
0
 62
     0
 10
120.881
 20
92.1466
 30
0.0
 11
120.881
 21
89.0461
 31
0.0
  0
LINE
  8
0
 62
     0
 10
120.881
 20
89.0461
 30
0.0
 11
121.682
 21
89.0461
 31
0.0
  0
LINE
  8
0
 62
     0
 10
121.682
 20
89.0461
 30
0.0
 11
121.682
 21
83.246
 31
0.0
  0
LINE
  8
0
 62
     0
 10
121.682
 20
83.246
 30
0.0
 11
120.881
 21
83.246
 31
0.0
  0
LINE
  8
0
 62
     0
 10
120.881
 20
83.246
 30
0.0
 11
120.881
 21
80.1469
 31
0.0
  0
LINE
  8
0
 62
     0
 10
120.881
 20
80.1469
 30
0.0
 11
121.682
 21
80.1469
 31
0.0
  0
LINE
  8
0
 62
     0
 10
121.682
 20
80.1469
 30
0.0
 11
121.682
 21
79.1464
 31
0.0
  0
LINE
  8
0
 62
     0
 10
121.682
 20
79.1464
 30
0.0
 11
135.682
 21
79.1464
 31
0.0
  0
LINE
  8
0
 62
     0
 10
135.682
 20
79.1464
 30
0.0
 11
135.682
 21
80.1469
 31
0.0
  0
LINE
  8
0
 62
     0
 10
135.682
 20
80.1469
 30
0.0
 11
136.481
 21
80.1469
 31
0.0
  0
LINE
  8
0
 62
     0
 10
136.481
 20
80.1469
 30
0.0
 11
136.481
 21
83.246
 31
0.0
  0
LINE
  8
0
 62
     0
 10
136.481
 20
83.246
 30
0.0
 11
135.682
 21
83.246
 31
0.0
  0
LINE
  8
0
 62
     0
 10
135.682
 20
83.246
 30
0.0
 11
135.682
 21
89.0461
 31
0.0
  0
LINE
  8
0
 62
     0
 10
135.682
 20
89.0461
 30
0.0
 11
136.481
 21
89.0461
 31
0.0
  0
LINE
  8
0
 62
     0
 10
136.481
 20
89.0461
 30
0.0
 11
136.481
 21
92.1466
 31
0.0
  0
LINE
  8
0
 62
     0
 10
136.481
 20
92.1466
 30
0.0
 11
135.682
 21
92.1466
 31
0.0
  0
LINE
  8
0
 62
     0
 10
135.682
 20
92.1466
 30
0.0
 11
135.682
 21
93.1471
 31
0.0
  0
LINE
  8
0
 62
     0
 10
135.682
 20
93.1471
 30
0.0
 11
121.682
 21
93.1471
 31
0.0
  0
LINE
  8
0
 62
     0
 10
140.732
 20
93.1471
 30
0.0
 11
140.732
 21
92.1466
 31
0.0
  0
LINE
  8
0
 62
     0
 10
140.732
 20
92.1466
 30
0.0
 11
139.931
 21
92.1466
 31
0.0
  0
LINE
  8
0
 62
     0
 10
139.931
 20
92.1466
 30
0.0
 11
139.931
 21
89.0461
 31
0.0
  0
LINE
  8
0
 62
     0
 10
139.931
 20
89.0461
 30
0.0
 11
140.732
 21
89.0461
 31
0.0
  0
LINE
  8
0
 62
     0
 10
140.732
 20
89.0461
 30
0.0
 11
140.732
 21
83.246
 31
0.0
  0
LINE
  8
0
 62
     0
 10
140.732
 20
83.246
 30
0.0
 11
139.931
 21
83.246
 31
0.0
  0
LINE
  8
0
 62
     0
 10
139.931
 20
83.246
 30
0.0
 11
139.931
 21
80.1469
 31
0.0
  0
LINE
  8
0
 62
     0
 10
139.931
 20
80.1469
 30
0.0
 11
140.732
 21
80.1469
 31
0.0
  0
LINE
  8
0
 62
     0
 10
140.732
 20
80.1469
 30
0.0
 11
140.732
 21
79.1464
 31
0.0
  0
LINE
  8
0
 62
     0
 10
140.732
 20
79.1464
 30
0.0
 11
154.732
 21
79.1464
 31
0.0
  0
LINE
  8
0
 62
     0
 10
154.732
 20
79.1464
 30
0.0
 11
154.732
 21
80.1469
 31
0.0
  0
LINE
  8
0
 62
     0
 10
154.732
 20
80.1469
 30
0.0
 11
155.531
 21
80.1469
 31
0.0
  0
LINE
  8
0
 62
     0
 10
155.531
 20
80.1469
 30
0.0
 11
155.531
 21
83.246
 31
0.0
  0
LINE
  8
0
 62
     0
 10
155.531
 20
83.246
 30
0.0
 11
154.732
 21
83.246
 31
0.0
  0
LINE
  8
0
 62
     0
 10
154.732
 20
83.246
 30
0.0
 11
154.732
 21
89.0461
 31
0.0
  0
LINE
  8
0
 62
     0
 10
154.732
 20
89.0461
 30
0.0
 11
155.531
 21
89.0461
 31
0.0
  0
LINE
  8
0
 62
     0
 10
155.531
 20
89.0461
 30
0.0
 11
155.531
 21
92.1466
 31
0.0
  0
LINE
  8
0
 62
     0
 10
155.531
 20
92.1466
 30
0.0
 11
154.732
 21
92.1466
 31
0.0
  0
LINE
  8
0
 62
     0
 10
154.732
 20
92.1466
 30
0.0
 11
154.732
 21
93.1471
 31
0.0
  0
LINE
  8
0
 62
     0
 10
154.732
 20
93.1471
 30
0.0
 11
140.732
 21
93.1471
 31
0.0
  0
LINE
  8
0
 62
     0
 10
50.2447
 20
100.004
 30
0.0
 11
50.2447
 21
99.0039
 31
0.0
  0
LINE
  8
0
 62
     0
 10
50.2447
 20
99.0039
 30
0.0
 11
49.4439
 21
99.0039
 31
0.0
  0
LINE
  8
0
 62
     0
 10
49.4439
 20
99.0039
 30
0.0
 11
49.4439
 21
95.9044
 31
0.0
  0
LINE
  8
0
 62
     0
 10
49.4439
 20
95.9044
 30
0.0
 11
50.2447
 21
95.9044
 31
0.0
  0
LINE
  8
0
 62
     0
 10
50.2447
 20
95.9044
 30
0.0
 11
50.2447
 21
90.1044
 31
0.0
  0
LINE
  8
0
 62
     0
 10
50.2447
 20
90.1044
 30
0.0
 11
49.4439
 21
90.1044
 31
0.0
  0
LINE
  8
0
 62
     0
 10
49.4439
 20
90.1044
 30
0.0
 11
49.4439
 21
87.0038
 31
0.0
  0
LINE
  8
0
 62
     0
 10
49.4439
 20
87.0038
 30
0.0
 11
50.2447
 21
87.0038
 31
0.0
  0
LINE
  8
0
 62
     0
 10
50.2447
 20
87.0038
 30
0.0
 11
50.2447
 21
86.0048
 31
0.0
  0
LINE
  8
0
 62
     0
 10
50.2447
 20
86.0048
 30
0.0
 11
64.244
 21
86.0048
 31
0.0
  0
LINE
  8
0
 62
     0
 10
64.244
 20
86.0048
 30
0.0
 11
64.244
 21
87.0038
 31
0.0
  0
LINE
  8
0
 62
     0
 10
64.244
 20
87.0038
 30
0.0
 11
65.0448
 21
87.0038
 31
0.0
  0
LINE
  8
0
 62
     0
 10
65.0448
 20
87.0038
 30
0.0
 11
65.0448
 21
90.1044
 31
0.0
  0
LINE
  8
0
 62
     0
 10
65.0448
 20
90.1044
 30
0.0
 11
64.244
 21
90.1044
 31
0.0
  0
LINE
  8
0
 62
     0
 10
64.244
 20
90.1044
 30
0.0
 11
64.244
 21
95.9044
 31
0.0
  0
LINE
  8
0
 62
     0
 10
64.244
 20
95.9044
 30
0.0
 11
65.0448
 21
95.9044
 31
0.0
  0
LINE
  8
0
 62
     0
 10
65.0448
 20
95.9044
 30
0.0
 11
65.0448
 21
99.0039
 31
0.0
  0
LINE
  8
0
 62
     0
 10
65.0448
 20
99.0039
 30
0.0
 11
64.244
 21
99.0039
 31
0.0
  0
LINE
  8
0
 62
     0
 10
64.244
 20
99.0039
 30
0.0
 11
64.244
 21
100.004
 31
0.0
  0
LINE
  8
0
 62
     0
 10
64.244
 20
100.004
 30
0.0
 11
50.2447
 21
100.004
 31
0.0
  0
LINE
  8
0
 62
     0
 10
74.0572
 20
100.004
 30
0.0
 11
74.0572
 21
99.0039
 31
0.0
  0
LINE
  8
0
 62
     0
 10
74.0572
 20
99.0039
 30
0.0
 11
73.2564
 21
99.0039
 31
0.0
  0
LINE
  8
0
 62
     0
 10
73.2564
 20
99.0039
 30
0.0
 11
73.2564
 21
95.9044
 31
0.0
  0
LINE
  8
0
 62
     0
 10
73.2564
 20
95.9044
 30
0.0
 11
74.0572
 21
95.9044
 31
0.0
  0
LINE
  8
0
 62
     0
 10
74.0572
 20
95.9044
 30
0.0
 11
74.0572
 21
90.1044
 31
0.0
  0
LINE
  8
0
 62
     0
 10
74.0572
 20
90.1044
 30
0.0
 11
73.2564
 21
90.1044
 31
0.0
  0
LINE
  8
0
 62
     0
 10
73.2564
 20
90.1044
 30
0.0
 11
73.2564
 21
87.0038
 31
0.0
  0
LINE
  8
0
 62
     0
 10
73.2564
 20
87.0038
 30
0.0
 11
74.0572
 21
87.0038
 31
0.0
  0
LINE
  8
0
 62
     0
 10
74.0572
 20
87.0038
 30
0.0
 11
74.0572
 21
86.0048
 31
0.0
  0
LINE
  8
0
 62
     0
 10
74.0572
 20
86.0048
 30
0.0
 11
88.0565
 21
86.0048
 31
0.0
  0
LINE
  8
0
 62
     0
 10
88.0565
 20
86.0048
 30
0.0
 11
88.0565
 21
87.0038
 31
0.0
  0
LINE
  8
0
 62
     0
 10
88.0565
 20
87.0038
 30
0.0
 11
88.8559
 21
87.0038
 31
0.0
  0
LINE
  8
0
 62
     0
 10
88.8559
 20
87.0038
 30
0.0
 11
88.8559
 21
90.1044
 31
0.0
  0
LINE
  8
0
 62
     0
 10
88.8559
 20
90.1044
 30
0.0
 11
88.0565
 21
90.1044
 31
0.0
  0
LINE
  8
0
 62
     0
 10
88.0565
 20
90.1044
 30
0.0
 11
88.0565
 21
95.9044
 31
0.0
  0
LINE
  8
0
 62
     0
 10
88.0565
 20
95.9044
 30
0.0
 11
88.8559
 21
95.9044
 31
0.0
  0
LINE
  8
0
 62
     0
 10
88.8559
 20
95.9044
 30
0.0
 11
88.8559
 21
99.0039
 31
0.0
  0
LINE
  8
0
 62
     0
 10
88.8559
 20
99.0039
 30
0.0
 11
88.0565
 21
99.0039
 31
0.0
  0
LINE
  8
0
 62
     0
 10
88.0565
 20
99.0039
 30
0.0
 11
88.0565
 21
100.004
 31
0.0
  0
LINE
  8
0
 62
     0
 10
88.0565
 20
100.004
 30
0.0
 11
74.0572
 21
100.004
 31
0.0
  0
LINE
  8
0
 62
     0
 10
97.8697
 20
100.004
 30
0.0
 11
97.8697
 21
99.0039
 31
0.0
  0
LINE
  8
0
 62
     0
 10
97.8697
 20
99.0039
 30
0.0
 11
97.0689
 21
99.0039
 31
0.0
  0
LINE
  8
0
 62
     0
 10
97.0689
 20
99.0039
 30
0.0
 11
97.0689
 21
95.9044
 31
0.0
  0
LINE
  8
0
 62
     0
 10
97.0689
 20
95.9044
 30
0.0
 11
97.8697
 21
95.9044
 31
0.0
  0
LINE
  8
0
 62
     0
 10
97.8697
 20
95.9044
 30
0.0
 11
97.8697
 21
90.1044
 31
0.0
  0
LINE
  8
0
 62
     0
 10
97.8697
 20
90.1044
 30
0.0
 11
97.0689
 21
90.1044
 31
0.0
  0
LINE
  8
0
 62
     0
 10
97.0689
 20
90.1044
 30
0.0
 11
97.0689
 21
87.0038
 31
0.0
  0
LINE
  8
0
 62
     0
 10
97.0689
 20
87.0038
 30
0.0
 11
97.8697
 21
87.0038
 31
0.0
  0
LINE
  8
0
 62
     0
 10
97.8697
 20
87.0038
 30
0.0
 11
97.8697
 21
86.0048
 31
0.0
  0
LINE
  8
0
 62
     0
 10
97.8697
 20
86.0048
 30
0.0
 11
111.869
 21
86.0048
 31
0.0
  0
LINE
  8
0
 62
     0
 10
111.869
 20
86.0048
 30
0.0
 11
111.869
 21
87.0038
 31
0.0
  0
LINE
  8
0
 62
     0
 10
111.869
 20
87.0038
 30
0.0
 11
112.67
 21
87.0038
 31
0.0
  0
LINE
  8
0
 62
     0
 10
112.67
 20
87.0038
 30
0.0
 11
112.67
 21
90.1044
 31
0.0
  0
LINE
  8
0
 62
     0
 10
112.67
 20
90.1044
 30
0.0
 11
111.869
 21
90.1044
 31
0.0
  0
LINE
  8
0
 62
     0
 10
111.869
 20
90.1044
 30
0.0
 11
111.869
 21
95.9044
 31
0.0
  0
LINE
  8
0
 62
     0
 10
111.869
 20
95.9044
 30
0.0
 11
112.67
 21
95.9044
 31
0.0
  0
LINE
  8
0
 62
     0
 10
112.67
 20
95.9044
 30
0.0
 11
112.67
 21
99.0039
 31
0.0
  0
LINE
  8
0
 62
     0
 10
112.67
 20
99.0039
 30
0.0
 11
111.869
 21
99.0039
 31
0.0
  0
LINE
  8
0
 62
     0
 10
111.869
 20
99.0039
 30
0.0
 11
111.869
 21
100.004
 31
0.0
  0
LINE
  8
0
 62
     0
 10
111.869
 20
100.004
 30
0.0
 11
97.8697
 21
100.004
 31
0.0
  0
LINE
  8
0
 62
     0
 10
16.9967
 20
115.188
 30
0.0
 11
17.322
 21
114.242
 31
0.0
  0
LINE
  8
0
 62
     0
 10
17.322
 20
114.242
 30
0.0
 11
16.5654
 21
113.982
 31
0.0
  0
LINE
  8
0
 62
     0
 10
16.5654
 20
113.982
 30
0.0
 11
17.5741
 21
111.051
 31
0.0
  0
LINE
  8
0
 62
     0
 10
17.5741
 20
111.051
 30
0.0
 11
18.3307
 21
111.311
 31
0.0
  0
LINE
  8
0
 62
     0
 10
18.3307
 20
111.311
 30
0.0
 11
20.22
 21
105.826
 31
0.0
  0
LINE
  8
0
 62
     0
 10
20.22
 20
105.826
 30
0.0
 11
19.462
 21
105.566
 31
0.0
  0
LINE
  8
0
 62
     0
 10
19.462
 20
105.566
 30
0.0
 11
20.4722
 21
102.635
 31
0.0
  0
LINE
  8
0
 62
     0
 10
20.4722
 20
102.635
 30
0.0
 11
21.2287
 21
102.895
 31
0.0
  0
LINE
  8
0
 62
     0
 10
21.2287
 20
102.895
 30
0.0
 11
21.5539
 21
101.95
 31
0.0
  0
LINE
  8
0
 62
     0
 10
21.5539
 20
101.95
 30
0.0
 11
34.7913
 21
106.509
 31
0.0
  0
LINE
  8
0
 62
     0
 10
34.7913
 20
106.509
 30
0.0
 11
34.4661
 21
107.453
 31
0.0
  0
LINE
  8
0
 62
     0
 10
34.4661
 20
107.453
 30
0.0
 11
35.2227
 21
107.714
 31
0.0
  0
LINE
  8
0
 62
     0
 10
35.2227
 20
107.714
 30
0.0
 11
34.2126
 21
110.646
 31
0.0
  0
LINE
  8
0
 62
     0
 10
34.2126
 20
110.646
 30
0.0
 11
33.456
 21
110.383
 31
0.0
  0
LINE
  8
0
 62
     0
 10
33.456
 20
110.383
 30
0.0
 11
31.5681
 21
115.868
 31
0.0
  0
LINE
  8
0
 62
     0
 10
31.5681
 20
115.868
 30
0.0
 11
32.3246
 21
116.129
 31
0.0
  0
LINE
  8
0
 62
     0
 10
32.3246
 20
116.129
 30
0.0
 11
31.3159
 21
119.06
 31
0.0
  0
LINE
  8
0
 62
     0
 10
31.3159
 20
119.06
 30
0.0
 11
30.558
 21
118.801
 31
0.0
  0
LINE
  8
0
 62
     0
 10
30.558
 20
118.801
 30
0.0
 11
30.2342
 21
119.745
 31
0.0
  0
LINE
  8
0
 62
     0
 10
30.2342
 20
119.745
 30
0.0
 11
16.9967
 21
115.188
 31
0.0
  0
LINE
  8
0
 62
     0
 10
127.808
 20
119.94
 30
0.0
 11
127.051
 21
120.2
 31
0.0
  0
LINE
  8
0
 62
     0
 10
127.051
 20
120.2
 30
0.0
 11
126.041
 21
117.27
 31
0.0
  0
LINE
  8
0
 62
     0
 10
126.041
 20
117.27
 30
0.0
 11
126.799
 21
117.009
 31
0.0
  0
LINE
  8
0
 62
     0
 10
126.799
 20
117.009
 30
0.0
 11
124.909
 21
111.525
 31
0.0
  0
LINE
  8
0
 62
     0
 10
124.909
 20
111.525
 30
0.0
 11
124.153
 21
111.785
 31
0.0
  0
LINE
  8
0
 62
     0
 10
124.153
 20
111.785
 30
0.0
 11
123.144
 21
108.854
 31
0.0
  0
LINE
  8
0
 62
     0
 10
123.144
 20
108.854
 30
0.0
 11
123.901
 21
108.593
 31
0.0
  0
LINE
  8
0
 62
     0
 10
123.901
 20
108.593
 30
0.0
 11
123.576
 21
107.648
 31
0.0
  0
LINE
  8
0
 62
     0
 10
123.576
 20
107.648
 30
0.0
 11
136.813
 21
103.09
 31
0.0
  0
LINE
  8
0
 62
     0
 10
136.813
 20
103.09
 30
0.0
 11
137.137
 21
104.036
 31
0.0
  0
LINE
  8
0
 62
     0
 10
137.137
 20
104.036
 30
0.0
 11
137.895
 21
103.775
 31
0.0
  0
LINE
  8
0
 62
     0
 10
137.895
 20
103.775
 30
0.0
 11
138.903
 21
106.706
 31
0.0
  0
LINE
  8
0
 62
     0
 10
138.903
 20
106.706
 30
0.0
 11
138.147
 21
106.968
 31
0.0
  0
LINE
  8
0
 62
     0
 10
138.147
 20
106.968
 30
0.0
 11
140.035
 21
112.451
 31
0.0
  0
LINE
  8
0
 62
     0
 10
140.035
 20
112.451
 30
0.0
 11
140.791
 21
112.19
 31
0.0
  0
LINE
  8
0
 62
     0
 10
140.791
 20
112.19
 30
0.0
 11
141.801
 21
115.121
 31
0.0
  0
LINE
  8
0
 62
     0
 10
141.801
 20
115.121
 30
0.0
 11
141.045
 21
115.382
 31
0.0
  0
LINE
  8
0
 62
     0
 10
141.045
 20
115.382
 30
0.0
 11
141.37
 21
116.327
 31
0.0
  0
LINE
  8
0
 62
     0
 10
141.37
 20
116.327
 30
0.0
 11
128.134
 21
120.886
 31
0.0
  0
LINE
  8
0
 62
     0
 10
128.134
 20
120.886
 30
0.0
 11
127.808
 21
119.94
 31
0.0
  0
LINE
  8
0
 62
     0
 10
38.6719
 20
121.961
 30
0.0
 11
38.862
 21
120.981
 31
0.0
  0
LINE
  8
0
 62
     0
 10
38.862
 20
120.981
 30
0.0
 11
38.0781
 21
120.826
 31
0.0
  0
LINE
  8
0
 62
     0
 10
38.0781
 20
120.826
 30
0.0
 11
38.669
 21
117.784
 31
0.0
  0
LINE
  8
0
 62
     0
 10
38.669
 20
117.784
 30
0.0
 11
39.4547
 21
117.937
 31
0.0
  0
LINE
  8
0
 62
     0
 10
39.4547
 20
117.937
 30
0.0
 11
40.5613
 21
112.243
 31
0.0
  0
LINE
  8
0
 62
     0
 10
40.5613
 20
112.243
 30
0.0
 11
39.7757
 21
112.091
 31
0.0
  0
LINE
  8
0
 62
     0
 10
39.7757
 20
112.091
 30
0.0
 11
40.367
 21
109.048
 31
0.0
  0
LINE
  8
0
 62
     0
 10
40.367
 20
109.048
 30
0.0
 11
41.1522
 21
109.2
 31
0.0
  0
LINE
  8
0
 62
     0
 10
41.1522
 20
109.2
 30
0.0
 11
41.3438
 21
108.219
 31
0.0
  0
LINE
  8
0
 62
     0
 10
41.3438
 20
108.219
 30
0.0
 11
55.0855
 21
110.891
 31
0.0
  0
LINE
  8
0
 62
     0
 10
55.0855
 20
110.891
 30
0.0
 11
54.8954
 21
111.872
 31
0.0
  0
LINE
  8
0
 62
     0
 10
54.8954
 20
111.872
 30
0.0
 11
55.681
 21
112.024
 31
0.0
  0
LINE
  8
0
 62
     0
 10
55.681
 20
112.024
 30
0.0
 11
55.0884
 21
115.068
 31
0.0
  0
LINE
  8
0
 62
     0
 10
55.0884
 20
115.068
 30
0.0
 11
54.3031
 21
114.915
 31
0.0
  0
LINE
  8
0
 62
     0
 10
54.3031
 20
114.915
 30
0.0
 11
53.1964
 21
120.609
 31
0.0
  0
LINE
  8
0
 62
     0
 10
53.1964
 20
120.609
 30
0.0
 11
53.9821
 21
120.761
 31
0.0
  0
LINE
  8
0
 62
     0
 10
53.9821
 20
120.761
 30
0.0
 11
53.3908
 21
123.804
 31
0.0
  0
LINE
  8
0
 62
     0
 10
53.3908
 20
123.804
 30
0.0
 11
52.6052
 21
123.651
 31
0.0
  0
LINE
  8
0
 62
     0
 10
52.6052
 20
123.651
 30
0.0
 11
52.415
 21
124.633
 31
0.0
  0
LINE
  8
0
 62
     0
 10
52.415
 20
124.633
 30
0.0
 11
38.6719
 21
121.961
 31
0.0
  0
LINE
  8
0
 62
     0
 10
105.803
 20
124.742
 30
0.0
 11
105.018
 21
124.894
 31
0.0
  0
LINE
  8
0
 62
     0
 10
105.018
 20
124.894
 30
0.0
 11
104.425
 21
121.852
 31
0.0
  0
LINE
  8
0
 62
     0
 10
104.425
 20
121.852
 30
0.0
 11
105.212
 21
121.699
 31
0.0
  0
LINE
  8
0
 62
     0
 10
105.212
 20
121.699
 30
0.0
 11
104.104
 21
116.005
 31
0.0
  0
LINE
  8
0
 62
     0
 10
104.104
 20
116.005
 30
0.0
 11
103.32
 21
116.158
 31
0.0
  0
LINE
  8
0
 62
     0
 10
103.32
 20
116.158
 30
0.0
 11
102.727
 21
113.115
 31
0.0
  0
LINE
  8
0
 62
     0
 10
102.727
 20
113.115
 30
0.0
 11
103.513
 21
112.962
 31
0.0
  0
LINE
  8
0
 62
     0
 10
103.513
 20
112.962
 30
0.0
 11
103.323
 21
111.979
 31
0.0
  0
LINE
  8
0
 62
     0
 10
103.323
 20
111.979
 30
0.0
 11
117.064
 21
109.309
 31
0.0
  0
LINE
  8
0
 62
     0
 10
117.064
 20
109.309
 30
0.0
 11
117.256
 21
110.291
 31
0.0
  0
LINE
  8
0
 62
     0
 10
117.256
 20
110.291
 30
0.0
 11
118.04
 21
110.138
 31
0.0
  0
LINE
  8
0
 62
     0
 10
118.04
 20
110.138
 30
0.0
 11
118.632
 21
113.181
 31
0.0
  0
LINE
  8
0
 62
     0
 10
118.632
 20
113.181
 30
0.0
 11
117.847
 21
113.334
 31
0.0
  0
LINE
  8
0
 62
     0
 10
117.847
 20
113.334
 30
0.0
 11
118.953
 21
119.027
 31
0.0
  0
LINE
  8
0
 62
     0
 10
118.953
 20
119.027
 30
0.0
 11
119.739
 21
118.875
 31
0.0
  0
LINE
  8
0
 62
     0
 10
119.739
 20
118.875
 30
0.0
 11
120.33
 21
121.918
 31
0.0
  0
LINE
  8
0
 62
     0
 10
120.33
 20
121.918
 30
0.0
 11
119.545
 21
122.069
 31
0.0
  0
LINE
  8
0
 62
     0
 10
119.545
 20
122.069
 30
0.0
 11
119.736
 21
123.052
 31
0.0
  0
LINE
  8
0
 62
     0
 10
119.736
 20
123.052
 30
0.0
 11
105.993
 21
125.724
 31
0.0
  0
LINE
  8
0
 62
     0
 10
105.993
 20
125.724
 30
0.0
 11
105.803
 21
124.742
 31
0.0
  0
LINE
  8
0
 62
     0
 10
60.6199
 20
126.609
 30
0.0
 11
60.7081
 21
125.612
 31
0.0
  0
LINE
  8
0
 62
     0
 10
60.7081
 20
125.612
 30
0.0
 11
59.9101
 21
125.542
 31
0.0
  0
LINE
  8
0
 62
     0
 10
59.9101
 20
125.542
 30
0.0
 11
60.1804
 21
122.454
 31
0.0
  0
LINE
  8
0
 62
     0
 10
60.1804
 20
122.454
 30
0.0
 11
60.9769
 21
122.524
 31
0.0
  0
LINE
  8
0
 62
     0
 10
60.9769
 20
122.524
 30
0.0
 11
61.4839
 21
116.746
 31
0.0
  0
LINE
  8
0
 62
     0
 10
61.4839
 20
116.746
 30
0.0
 11
60.6859
 21
116.676
 31
0.0
  0
LINE
  8
0
 62
     0
 10
60.6859
 20
116.676
 30
0.0
 11
60.9561
 21
113.587
 31
0.0
  0
LINE
  8
0
 62
     0
 10
60.9561
 20
113.587
 30
0.0
 11
61.7541
 21
113.658
 31
0.0
  0
LINE
  8
0
 62
     0
 10
61.7541
 20
113.658
 30
0.0
 11
61.8409
 21
112.661
 31
0.0
  0
LINE
  8
0
 62
     0
 10
61.8409
 20
112.661
 30
0.0
 11
75.788
 21
113.882
 31
0.0
  0
LINE
  8
0
 62
     0
 10
75.788
 20
113.882
 30
0.0
 11
75.7012
 21
114.877
 31
0.0
  0
LINE
  8
0
 62
     0
 10
75.7012
 20
114.877
 30
0.0
 11
76.4977
 21
114.948
 31
0.0
  0
LINE
  8
0
 62
     0
 10
76.4977
 20
114.948
 30
0.0
 11
76.2261
 21
118.036
 31
0.0
  0
LINE
  8
0
 62
     0
 10
76.2261
 20
118.036
 30
0.0
 11
75.4309
 21
117.966
 31
0.0
  0
LINE
  8
0
 62
     0
 10
75.4309
 20
117.966
 30
0.0
 11
74.924
 21
123.744
 31
0.0
  0
LINE
  8
0
 62
     0
 10
74.924
 20
123.744
 30
0.0
 11
75.722
 21
123.814
 31
0.0
  0
LINE
  8
0
 62
     0
 10
75.722
 20
123.814
 30
0.0
 11
75.4518
 21
126.902
 31
0.0
  0
LINE
  8
0
 62
     0
 10
75.4518
 20
126.902
 30
0.0
 11
74.6538
 21
126.832
 31
0.0
  0
LINE
  8
0
 62
     0
 10
74.6538
 20
126.832
 30
0.0
 11
74.567
 21
127.83
 31
0.0
  0
LINE
  8
0
 62
     0
 10
74.567
 20
127.83
 30
0.0
 11
60.6199
 21
126.609
 31
0.0
  0
LINE
  8
0
 62
     0
 10
83.6634
 20
127.164
 30
0.0
 11
82.8668
 21
127.234
 31
0.0
  0
LINE
  8
0
 62
     0
 10
82.8668
 20
127.234
 30
0.0
 11
82.5969
 21
124.146
 31
0.0
  0
LINE
  8
0
 62
     0
 10
82.5969
 20
124.146
 30
0.0
 11
83.3921
 21
124.076
 31
0.0
  0
LINE
  8
0
 62
     0
 10
83.3921
 20
124.076
 30
0.0
 11
82.8876
 21
118.298
 31
0.0
  0
LINE
  8
0
 62
     0
 10
82.8876
 20
118.298
 30
0.0
 11
82.091
 21
118.368
 31
0.0
  0
LINE
  8
0
 62
     0
 10
82.091
 20
118.368
 30
0.0
 11
81.8212
 21
115.28
 31
0.0
  0
LINE
  8
0
 62
     0
 10
81.8212
 20
115.28
 30
0.0
 11
82.6174
 21
115.209
 31
0.0
  0
LINE
  8
0
 62
     0
 10
82.6174
 20
115.209
 30
0.0
 11
82.5306
 21
114.215
 31
0.0
  0
LINE
  8
0
 62
     0
 10
82.5306
 20
114.215
 30
0.0
 11
96.4766
 21
112.994
 31
0.0
  0
LINE
  8
0
 62
     0
 10
96.4766
 20
112.994
 30
0.0
 11
96.5648
 21
113.99
 31
0.0
  0
LINE
  8
0
 62
     0
 10
96.5648
 20
113.99
 30
0.0
 11
97.361
 21
113.92
 31
0.0
  0
LINE
  8
0
 62
     0
 10
97.361
 20
113.92
 30
0.0
 11
97.6313
 21
117.008
 31
0.0
  0
LINE
  8
0
 62
     0
 10
97.6313
 20
117.008
 30
0.0
 11
96.8347
 21
117.078
 31
0.0
  0
LINE
  8
0
 62
     0
 10
96.8347
 20
117.078
 30
0.0
 11
97.3391
 21
122.856
 31
0.0
  0
LINE
  8
0
 62
     0
 10
97.3391
 20
122.856
 30
0.0
 11
98.1371
 21
122.786
 31
0.0
  0
LINE
  8
0
 62
     0
 10
98.1371
 20
122.786
 30
0.0
 11
98.407
 21
125.876
 31
0.0
  0
LINE
  8
0
 62
     0
 10
98.407
 20
125.876
 30
0.0
 11
97.6094
 21
125.944
 31
0.0
  0
LINE
  8
0
 62
     0
 10
97.6094
 20
125.944
 30
0.0
 11
97.6976
 21
126.941
 31
0.0
  0
LINE
  8
0
 62
     0
 10
97.6976
 20
126.941
 30
0.0
 11
83.7501
 21
128.162
 31
0.0
  0
LINE
  8
0
 62
     0
 10
83.7501
 20
128.162
 30
0.0
 11
83.6634
 21
127.164
 31
0.0
  0
LINE
  8
0
 62
     0
 10
136.27
 20
138.892
 30
0.0
 11
135.508
 21
139.139
 31
0.0
  0
LINE
  8
0
 62
     0
 10
135.508
 20
139.139
 30
0.0
 11
134.55
 21
136.192
 31
0.0
  0
LINE
  8
0
 62
     0
 10
134.55
 20
136.192
 30
0.0
 11
135.311
 21
135.944
 31
0.0
  0
LINE
  8
0
 62
     0
 10
135.311
 20
135.944
 30
0.0
 11
133.519
 21
130.427
 31
0.0
  0
LINE
  8
0
 62
     0
 10
133.519
 20
130.427
 30
0.0
 11
132.759
 21
130.674
 31
0.0
  0
LINE
  8
0
 62
     0
 10
132.759
 20
130.674
 30
0.0
 11
131.801
 21
127.726
 31
0.0
  0
LINE
  8
0
 62
     0
 10
131.801
 20
127.726
 30
0.0
 11
132.562
 21
127.479
 31
0.0
  0
LINE
  8
0
 62
     0
 10
132.562
 20
127.479
 30
0.0
 11
132.253
 21
126.529
 31
0.0
  0
LINE
  8
0
 62
     0
 10
132.253
 20
126.529
 30
0.0
 11
145.568
 21
122.202
 31
0.0
  0
LINE
  8
0
 62
     0
 10
145.568
 20
122.202
 30
0.0
 11
145.876
 21
123.153
 31
0.0
  0
LINE
  8
0
 62
     0
 10
145.876
 20
123.153
 30
0.0
 11
146.637
 21
122.905
 31
0.0
  0
LINE
  8
0
 62
     0
 10
146.637
 20
122.905
 30
0.0
 11
147.596
 21
125.855
 31
0.0
  0
LINE
  8
0
 62
     0
 10
147.596
 20
125.855
 30
0.0
 11
146.834
 21
126.101
 31
0.0
  0
LINE
  8
0
 62
     0
 10
146.834
 20
126.101
 30
0.0
 11
148.627
 21
131.616
 31
0.0
  0
LINE
  8
0
 62
     0
 10
148.627
 20
131.616
 30
0.0
 11
149.388
 21
131.37
 31
0.0
  0
LINE
  8
0
 62
     0
 10
149.388
 20
131.37
 30
0.0
 11
150.345
 21
134.317
 31
0.0
  0
LINE
  8
0
 62
     0
 10
150.345
 20
134.317
 30
0.0
 11
149.585
 21
134.565
 31
0.0
  0
LINE
  8
0
 62
     0
 10
149.585
 20
134.565
 30
0.0
 11
149.894
 21
135.516
 31
0.0
  0
LINE
  8
0
 62
     0
 10
149.894
 20
135.516
 30
0.0
 11
136.579
 21
139.843
 31
0.0
  0
LINE
  8
0
 62
     0
 10
136.579
 20
139.843
 30
0.0
 11
136.27
 21
138.892
 31
0.0
  0
LINE
  8
0
 62
     0
 10
9.98389
 20
136.083
 30
0.0
 11
10.2926
 21
135.132
 31
0.0
  0
LINE
  8
0
 62
     0
 10
10.2926
 20
135.132
 30
0.0
 11
9.53188
 21
134.885
 31
0.0
  0
LINE
  8
0
 62
     0
 10
9.53188
 20
134.885
 30
0.0
 11
10.4896
 21
131.936
 31
0.0
  0
LINE
  8
0
 62
     0
 10
10.4896
 20
131.936
 30
0.0
 11
11.2489
 21
132.183
 31
0.0
  0
LINE
  8
0
 62
     0
 10
11.2489
 20
132.183
 30
0.0
 11
13.0431
 21
126.667
 31
0.0
  0
LINE
  8
0
 62
     0
 10
13.0431
 20
126.667
 30
0.0
 11
12.2811
 21
126.42
 31
0.0
  0
LINE
  8
0
 62
     0
 10
12.2811
 20
126.42
 30
0.0
 11
13.2388
 21
123.472
 31
0.0
  0
LINE
  8
0
 62
     0
 10
13.2388
 20
123.472
 30
0.0
 11
14.0009
 21
123.719
 31
0.0
  0
LINE
  8
0
 62
     0
 10
14.0009
 20
123.719
 30
0.0
 11
14.3095
 21
122.768
 31
0.0
  0
LINE
  8
0
 62
     0
 10
14.3095
 20
122.768
 30
0.0
 11
27.6242
 21
127.094
 31
0.0
  0
LINE
  8
0
 62
     0
 10
27.6242
 20
127.094
 30
0.0
 11
27.3141
 21
128.045
 31
0.0
  0
LINE
  8
0
 62
     0
 10
27.3141
 20
128.045
 30
0.0
 11
28.0761
 21
128.293
 31
0.0
  0
LINE
  8
0
 62
     0
 10
28.0761
 20
128.293
 30
0.0
 11
27.1184
 21
131.241
 31
0.0
  0
LINE
  8
0
 62
     0
 10
27.1184
 20
131.241
 30
0.0
 11
26.3577
 21
130.993
 31
0.0
  0
LINE
  8
0
 62
     0
 10
26.3577
 20
130.993
 30
0.0
 11
24.5649
 21
136.51
 31
0.0
  0
LINE
  8
0
 62
     0
 10
24.5649
 20
136.51
 30
0.0
 11
25.327
 21
136.756
 31
0.0
  0
LINE
  8
0
 62
     0
 10
25.327
 20
136.756
 30
0.0
 11
24.3678
 21
139.706
 31
0.0
  0
LINE
  8
0
 62
     0
 10
24.3678
 20
139.706
 30
0.0
 11
23.6072
 21
139.458
 31
0.0
  0
LINE
  8
0
 62
     0
 10
23.6072
 20
139.458
 30
0.0
 11
23.2985
 21
140.41
 31
0.0
  0
LINE
  8
0
 62
     0
 10
23.2985
 20
140.41
 30
0.0
 11
9.98389
 21
136.083
 31
0.0
  0
LINE
  8
0
 62
     0
 10
115.723
 20
144.379
 30
0.0
 11
114.942
 21
144.545
 31
0.0
  0
LINE
  8
0
 62
     0
 10
114.942
 20
144.545
 30
0.0
 11
114.296
 21
141.514
 31
0.0
  0
LINE
  8
0
 62
     0
 10
114.296
 20
141.514
 30
0.0
 11
115.079
 21
141.347
 31
0.0
  0
LINE
  8
0
 62
     0
 10
115.079
 20
141.347
 30
0.0
 11
113.873
 21
135.673
 31
0.0
  0
LINE
  8
0
 62
     0
 10
113.873
 20
135.673
 30
0.0
 11
113.09
 21
135.84
 31
0.0
  0
LINE
  8
0
 62
     0
 10
113.09
 20
135.84
 30
0.0
 11
112.447
 21
132.807
 31
0.0
  0
LINE
  8
0
 62
     0
 10
112.447
 20
132.807
 30
0.0
 11
113.228
 21
132.642
 31
0.0
  0
LINE
  8
0
 62
     0
 10
113.228
 20
132.642
 30
0.0
 11
113.02
 21
131.663
 31
0.0
  0
LINE
  8
0
 62
     0
 10
113.02
 20
131.663
 30
0.0
 11
126.715
 21
128.752
 31
0.0
  0
LINE
  8
0
 62
     0
 10
126.715
 20
128.752
 30
0.0
 11
126.923
 21
129.73
 31
0.0
  0
LINE
  8
0
 62
     0
 10
126.923
 20
129.73
 30
0.0
 11
127.706
 21
129.565
 31
0.0
  0
LINE
  8
0
 62
     0
 10
127.706
 20
129.565
 30
0.0
 11
128.349
 21
132.596
 31
0.0
  0
LINE
  8
0
 62
     0
 10
128.349
 20
132.596
 30
0.0
 11
127.568
 21
132.763
 31
0.0
  0
LINE
  8
0
 62
     0
 10
127.568
 20
132.763
 30
0.0
 11
128.773
 21
138.436
 31
0.0
  0
LINE
  8
0
 62
     0
 10
128.773
 20
138.436
 30
0.0
 11
129.555
 21
138.269
 31
0.0
  0
LINE
  8
0
 62
     0
 10
129.555
 20
138.269
 30
0.0
 11
130.2
 21
141.303
 31
0.0
  0
LINE
  8
0
 62
     0
 10
130.2
 20
141.303
 30
0.0
 11
129.417
 21
141.468
 31
0.0
  0
LINE
  8
0
 62
     0
 10
129.417
 20
141.468
 30
0.0
 11
129.625
 21
142.446
 31
0.0
  0
LINE
  8
0
 62
     0
 10
129.625
 20
142.446
 30
0.0
 11
115.932
 21
145.357
 31
0.0
  0
LINE
  8
0
 62
     0
 10
115.932
 20
145.357
 30
0.0
 11
115.723
 21
144.379
 31
0.0
  0
LINE
  8
0
 62
     0
 10
30.5111
 20
143.042
 30
0.0
 11
30.7178
 21
142.065
 31
0.0
  0
LINE
  8
0
 62
     0
 10
30.7178
 20
142.065
 30
0.0
 11
29.9351
 21
141.898
 31
0.0
  0
LINE
  8
0
 62
     0
 10
29.9351
 20
141.898
 30
0.0
 11
30.58
 21
138.866
 31
0.0
  0
LINE
  8
0
 62
     0
 10
30.58
 20
138.866
 30
0.0
 11
31.3628
 21
139.031
 31
0.0
  0
LINE
  8
0
 62
     0
 10
31.3628
 20
139.031
 30
0.0
 11
32.5685
 21
133.36
 31
0.0
  0
LINE
  8
0
 62
     0
 10
32.5685
 20
133.36
 30
0.0
 11
31.7858
 21
133.192
 31
0.0
  0
LINE
  8
0
 62
     0
 10
31.7858
 20
133.192
 30
0.0
 11
32.4308
 21
130.16
 31
0.0
  0
LINE
  8
0
 62
     0
 10
32.4308
 20
130.16
 30
0.0
 11
33.2121
 21
130.327
 31
0.0
  0
LINE
  8
0
 62
     0
 10
33.2121
 20
130.327
 30
0.0
 11
33.4202
 21
129.348
 31
0.0
  0
LINE
  8
0
 62
     0
 10
33.4202
 20
129.348
 30
0.0
 11
47.1152
 21
132.259
 31
0.0
  0
LINE
  8
0
 62
     0
 10
47.1152
 20
132.259
 30
0.0
 11
46.9071
 21
133.237
 31
0.0
  0
LINE
  8
0
 62
     0
 10
46.9071
 20
133.237
 30
0.0
 11
47.6899
 21
133.404
 31
0.0
  0
LINE
  8
0
 62
     0
 10
47.6899
 20
133.404
 30
0.0
 11
47.0447
 21
136.435
 31
0.0
  0
LINE
  8
0
 62
     0
 10
47.0447
 20
136.435
 30
0.0
 11
46.2622
 21
136.269
 31
0.0
  0
LINE
  8
0
 62
     0
 10
46.2622
 20
136.269
 30
0.0
 11
45.0564
 21
141.943
 31
0.0
  0
LINE
  8
0
 62
     0
 10
45.0564
 20
141.943
 30
0.0
 11
45.8392
 21
142.109
 31
0.0
  0
LINE
  8
0
 62
     0
 10
45.8392
 20
142.109
 30
0.0
 11
45.194
 21
145.141
 31
0.0
  0
LINE
  8
0
 62
     0
 10
45.194
 20
145.141
 30
0.0
 11
44.413
 21
144.975
 31
0.0
  0
LINE
  8
0
 62
     0
 10
44.413
 20
144.975
 30
0.0
 11
44.2048
 21
145.954
 31
0.0
  0
LINE
  8
0
 62
     0
 10
44.2048
 20
145.954
 30
0.0
 11
30.5111
 21
143.042
 31
0.0
  0
LINE
  8
0
 62
     0
 10
94.4051
 20
147.68
 30
0.0
 11
93.6103
 21
147.763
 31
0.0
  0
LINE
  8
0
 62
     0
 10
93.6103
 20
147.763
 30
0.0
 11
93.285
 21
144.68
 31
0.0
  0
LINE
  8
0
 62
     0
 10
93.285
 20
144.68
 30
0.0
 11
94.0816
 21
144.598
 31
0.0
  0
LINE
  8
0
 62
     0
 10
94.0816
 20
144.598
 30
0.0
 11
93.4752
 21
138.828
 31
0.0
  0
LINE
  8
0
 62
     0
 10
93.4752
 20
138.828
 30
0.0
 11
92.68
 21
138.912
 31
0.0
  0
LINE
  8
0
 62
     0
 10
92.68
 20
138.912
 30
0.0
 11
92.3562
 21
135.829
 31
0.0
  0
LINE
  8
0
 62
     0
 10
92.3562
 20
135.829
 30
0.0
 11
93.1513
 21
135.745
 31
0.0
  0
LINE
  8
0
 62
     0
 10
93.1513
 20
135.745
 30
0.0
 11
93.0465
 21
134.752
 31
0.0
  0
LINE
  8
0
 62
     0
 10
93.0465
 20
134.752
 30
0.0
 11
106.969
 21
133.288
 31
0.0
  0
LINE
  8
0
 62
     0
 10
106.969
 20
133.288
 30
0.0
 11
107.075
 21
134.282
 31
0.0
  0
LINE
  8
0
 62
     0
 10
107.075
 20
134.282
 30
0.0
 11
107.87
 21
134.197
 31
0.0
  0
LINE
  8
0
 62
     0
 10
107.87
 20
134.197
 30
0.0
 11
108.194
 21
137.282
 31
0.0
  0
LINE
  8
0
 62
     0
 10
108.194
 20
137.282
 30
0.0
 11
107.399
 21
137.366
 31
0.0
  0
LINE
  8
0
 62
     0
 10
107.399
 20
137.366
 30
0.0
 11
108.005
 21
143.133
 31
0.0
  0
LINE
  8
0
 62
     0
 10
108.005
 20
143.133
 30
0.0
 11
108.8
 21
143.05
 31
0.0
  0
LINE
  8
0
 62
     0
 10
108.8
 20
143.05
 30
0.0
 11
109.124
 21
146.133
 31
0.0
  0
LINE
  8
0
 62
     0
 10
109.124
 20
146.133
 30
0.0
 11
108.329
 21
146.217
 31
0.0
  0
LINE
  8
0
 62
     0
 10
108.329
 20
146.217
 30
0.0
 11
108.434
 21
147.212
 31
0.0
  0
LINE
  8
0
 62
     0
 10
108.434
 20
147.212
 30
0.0
 11
94.5099
 21
148.674
 31
0.0
  0
LINE
  8
0
 62
     0
 10
94.5099
 20
148.674
 30
0.0
 11
94.4051
 21
147.68
 31
0.0
  0
LINE
  8
0
 62
     0
 10
51.9257
 20
147.4
 30
0.0
 11
52.0291
 21
146.406
 31
0.0
  0
LINE
  8
0
 62
     0
 10
52.0291
 20
146.406
 30
0.0
 11
51.2339
 21
146.323
 31
0.0
  0
LINE
  8
0
 62
     0
 10
51.2339
 20
146.323
 30
0.0
 11
51.5578
 21
143.24
 31
0.0
  0
LINE
  8
0
 62
     0
 10
51.5578
 20
143.24
 30
0.0
 11
52.3529
 21
143.323
 31
0.0
  0
LINE
  8
0
 62
     0
 10
52.3529
 20
143.323
 30
0.0
 11
52.9608
 21
137.554
 31
0.0
  0
LINE
  8
0
 62
     0
 10
52.9608
 20
137.554
 30
0.0
 11
52.1642
 21
137.472
 31
0.0
  0
LINE
  8
0
 62
     0
 10
52.1642
 20
137.472
 30
0.0
 11
52.488
 21
134.388
 31
0.0
  0
LINE
  8
0
 62
     0
 10
52.488
 20
134.388
 30
0.0
 11
53.2846
 21
134.472
 31
0.0
  0
LINE
  8
0
 62
     0
 10
53.2846
 20
134.472
 30
0.0
 11
53.388
 21
133.478
 31
0.0
  0
LINE
  8
0
 62
     0
 10
53.388
 20
133.478
 30
0.0
 11
67.3132
 21
134.942
 31
0.0
  0
LINE
  8
0
 62
     0
 10
67.3132
 20
134.942
 30
0.0
 11
67.207
 21
135.935
 31
0.0
  0
LINE
  8
0
 62
     0
 10
67.207
 20
135.935
 30
0.0
 11
68.0036
 21
136.019
 31
0.0
  0
LINE
  8
0
 62
     0
 10
68.0036
 20
136.019
 30
0.0
 11
67.6797
 21
139.102
 31
0.0
  0
LINE
  8
0
 62
     0
 10
67.6797
 20
139.102
 30
0.0
 11
66.8831
 21
139.018
 31
0.0
  0
LINE
  8
0
 62
     0
 10
66.8831
 20
139.018
 30
0.0
 11
66.2781
 21
144.788
 31
0.0
  0
LINE
  8
0
 62
     0
 10
66.2781
 20
144.788
 30
0.0
 11
67.0719
 21
144.87
 31
0.0
  0
LINE
  8
0
 62
     0
 10
67.0719
 20
144.87
 30
0.0
 11
66.748
 21
147.953
 31
0.0
  0
LINE
  8
0
 62
     0
 10
66.748
 20
147.953
 30
0.0
 11
65.9529
 21
147.87
 31
0.0
  0
LINE
  8
0
 62
     0
 10
65.9529
 20
147.87
 30
0.0
 11
65.8481
 21
148.864
 31
0.0
  0
LINE
  8
0
 62
     0
 10
65.8481
 20
148.864
 30
0.0
 11
51.9257
 21
147.4
 31
0.0
  0
LINE
  8
0
 62
     0
 10
73.1051
 20
149.153
 30
0.0
 11
73.1051
 21
148.153
 31
0.0
  0
LINE
  8
0
 62
     0
 10
73.1051
 20
148.153
 30
0.0
 11
72.3043
 21
148.153
 31
0.0
  0
LINE
  8
0
 62
     0
 10
72.3043
 20
148.153
 30
0.0
 11
72.3043
 21
145.054
 31
0.0
  0
LINE
  8
0
 62
     0
 10
72.3043
 20
145.054
 30
0.0
 11
73.1051
 21
145.054
 31
0.0
  0
LINE
  8
0
 62
     0
 10
73.1051
 20
145.054
 30
0.0
 11
73.1051
 21
139.253
 31
0.0
  0
LINE
  8
0
 62
     0
 10
73.1051
 20
139.253
 30
0.0
 11
72.3043
 21
139.253
 31
0.0
  0
LINE
  8
0
 62
     0
 10
72.3043
 20
139.253
 30
0.0
 11
72.3043
 21
136.153
 31
0.0
  0
LINE
  8
0
 62
     0
 10
72.3043
 20
136.153
 30
0.0
 11
73.1051
 21
136.153
 31
0.0
  0
LINE
  8
0
 62
     0
 10
73.1051
 20
136.153
 30
0.0
 11
73.1051
 21
135.152
 31
0.0
  0
LINE
  8
0
 62
     0
 10
73.1051
 20
135.152
 30
0.0
 11
87.1044
 21
135.152
 31
0.0
  0
LINE
  8
0
 62
     0
 10
87.1044
 20
135.152
 30
0.0
 11
87.1044
 21
136.153
 31
0.0
  0
LINE
  8
0
 62
     0
 10
87.1044
 20
136.153
 30
0.0
 11
87.9052
 21
136.153
 31
0.0
  0
LINE
  8
0
 62
     0
 10
87.9052
 20
136.153
 30
0.0
 11
87.9052
 21
139.253
 31
0.0
  0
LINE
  8
0
 62
     0
 10
87.9052
 20
139.253
 30
0.0
 11
87.1044
 21
139.253
 31
0.0
  0
LINE
  8
0
 62
     0
 10
87.1044
 20
139.253
 30
0.0
 11
87.1044
 21
145.054
 31
0.0
  0
LINE
  8
0
 62
     0
 10
87.1044
 20
145.054
 30
0.0
 11
87.9052
 21
145.054
 31
0.0
  0
LINE
  8
0
 62
     0
 10
87.9052
 20
145.054
 30
0.0
 11
87.9052
 21
148.153
 31
0.0
  0
LINE
  8
0
 62
     0
 10
87.9052
 20
148.153
 30
0.0
 11
87.1044
 21
148.153
 31
0.0
  0
LINE
  8
0
 62
     0
 10
87.1044
 20
148.153
 30
0.0
 11
87.1044
 21
149.153
 31
0.0
  0
LINE
  8
0
 62
     0
 10
87.1044
 20
149.153
 30
0.0
 11
73.1051
 21
149.153
 31
0.0
  0
ENDSEC
  0
EOF
