<?xml version="1.0" encoding="utf-8"?>
<svg width="6236.22047244094" height="5563.08670644685" viewBox="0 0 6236.22047244094 5563.08670644685" xmlns="http://www.w3.org/2000/svg">
  <path stroke-width="0.05291666667" fill="none" stroke="black" stroke-linecap="round" d="M 510.23622047244 -2781.54330708661 A 2607.87401574803 944.88188976378 0.0 0 1 3118.11023622047 -1836.66141732284" />
  <path stroke-width="0.05291666667" fill="none" stroke="black" stroke-linecap="round" d="M 2929.13385826772 2781.54330708661 L -2929.13385826772 2781.54330708661" />
  <path stroke-width="0.05291666667" fill="none" stroke="black" stroke-linecap="round" d="M -2929.13385826772 2781.54330708661 A 188.97637795276 188.97637795276 0 0 1 -3118.11023622047 2592.56692913386" />
  <path stroke-width="0.05291666667" fill="none" stroke="black" stroke-linecap="round" d="M -3118.11023622047 2592.56692913386 L -3118.11023622047 -1836.66141732284" />
  <path stroke-width="0.05291666667" fill="none" stroke="black" stroke-linecap="round" d="M 3118.11023622047 2592.56692913386 A 188.97637795276 188.97637795276 0 0 1 2929.13385826772 2781.54330708661" />
  <path stroke-width="0.05291666667" fill="none" stroke="black" stroke-linecap="round" d="M -510.23622047244 -2781.54330708661 L 510.23622047244 -2781.54330708661" />
  <path stroke-width="0.05291666667" fill="none" stroke="black" stroke-linecap="round" d="M -3118.11023622047 -1836.66141732284 A 2607.87401574803 944.88188976378 -180.0 0 1 -510.23622047244 -2781.54330708661" />
  <path stroke-width="0.05291666667" fill="none" stroke="black" stroke-linecap="round" d="M 3118.11023622047 -1836.66141732284 L 3118.11023622047 2592.56692913386" />
  <circle stroke-width="0.05291666667" fill="none" stroke="black" stroke-linecap="round" cx="-30.61417322835" cy="-2535.87401574803" r="12.28346456693" />
  <path stroke-width="0.05291666667" fill="none" stroke="black" stroke-linecap="round" d="M 510.23620605469 -2781.54321289063 A 2607.8740234375 944.88189697266 0.0 0 1 3118.1103515625 -1836.66137695313" />
  <path stroke-width="0.05291666667" fill="none" stroke="black" stroke-linecap="round" d="M 2929.1337890625 2781.54321289063 L -2929.1337890625 2781.54321289063" />
  <path stroke-width="0.05291666667" fill="none" stroke="black" stroke-linecap="round" d="M -3118.11035156246 2592.56697527076 A 188.97637939453 188.97637939453 0 0 0 -2929.1337890625 2781.54321289063" />
  <path stroke-width="0.05291666667" fill="none" stroke="black" stroke-linecap="round" d="M -3118.1103515625 2592.56689453125 L -3118.1103515625 -1836.66137695313" />
  <path stroke-width="0.05291666667" fill="none" stroke="black" stroke-linecap="round" d="M 2929.1338582678 2781.54321289068 A 188.97637939453 188.97637939453 0 0 0 3118.1103515625 2592.56689453125" />
  <path stroke-width="0.05291666667" fill="none" stroke="black" stroke-linecap="round" d="M -510.23620605469 -2781.54321289063 L 510.23620605469 -2781.54321289063" />
  <path stroke-width="0.05291666667" fill="none" stroke="black" stroke-linecap="round" d="M -3118.1103515625 -1836.66137695313 A 2607.8740234375 944.88189697266 -180.0 0 1 -510.23620605469 -2781.54321289063" />
  <path stroke-width="0.05291666667" fill="none" stroke="black" stroke-linecap="round" d="M 3118.1103515625 -1836.66137695313 L 3118.1103515625 2592.56689453125" />
</svg>