M48
; DRILL file {KiCad (6.0.1)} date Mon Oct 10 16:59:36 2022
; FORMAT={-:-/ absolute / metric / decimal}
; #@! TF.CreationDate,2022-10-10T16:59:36-07:00
; #@! TF.GenerationSoftware,Kicad,Pcbnew,(6.0.1)
; #@! TF.FileFunction,NonPlated,1,2,NPTH
FMAT,2
METRIC
; #@! TA.AperFunction,NonPlated,NPTH,ComponentDrill
T1C0.650
; #@! TA.AperFunction,NonPlated,NPTH,ComponentDrill
T2C1.700
; #@! TA.AperFunction,NonPlated,NPTH,ComponentDrill
T3C2.950
; #@! TA.AperFunction,NonPlated,NPTH,ComponentDrill
T4C3.980
%
G90
G05
T1
X110.91Y-64.15
X116.69Y-64.15
T2
X42.03Y-129.28
X48.725Y-88.996
X52.19Y-129.28
X58.715Y-87.144
X59.006Y-107.437
X61.06Y-129.29
X61.06Y-186.45
X61.07Y-148.34
X61.08Y-167.4
X68.548Y-85.639
X69.034Y-105.803
X71.22Y-129.29
X71.22Y-186.45
X71.23Y-148.34
X71.24Y-167.4
X78.632Y-84.401
X78.784Y-104.561
X88.589Y-83.49
X88.896Y-103.579
X89.65Y-124.53
X89.65Y-143.58
X98.713Y-102.924
X98.731Y-82.87
X99.81Y-124.53
X99.81Y-143.58
X108.69Y-82.56
X108.7Y-124.53
X108.7Y-143.58
X108.867Y-102.596
X118.703Y-102.596
X118.85Y-82.56
X118.86Y-124.53
X118.86Y-143.58
X127.75Y-124.53
X127.75Y-143.58
X128.819Y-82.85
X128.857Y-102.924
X137.91Y-124.53
X137.91Y-143.58
X138.664Y-103.559
X138.961Y-83.47
X146.79Y-167.39
X148.776Y-104.541
X148.898Y-84.411
X151.552Y-191.202
X156.33Y-129.29
X156.33Y-148.34
X156.95Y-167.39
X158.516Y-105.813
X158.982Y-85.649
X161.713Y-191.202
X165.84Y-172.153
X166.49Y-129.29
X166.49Y-148.34
X168.544Y-107.447
X168.865Y-87.144
X175.365Y-191.202
X175.38Y-129.29
X175.38Y-148.34
X176.0Y-172.153
X178.855Y-88.996
X184.89Y-172.153
X185.525Y-191.202
X185.54Y-129.29
X185.54Y-148.34
X195.05Y-172.153
T3
X43.3Y-126.74
X49.511Y-86.267
X49.65Y-124.2
X55.292Y-82.612
X59.851Y-104.725
X62.33Y-126.75
X62.33Y-183.91
X62.34Y-145.8
X62.35Y-164.86
X65.71Y-101.198
X68.68Y-124.21
X68.68Y-181.37
X68.69Y-143.26
X68.7Y-162.32
X69.499Y-82.963
X75.492Y-79.668
X79.802Y-101.91
X85.877Y-98.768
X89.702Y-80.877
X90.92Y-121.99
X90.92Y-141.04
X95.885Y-77.954
X97.27Y-119.45
X97.27Y-138.5
X99.9Y-100.344
X106.165Y-97.601
X109.96Y-80.02
X109.97Y-121.99
X109.97Y-141.04
X116.31Y-77.48
X116.32Y-119.45
X116.32Y-138.5
X120.054Y-100.098
X126.483Y-97.765
X129.02Y-121.99
X129.02Y-141.04
X130.242Y-80.392
X135.37Y-119.45
X135.37Y-138.5
X136.735Y-78.245
X140.174Y-101.153
X146.739Y-99.239
X148.06Y-164.85
X150.468Y-82.045
X152.822Y-188.662
X154.41Y-162.31
X157.08Y-80.297
X157.6Y-126.75
X157.6Y-145.8
X159.172Y-186.123
X160.178Y-103.511
X163.95Y-124.21
X163.95Y-143.26
X166.854Y-102.024
X167.11Y-169.612
X170.577Y-84.878
X173.46Y-167.072
X176.635Y-188.662
X176.65Y-126.75
X176.65Y-145.8
X177.283Y-83.538
X182.985Y-186.123
X183.0Y-124.21
X183.0Y-143.26
X186.16Y-169.612
X192.51Y-167.072
T4
X47.11Y-129.28
X53.72Y-88.07
X64.02Y-106.62
X66.14Y-129.29
X66.14Y-186.45
X66.15Y-148.34
X66.16Y-167.4
X73.59Y-85.02
X83.84Y-104.07
X93.66Y-83.18
X94.73Y-124.53
X94.73Y-143.58
X103.79Y-102.76
X113.77Y-82.56
X113.78Y-124.53
X113.78Y-143.58
X123.78Y-102.76
X132.83Y-124.53
X132.83Y-143.58
X133.89Y-83.16
X143.72Y-104.05
X151.87Y-167.39
X153.94Y-85.03
X156.632Y-191.202
X161.41Y-129.29
X161.41Y-148.34
X163.53Y-106.63
X170.92Y-172.153
X173.86Y-88.07
X180.445Y-191.202
X180.46Y-129.29
X180.46Y-148.34
X189.97Y-172.153
T0
M30
