%TF.GenerationSoftware,KiCad,Pcbnew,(6.0.1)*%
%TF.CreationDate,2022-10-10T17:14:27-07:00*%
%TF.ProjectId,StealthPad,53746561-6c74-4685-9061-642e6b696361,rev?*%
%TF.SameCoordinates,Original*%
%TF.FileFunction,Legend,Top*%
%TF.FilePolarity,Positive*%
%FSLAX46Y46*%
G04 Gerber Fmt 4.6, Leading zero omitted, Abs format (unit mm)*
G04 Created by KiCad (PCBNEW (6.0.1)) date 2022-10-10 17:14:27*
%MOMM*%
%LPD*%
G01*
G04 APERTURE LIST*
%ADD10C,0.250000*%
%ADD11C,0.380000*%
%ADD12C,0.635000*%
G04 APERTURE END LIST*
D10*
X135599642Y-63963571D02*
X135599642Y-62463571D01*
X136099642Y-63535000D01*
X136599642Y-62463571D01*
X136599642Y-63963571D01*
X137956785Y-63963571D02*
X137956785Y-63177857D01*
X137885357Y-63035000D01*
X137742500Y-62963571D01*
X137456785Y-62963571D01*
X137313928Y-63035000D01*
X137956785Y-63892142D02*
X137813928Y-63963571D01*
X137456785Y-63963571D01*
X137313928Y-63892142D01*
X137242500Y-63749285D01*
X137242500Y-63606428D01*
X137313928Y-63463571D01*
X137456785Y-63392142D01*
X137813928Y-63392142D01*
X137956785Y-63320714D01*
X138456785Y-62963571D02*
X139028214Y-62963571D01*
X138671071Y-62463571D02*
X138671071Y-63749285D01*
X138742500Y-63892142D01*
X138885357Y-63963571D01*
X139028214Y-63963571D01*
X140171071Y-63892142D02*
X140028214Y-63963571D01*
X139742500Y-63963571D01*
X139599642Y-63892142D01*
X139528214Y-63820714D01*
X139456785Y-63677857D01*
X139456785Y-63249285D01*
X139528214Y-63106428D01*
X139599642Y-63035000D01*
X139742500Y-62963571D01*
X140028214Y-62963571D01*
X140171071Y-63035000D01*
X140813928Y-63963571D02*
X140813928Y-62463571D01*
X141456785Y-63963571D02*
X141456785Y-63177857D01*
X141385357Y-63035000D01*
X141242500Y-62963571D01*
X141028214Y-62963571D01*
X140885357Y-63035000D01*
X140813928Y-63106428D01*
X142099642Y-63892142D02*
X142242500Y-63963571D01*
X142528214Y-63963571D01*
X142671071Y-63892142D01*
X142742500Y-63749285D01*
X142742500Y-63677857D01*
X142671071Y-63535000D01*
X142528214Y-63463571D01*
X142313928Y-63463571D01*
X142171071Y-63392142D01*
X142099642Y-63249285D01*
X142099642Y-63177857D01*
X142171071Y-63035000D01*
X142313928Y-62963571D01*
X142528214Y-62963571D01*
X142671071Y-63035000D01*
X143171071Y-62963571D02*
X143742500Y-62963571D01*
X143385357Y-62463571D02*
X143385357Y-63749285D01*
X143456785Y-63892142D01*
X143599642Y-63963571D01*
X143742500Y-63963571D01*
X144242500Y-63963571D02*
X144242500Y-62963571D01*
X144242500Y-62463571D02*
X144171071Y-62535000D01*
X144242500Y-62606428D01*
X144313928Y-62535000D01*
X144242500Y-62463571D01*
X144242500Y-62606428D01*
X145599642Y-63892142D02*
X145456785Y-63963571D01*
X145171071Y-63963571D01*
X145028214Y-63892142D01*
X144956785Y-63820714D01*
X144885357Y-63677857D01*
X144885357Y-63249285D01*
X144956785Y-63106428D01*
X145028214Y-63035000D01*
X145171071Y-62963571D01*
X145456785Y-62963571D01*
X145599642Y-63035000D01*
X146242500Y-63963571D02*
X146242500Y-62463571D01*
X146385357Y-63392142D02*
X146813928Y-63963571D01*
X146813928Y-62963571D02*
X146242500Y-63535000D01*
X147313928Y-62463571D02*
X147671071Y-63963571D01*
X147956785Y-62892142D01*
X148242500Y-63963571D01*
X148599642Y-62463571D01*
X149385357Y-63963571D02*
X149242500Y-63892142D01*
X149171071Y-63820714D01*
X149099642Y-63677857D01*
X149099642Y-63249285D01*
X149171071Y-63106428D01*
X149242500Y-63035000D01*
X149385357Y-62963571D01*
X149599642Y-62963571D01*
X149742500Y-63035000D01*
X149813928Y-63106428D01*
X149885357Y-63249285D01*
X149885357Y-63677857D01*
X149813928Y-63820714D01*
X149742500Y-63892142D01*
X149599642Y-63963571D01*
X149385357Y-63963571D01*
X150528214Y-63963571D02*
X150528214Y-62963571D01*
X150528214Y-63249285D02*
X150599642Y-63106428D01*
X150671071Y-63035000D01*
X150813928Y-62963571D01*
X150956785Y-62963571D01*
X151456785Y-63963571D02*
X151456785Y-62463571D01*
X151599642Y-63392142D02*
X152028214Y-63963571D01*
X152028214Y-62963571D02*
X151456785Y-63535000D01*
X152599642Y-63892142D02*
X152742500Y-63963571D01*
X153028214Y-63963571D01*
X153171071Y-63892142D01*
X153242500Y-63749285D01*
X153242500Y-63677857D01*
X153171071Y-63535000D01*
X153028214Y-63463571D01*
X152813928Y-63463571D01*
X152671071Y-63392142D01*
X152599642Y-63249285D01*
X152599642Y-63177857D01*
X152671071Y-63035000D01*
X152813928Y-62963571D01*
X153028214Y-62963571D01*
X153171071Y-63035000D01*
X135528214Y-66307142D02*
X135742500Y-66378571D01*
X136099642Y-66378571D01*
X136242500Y-66307142D01*
X136313928Y-66235714D01*
X136385357Y-66092857D01*
X136385357Y-65950000D01*
X136313928Y-65807142D01*
X136242500Y-65735714D01*
X136099642Y-65664285D01*
X135813928Y-65592857D01*
X135671071Y-65521428D01*
X135599642Y-65450000D01*
X135528214Y-65307142D01*
X135528214Y-65164285D01*
X135599642Y-65021428D01*
X135671071Y-64950000D01*
X135813928Y-64878571D01*
X136171071Y-64878571D01*
X136385357Y-64950000D01*
X136813928Y-65378571D02*
X137385357Y-65378571D01*
X137028214Y-64878571D02*
X137028214Y-66164285D01*
X137099642Y-66307142D01*
X137242500Y-66378571D01*
X137385357Y-66378571D01*
X138456785Y-66307142D02*
X138313928Y-66378571D01*
X138028214Y-66378571D01*
X137885357Y-66307142D01*
X137813928Y-66164285D01*
X137813928Y-65592857D01*
X137885357Y-65450000D01*
X138028214Y-65378571D01*
X138313928Y-65378571D01*
X138456785Y-65450000D01*
X138528214Y-65592857D01*
X138528214Y-65735714D01*
X137813928Y-65878571D01*
X139813928Y-66378571D02*
X139813928Y-65592857D01*
X139742500Y-65450000D01*
X139599642Y-65378571D01*
X139313928Y-65378571D01*
X139171071Y-65450000D01*
X139813928Y-66307142D02*
X139671071Y-66378571D01*
X139313928Y-66378571D01*
X139171071Y-66307142D01*
X139099642Y-66164285D01*
X139099642Y-66021428D01*
X139171071Y-65878571D01*
X139313928Y-65807142D01*
X139671071Y-65807142D01*
X139813928Y-65735714D01*
X140742500Y-66378571D02*
X140599642Y-66307142D01*
X140528214Y-66164285D01*
X140528214Y-64878571D01*
X141099642Y-65378571D02*
X141671071Y-65378571D01*
X141313928Y-64878571D02*
X141313928Y-66164285D01*
X141385357Y-66307142D01*
X141528214Y-66378571D01*
X141671071Y-66378571D01*
X142171071Y-66378571D02*
X142171071Y-64878571D01*
X142813928Y-66378571D02*
X142813928Y-65592857D01*
X142742500Y-65450000D01*
X142599642Y-65378571D01*
X142385357Y-65378571D01*
X142242500Y-65450000D01*
X142171071Y-65521428D01*
X143528214Y-66378571D02*
X143528214Y-64878571D01*
X144099642Y-64878571D01*
X144242500Y-64950000D01*
X144313928Y-65021428D01*
X144385357Y-65164285D01*
X144385357Y-65378571D01*
X144313928Y-65521428D01*
X144242500Y-65592857D01*
X144099642Y-65664285D01*
X143528214Y-65664285D01*
X145671071Y-66378571D02*
X145671071Y-65592857D01*
X145599642Y-65450000D01*
X145456785Y-65378571D01*
X145171071Y-65378571D01*
X145028214Y-65450000D01*
X145671071Y-66307142D02*
X145528214Y-66378571D01*
X145171071Y-66378571D01*
X145028214Y-66307142D01*
X144956785Y-66164285D01*
X144956785Y-66021428D01*
X145028214Y-65878571D01*
X145171071Y-65807142D01*
X145528214Y-65807142D01*
X145671071Y-65735714D01*
X147028214Y-66378571D02*
X147028214Y-64878571D01*
X147028214Y-66307142D02*
X146885357Y-66378571D01*
X146599642Y-66378571D01*
X146456785Y-66307142D01*
X146385357Y-66235714D01*
X146313928Y-66092857D01*
X146313928Y-65664285D01*
X146385357Y-65521428D01*
X146456785Y-65450000D01*
X146599642Y-65378571D01*
X146885357Y-65378571D01*
X147028214Y-65450000D01*
X135456785Y-67793571D02*
X135813928Y-68793571D01*
X136171071Y-67793571D01*
X137028214Y-67293571D02*
X137171071Y-67293571D01*
X137313928Y-67365000D01*
X137385357Y-67436428D01*
X137456785Y-67579285D01*
X137528214Y-67865000D01*
X137528214Y-68222142D01*
X137456785Y-68507857D01*
X137385357Y-68650714D01*
X137313928Y-68722142D01*
X137171071Y-68793571D01*
X137028214Y-68793571D01*
X136885357Y-68722142D01*
X136813928Y-68650714D01*
X136742500Y-68507857D01*
X136671071Y-68222142D01*
X136671071Y-67865000D01*
X136742500Y-67579285D01*
X136813928Y-67436428D01*
X136885357Y-67365000D01*
X137028214Y-67293571D01*
X138171071Y-68650714D02*
X138242500Y-68722142D01*
X138171071Y-68793571D01*
X138099642Y-68722142D01*
X138171071Y-68650714D01*
X138171071Y-68793571D01*
X139671071Y-68793571D02*
X138813928Y-68793571D01*
X139242500Y-68793571D02*
X139242500Y-67293571D01*
X139099642Y-67507857D01*
X138956785Y-67650714D01*
X138813928Y-67722142D01*
D11*
%TO.C,REF\u002A\u002A*%
X127880000Y-60700000D02*
X127880000Y-61900000D01*
X127880000Y-70700000D02*
X127880000Y-69500000D01*
X127880000Y-69500000D02*
G75*
G03*
X130447768Y-67816497I0J2800000D01*
G01*
X122880000Y-66800000D02*
G75*
G03*
X132834422Y-66989845I5000000J1100000D01*
G01*
X132880000Y-64600000D02*
G75*
G03*
X122925578Y-64410155I-5000000J-1100000D01*
G01*
X127880000Y-61900000D02*
G75*
G03*
X125312232Y-63583503I0J-2800000D01*
G01*
D12*
X134130000Y-65700000D02*
G75*
G03*
X134130000Y-65700000I-6250000J0D01*
G01*
%TD*%
M02*
