M48
; DRILL file {KiCad (6.0.1)} date Mon Oct 10 16:59:36 2022
; FORMAT={-:-/ absolute / metric / decimal}
; #@! TF.CreationDate,2022-10-10T16:59:36-07:00
; #@! TF.GenerationSoftware,Kicad,Pcbnew,(6.0.1)
; #@! TF.FileFunction,Plated,1,2,PTH
FMAT,2
METRIC
; #@! TA.AperFunction,Plated,PTH,ViaDrill
T1C0.300
; #@! TA.AperFunction,Plated,PTH,ViaDrill
T2C0.350
; #@! TA.AperFunction,Plated,PTH,ComponentDrill
T3C0.350
; #@! TA.AperFunction,Plated,PTH,ComponentDrill
T4C0.600
%
G90
G05
T1
X37.94Y-126.74
X46.03Y-89.17
X54.33Y-105.3
X56.02Y-137.25
X56.02Y-138.45
X56.02Y-139.81
X56.97Y-126.75
X56.97Y-145.8
X56.97Y-164.86
X56.97Y-183.91
X57.85Y-137.24
X57.85Y-138.45
X57.86Y-139.81
X65.98Y-85.63
X74.33Y-102.25
X85.57Y-121.99
X85.57Y-141.04
X86.16Y-83.45
X94.64Y-100.46
X98.35Y-189.86
X99.08Y-190.55
X99.67Y-188.52
X99.86Y-191.2
X100.43Y-189.19
X101.18Y-189.92
X101.625Y-162.525
X101.95Y-89.07
X102.35Y-130.86
X102.54Y-149.96
X102.575Y-156.725
X104.749Y-141.04
X104.75Y-121.99
X104.75Y-129.95
X104.75Y-131.77
X104.93Y-109.7
X105.1Y-182.825
X105.44Y-107.6
X105.44Y-108.54
X105.639Y-177.867
X105.66Y-179.487
X105.663Y-180.383
X105.667Y-178.687
X106.41Y-82.51
X107.24Y-108.54
X107.26Y-107.59
X107.275Y-171.35
X107.5Y-160.525
X107.76Y-109.7
X108.875Y-179.05
X109.17Y-88.09
X109.17Y-90.07
X110.075Y-168.35
X110.1Y-71.71
X110.65Y-181.175
X111.58Y-185.68
X112.05Y-168.35
X112.55Y-183.975
X112.6Y-108.93
X112.85Y-165.725
X113.625Y-192.675
X114.575Y-170.5
X114.7Y-165.725
X115.218Y-171.448
X115.43Y-108.93
X115.5Y-166.775
X115.575Y-70.385
X116.5Y-101.95
X116.675Y-71.76
X117.4Y-166.775
X117.92Y-89.07
X118.01Y-130.86
X118.09Y-149.96
X118.725Y-165.65
X120.45Y-171.525
X120.95Y-167.025
X123.225Y-190.225
X123.72Y-121.99
X123.72Y-141.04
X125.675Y-181.725
X126.699Y-82.181
X128.49Y-177.33
X128.51Y-176.5
X128.51Y-178.23
X130.3Y-181.01
X134.73Y-100.81
X142.71Y-164.85
X146.944Y-83.866
X147.43Y-188.27
X149.93Y-185.99
X151.86Y-126.75
X151.86Y-145.8
X154.42Y-102.87
X161.39Y-169.61
X166.91Y-86.22
X171.04Y-126.75
X171.04Y-145.8
X173.08Y-195.0
X173.09Y-186.31
X180.49Y-169.61
T2
X113.475Y-174.675
X114.375Y-179.2
T3
X113.7Y-175.825
X113.7Y-177.1
X113.7Y-178.375
X114.975Y-175.825
X114.975Y-177.1
X114.975Y-178.375
X116.25Y-175.825
X116.25Y-177.1
X116.25Y-178.375
T4
G00X109.48Y-60.2
M15
G01X109.48Y-60.8
M16
G05
G00X109.48Y-64.13
M15
G01X109.48Y-65.23
M16
G05
G00X118.12Y-60.2
M15
G01X118.12Y-60.8
M16
G05
G00X118.12Y-64.13
M15
G01X118.12Y-65.23
M16
G05
T0
M30
