M48
; DRILL file {KiCad (6.0.1)} date Sat Feb 18 19:59:15 2023
; FORMAT={-:-/ absolute / inch / decimal}
; #@! TF.CreationDate,2023-02-18T19:59:15-08:00
; #@! TF.GenerationSoftware,Kicad,Pcbnew,(6.0.1)
; #@! TF.FileFunction,Plated,1,2,PTH
FMAT,2
INCH
; #@! TA.AperFunction,Plated,PTH,ViaDrill
T1C0.0118
; #@! TA.AperFunction,Plated,PTH,ViaDrill
T2C0.0138
; #@! TA.AperFunction,Plated,PTH,ComponentDrill
T3C0.0138
; #@! TA.AperFunction,Plated,PTH,ComponentDrill
T4C0.0236
%
G90
G05
T1
X1.4937Y-4.9898
X1.8122Y-3.5106
X2.139Y-4.1457
X2.2055Y-5.4035
X2.2055Y-5.4508
X2.2055Y-5.5043
X2.2429Y-4.9902
X2.2429Y-5.7402
X2.2429Y-6.4906
X2.2429Y-7.2406
X2.2776Y-5.4031
X2.2776Y-5.4508
X2.278Y-5.5043
X2.5976Y-3.3713
X2.9264Y-4.0256
X3.3689Y-4.8028
X3.3689Y-5.5528
X3.3921Y-3.2854
X3.726Y-3.9551
X3.872Y-7.4748
X3.9008Y-7.502
X3.924Y-7.422
X3.9315Y-7.5276
X3.9539Y-7.4484
X3.9835Y-7.4772
X4.001Y-6.3986
X4.0138Y-3.5067
X4.0295Y-5.152
X4.037Y-5.9039
X4.0384Y-6.1703
X4.124Y-5.5528
X4.124Y-4.8028
X4.124Y-5.1161
X4.124Y-5.1878
X4.1311Y-4.3189
X4.1378Y-7.1978
X4.1512Y-4.2362
X4.1512Y-4.2732
X4.159Y-7.0026
X4.1598Y-7.0664
X4.16Y-7.1017
X4.1601Y-7.0349
X4.1894Y-3.2484
X4.222Y-4.2732
X4.2228Y-4.2358
X4.2234Y-6.7461
X4.2323Y-6.3199
X4.2425Y-4.3189
X4.2864Y-7.0492
X4.298Y-3.4681
X4.298Y-3.5461
X4.3337Y-6.628
X4.3346Y-2.8232
X4.3563Y-7.1329
X4.3929Y-7.3102
X4.4114Y-6.628
X4.4311Y-7.2431
X4.4331Y-4.2886
X4.4429Y-6.5246
X4.4734Y-7.5856
X4.5108Y-6.7126
X4.5157Y-6.5246
X4.5361Y-6.7499
X4.5445Y-4.2886
X4.5472Y-6.5659
X4.5502Y-2.7711
X4.5866Y-4.0138
X4.5935Y-2.8252
X4.622Y-6.5659
X4.6425Y-3.5067
X4.6461Y-5.152
X4.6492Y-5.9039
X4.6742Y-6.5217
X4.7421Y-6.753
X4.7618Y-6.5758
X4.8514Y-7.4892
X4.8709Y-4.8028
X4.8709Y-5.5528
X4.9478Y-7.1545
X4.9881Y-3.2355
X5.0587Y-6.9815
X5.0594Y-6.9488
X5.0594Y-7.0169
X5.1299Y-7.1264
X5.3043Y-3.9689
X5.6185Y-6.4902
X5.7852Y-3.3018
X5.8043Y-7.4122
X5.9028Y-7.3224
X5.9787Y-4.9902
X5.9787Y-5.7402
X6.0795Y-4.05
X6.3539Y-6.6776
X6.5713Y-3.3945
X6.7339Y-4.9902
X6.7339Y-5.7402
X6.8142Y-7.6772
X6.8146Y-7.335
X7.1059Y-6.6776
T2
X4.4675Y-6.877
X4.503Y-7.0551
T3
X4.4764Y-6.9222
X4.4764Y-6.9724
X4.4764Y-7.0226
X4.5266Y-6.9222
X4.5266Y-6.9724
X4.5266Y-7.0226
X4.5768Y-6.9222
X4.5768Y-6.9724
X4.5768Y-7.0226
T4
G00X4.3102Y-2.3701
M15
G01X4.3102Y-2.3937
M16
G05
G00X4.3102Y-2.5248
M15
G01X4.3102Y-2.5681
M16
G05
G00X4.6504Y-2.3701
M15
G01X4.6504Y-2.3937
M16
G05
G00X4.6504Y-2.5248
M15
G01X4.6504Y-2.5681
M16
G05
T0
M30
