%TF.GenerationSoftware,KiCad,Pcbnew,(6.0.1)*%
%TF.CreationDate,2023-02-18T19:59:14-08:00*%
%TF.ProjectId,StealthPad,53746561-6c74-4685-9061-642e6b696361,rev?*%
%TF.SameCoordinates,Original*%
%TF.FileFunction,Soldermask,Top*%
%TF.FilePolarity,Negative*%
%FSLAX46Y46*%
G04 Gerber Fmt 4.6, Leading zero omitted, Abs format (unit mm)*
G04 Created by KiCad (PCBNEW (6.0.1)) date 2023-02-18 19:59:14*
%MOMM*%
%LPD*%
G01*
G04 APERTURE LIST*
%ADD10C,2.950000*%
%ADD11C,1.700000*%
%ADD12C,3.980180*%
%ADD13C,0.650000*%
%ADD14O,1.000000X2.100000*%
%ADD15O,1.000000X1.600000*%
G04 APERTURE END LIST*
D10*
%TO.C,K21*%
X68680000Y-124210000D03*
D11*
X71220000Y-129290000D03*
D12*
X66140000Y-129290000D03*
D11*
X61060000Y-129290000D03*
D10*
X62330000Y-126750000D03*
%TD*%
D12*
%TO.C,K31*%
X66150000Y-148340000D03*
D10*
X62340000Y-145800000D03*
D11*
X61070000Y-148340000D03*
X71230000Y-148340000D03*
D10*
X68690000Y-143260000D03*
%TD*%
%TO.C,K02*%
X95885136Y-77954412D03*
D11*
X88589475Y-83490127D03*
X98730525Y-82869873D03*
D10*
X89702043Y-80877333D03*
D12*
X93660000Y-83180000D03*
%TD*%
D10*
%TO.C,K15*%
X166853543Y-102024345D03*
D11*
X158516058Y-105813428D03*
D12*
X163530000Y-106630000D03*
D11*
X168543942Y-107446572D03*
D10*
X160177830Y-103510600D03*
%TD*%
%TO.C,K12*%
X106164679Y-97600649D03*
D11*
X108867352Y-102596002D03*
D12*
X103790000Y-102760000D03*
D10*
X99899987Y-100344322D03*
D11*
X98712648Y-102923998D03*
%TD*%
D10*
%TO.C,K24*%
X135370000Y-119450000D03*
D12*
X132830000Y-124530000D03*
D10*
X129020000Y-121990000D03*
D11*
X127750000Y-124530000D03*
X137910000Y-124530000D03*
%TD*%
%TO.C,K00*%
X58714935Y-87144244D03*
X48725065Y-88995756D03*
D12*
X53720000Y-88070000D03*
D10*
X55291711Y-82612187D03*
X49510921Y-86266850D03*
%TD*%
%TO.C,K55*%
X152822500Y-188662500D03*
D11*
X151552500Y-191202500D03*
X161712500Y-191202500D03*
D12*
X156632500Y-191202500D03*
D10*
X159172500Y-186122500D03*
%TD*%
%TO.C,K06*%
X170576677Y-84878215D03*
D12*
X173860000Y-88070000D03*
D10*
X177283224Y-83537943D03*
D11*
X178854935Y-88995756D03*
X168865065Y-87144244D03*
%TD*%
D12*
%TO.C,K41*%
X66160000Y-167400000D03*
D11*
X61080000Y-167400000D03*
D10*
X62350000Y-164860000D03*
X68700000Y-162320000D03*
D11*
X71240000Y-167400000D03*
%TD*%
D12*
%TO.C,K36*%
X180460000Y-148340000D03*
D10*
X176650000Y-145800000D03*
X183000000Y-143260000D03*
D11*
X185540000Y-148340000D03*
X175380000Y-148340000D03*
%TD*%
%TO.C,K26*%
X185540000Y-129290000D03*
D10*
X176650000Y-126750000D03*
D11*
X175380000Y-129290000D03*
D10*
X183000000Y-124210000D03*
D12*
X180460000Y-129290000D03*
%TD*%
D10*
%TO.C,K51*%
X68680000Y-181370000D03*
D11*
X61060000Y-186450000D03*
D12*
X66140000Y-186450000D03*
D10*
X62330000Y-183910000D03*
D11*
X71220000Y-186450000D03*
%TD*%
D12*
%TO.C,K44*%
X151870000Y-167390000D03*
D10*
X148060000Y-164850000D03*
X154410000Y-162310000D03*
D11*
X146790000Y-167390000D03*
X156950000Y-167390000D03*
%TD*%
D10*
%TO.C,K22*%
X90920000Y-121990000D03*
X97270000Y-119450000D03*
D11*
X99810000Y-124530000D03*
X89650000Y-124530000D03*
D12*
X94730000Y-124530000D03*
%TD*%
D10*
%TO.C,K56*%
X176635000Y-188662500D03*
D12*
X180445000Y-191202500D03*
D10*
X182985000Y-186122500D03*
D11*
X185525000Y-191202500D03*
X175365000Y-191202500D03*
%TD*%
D10*
%TO.C,K20*%
X49650000Y-124200000D03*
D11*
X42030000Y-129280000D03*
D12*
X47110000Y-129280000D03*
D11*
X52190000Y-129280000D03*
D10*
X43300000Y-126740000D03*
%TD*%
D12*
%TO.C,K10*%
X64020000Y-106620000D03*
D11*
X69033942Y-105803428D03*
X59006058Y-107436572D03*
D10*
X59851258Y-104725458D03*
X65710399Y-101197772D03*
%TD*%
%TO.C,K04*%
X130242170Y-80392143D03*
D11*
X128819475Y-82849873D03*
D10*
X136735389Y-78244539D03*
D11*
X138960525Y-83470127D03*
D12*
X133890000Y-83160000D03*
%TD*%
D11*
%TO.C,K11*%
X88896186Y-103578691D03*
D10*
X79802206Y-101910389D03*
D12*
X83840000Y-104070000D03*
D10*
X85876784Y-98768160D03*
D11*
X78783814Y-104561309D03*
%TD*%
D10*
%TO.C,K33*%
X116320000Y-138500000D03*
D11*
X108700000Y-143580000D03*
D10*
X109970000Y-141040000D03*
D11*
X118860000Y-143580000D03*
D12*
X113780000Y-143580000D03*
%TD*%
D10*
%TO.C,K03*%
X109960000Y-80020000D03*
D11*
X108690000Y-82560000D03*
D12*
X113770000Y-82560000D03*
D10*
X116310000Y-77480000D03*
D11*
X118850000Y-82560000D03*
%TD*%
%TO.C,K23*%
X118860000Y-124530000D03*
D10*
X116320000Y-119450000D03*
D12*
X113780000Y-124530000D03*
D11*
X108700000Y-124530000D03*
D10*
X109970000Y-121990000D03*
%TD*%
D11*
%TO.C,K32*%
X99810000Y-143580000D03*
D10*
X90920000Y-141040000D03*
D12*
X94730000Y-143580000D03*
D11*
X89650000Y-143580000D03*
D10*
X97270000Y-138500000D03*
%TD*%
%TO.C,K46*%
X186160000Y-169612500D03*
D12*
X189970000Y-172152500D03*
D11*
X195050000Y-172152500D03*
D10*
X192510000Y-167072500D03*
D11*
X184890000Y-172152500D03*
%TD*%
D10*
%TO.C,K45*%
X173460000Y-167072500D03*
X167110000Y-169612500D03*
D12*
X170920000Y-172152500D03*
D11*
X176000000Y-172152500D03*
X165840000Y-172152500D03*
%TD*%
%TO.C,K01*%
X78632134Y-84400904D03*
D12*
X73590000Y-85020000D03*
D11*
X68547866Y-85639096D03*
D10*
X69498851Y-82963255D03*
X75491971Y-79668317D03*
%TD*%
D11*
%TO.C,K25*%
X156330000Y-129290000D03*
D10*
X157600000Y-126750000D03*
D12*
X161410000Y-129290000D03*
D11*
X166490000Y-129290000D03*
D10*
X163950000Y-124210000D03*
%TD*%
D12*
%TO.C,K34*%
X132830000Y-143580000D03*
D11*
X137910000Y-143580000D03*
D10*
X135370000Y-138500000D03*
X129020000Y-141040000D03*
D11*
X127750000Y-143580000D03*
%TD*%
D10*
%TO.C,K35*%
X163950000Y-143260000D03*
D12*
X161410000Y-148340000D03*
D10*
X157600000Y-145800000D03*
D11*
X166490000Y-148340000D03*
X156330000Y-148340000D03*
%TD*%
D12*
%TO.C,K05*%
X153940000Y-85030000D03*
D11*
X148897866Y-84410904D03*
D10*
X157080163Y-80297414D03*
X150467947Y-82044611D03*
D11*
X158982134Y-85649096D03*
%TD*%
D10*
%TO.C,K13*%
X120053985Y-100098326D03*
D11*
X128857352Y-102923998D03*
D12*
X123780000Y-102760000D03*
D11*
X118702648Y-102596002D03*
D10*
X126482674Y-97764647D03*
%TD*%
D11*
%TO.C,K14*%
X138663814Y-103558691D03*
X148776186Y-104541309D03*
D10*
X146739402Y-99239469D03*
D12*
X143720000Y-104050000D03*
D10*
X140173515Y-101153425D03*
%TD*%
D13*
%TO.C,J1*%
X116690000Y-64150000D03*
X110910000Y-64150000D03*
D14*
X118120000Y-64680000D03*
D15*
X118120000Y-60500000D03*
X109480000Y-60500000D03*
D14*
X109480000Y-64680000D03*
%TD*%
M02*
