%TF.GenerationSoftware,KiCad,Pcbnew,(6.0.1)*%
%TF.CreationDate,2023-02-18T19:59:14-08:00*%
%TF.ProjectId,StealthPad,53746561-6c74-4685-9061-642e6b696361,rev?*%
%TF.SameCoordinates,Original*%
%TF.FileFunction,Legend,Top*%
%TF.FilePolarity,Positive*%
%FSLAX46Y46*%
G04 Gerber Fmt 4.6, Leading zero omitted, Abs format (unit mm)*
G04 Created by KiCad (PCBNEW (6.0.1)) date 2023-02-18 19:59:14*
%MOMM*%
%LPD*%
G01*
G04 APERTURE LIST*
%ADD10C,0.250000*%
%ADD11C,0.380000*%
%ADD12C,0.635000*%
%ADD13C,2.950000*%
%ADD14C,1.700000*%
%ADD15C,3.980180*%
%ADD16C,0.650000*%
%ADD17O,1.000000X2.100000*%
%ADD18O,1.000000X1.600000*%
G04 APERTURE END LIST*
D10*
X135599642Y-63963571D02*
X135599642Y-62463571D01*
X136099642Y-63535000D01*
X136599642Y-62463571D01*
X136599642Y-63963571D01*
X137956785Y-63963571D02*
X137956785Y-63177857D01*
X137885357Y-63035000D01*
X137742500Y-62963571D01*
X137456785Y-62963571D01*
X137313928Y-63035000D01*
X137956785Y-63892142D02*
X137813928Y-63963571D01*
X137456785Y-63963571D01*
X137313928Y-63892142D01*
X137242500Y-63749285D01*
X137242500Y-63606428D01*
X137313928Y-63463571D01*
X137456785Y-63392142D01*
X137813928Y-63392142D01*
X137956785Y-63320714D01*
X138456785Y-62963571D02*
X139028214Y-62963571D01*
X138671071Y-62463571D02*
X138671071Y-63749285D01*
X138742500Y-63892142D01*
X138885357Y-63963571D01*
X139028214Y-63963571D01*
X140171071Y-63892142D02*
X140028214Y-63963571D01*
X139742500Y-63963571D01*
X139599642Y-63892142D01*
X139528214Y-63820714D01*
X139456785Y-63677857D01*
X139456785Y-63249285D01*
X139528214Y-63106428D01*
X139599642Y-63035000D01*
X139742500Y-62963571D01*
X140028214Y-62963571D01*
X140171071Y-63035000D01*
X140813928Y-63963571D02*
X140813928Y-62463571D01*
X141456785Y-63963571D02*
X141456785Y-63177857D01*
X141385357Y-63035000D01*
X141242500Y-62963571D01*
X141028214Y-62963571D01*
X140885357Y-63035000D01*
X140813928Y-63106428D01*
X142099642Y-63892142D02*
X142242500Y-63963571D01*
X142528214Y-63963571D01*
X142671071Y-63892142D01*
X142742500Y-63749285D01*
X142742500Y-63677857D01*
X142671071Y-63535000D01*
X142528214Y-63463571D01*
X142313928Y-63463571D01*
X142171071Y-63392142D01*
X142099642Y-63249285D01*
X142099642Y-63177857D01*
X142171071Y-63035000D01*
X142313928Y-62963571D01*
X142528214Y-62963571D01*
X142671071Y-63035000D01*
X143171071Y-62963571D02*
X143742500Y-62963571D01*
X143385357Y-62463571D02*
X143385357Y-63749285D01*
X143456785Y-63892142D01*
X143599642Y-63963571D01*
X143742500Y-63963571D01*
X144242500Y-63963571D02*
X144242500Y-62963571D01*
X144242500Y-62463571D02*
X144171071Y-62535000D01*
X144242500Y-62606428D01*
X144313928Y-62535000D01*
X144242500Y-62463571D01*
X144242500Y-62606428D01*
X145599642Y-63892142D02*
X145456785Y-63963571D01*
X145171071Y-63963571D01*
X145028214Y-63892142D01*
X144956785Y-63820714D01*
X144885357Y-63677857D01*
X144885357Y-63249285D01*
X144956785Y-63106428D01*
X145028214Y-63035000D01*
X145171071Y-62963571D01*
X145456785Y-62963571D01*
X145599642Y-63035000D01*
X146242500Y-63963571D02*
X146242500Y-62463571D01*
X146385357Y-63392142D02*
X146813928Y-63963571D01*
X146813928Y-62963571D02*
X146242500Y-63535000D01*
X147313928Y-62463571D02*
X147671071Y-63963571D01*
X147956785Y-62892142D01*
X148242500Y-63963571D01*
X148599642Y-62463571D01*
X149385357Y-63963571D02*
X149242500Y-63892142D01*
X149171071Y-63820714D01*
X149099642Y-63677857D01*
X149099642Y-63249285D01*
X149171071Y-63106428D01*
X149242500Y-63035000D01*
X149385357Y-62963571D01*
X149599642Y-62963571D01*
X149742500Y-63035000D01*
X149813928Y-63106428D01*
X149885357Y-63249285D01*
X149885357Y-63677857D01*
X149813928Y-63820714D01*
X149742500Y-63892142D01*
X149599642Y-63963571D01*
X149385357Y-63963571D01*
X150528214Y-63963571D02*
X150528214Y-62963571D01*
X150528214Y-63249285D02*
X150599642Y-63106428D01*
X150671071Y-63035000D01*
X150813928Y-62963571D01*
X150956785Y-62963571D01*
X151456785Y-63963571D02*
X151456785Y-62463571D01*
X151599642Y-63392142D02*
X152028214Y-63963571D01*
X152028214Y-62963571D02*
X151456785Y-63535000D01*
X152599642Y-63892142D02*
X152742500Y-63963571D01*
X153028214Y-63963571D01*
X153171071Y-63892142D01*
X153242500Y-63749285D01*
X153242500Y-63677857D01*
X153171071Y-63535000D01*
X153028214Y-63463571D01*
X152813928Y-63463571D01*
X152671071Y-63392142D01*
X152599642Y-63249285D01*
X152599642Y-63177857D01*
X152671071Y-63035000D01*
X152813928Y-62963571D01*
X153028214Y-62963571D01*
X153171071Y-63035000D01*
X135528214Y-66307142D02*
X135742500Y-66378571D01*
X136099642Y-66378571D01*
X136242500Y-66307142D01*
X136313928Y-66235714D01*
X136385357Y-66092857D01*
X136385357Y-65950000D01*
X136313928Y-65807142D01*
X136242500Y-65735714D01*
X136099642Y-65664285D01*
X135813928Y-65592857D01*
X135671071Y-65521428D01*
X135599642Y-65450000D01*
X135528214Y-65307142D01*
X135528214Y-65164285D01*
X135599642Y-65021428D01*
X135671071Y-64950000D01*
X135813928Y-64878571D01*
X136171071Y-64878571D01*
X136385357Y-64950000D01*
X136813928Y-65378571D02*
X137385357Y-65378571D01*
X137028214Y-64878571D02*
X137028214Y-66164285D01*
X137099642Y-66307142D01*
X137242500Y-66378571D01*
X137385357Y-66378571D01*
X138456785Y-66307142D02*
X138313928Y-66378571D01*
X138028214Y-66378571D01*
X137885357Y-66307142D01*
X137813928Y-66164285D01*
X137813928Y-65592857D01*
X137885357Y-65450000D01*
X138028214Y-65378571D01*
X138313928Y-65378571D01*
X138456785Y-65450000D01*
X138528214Y-65592857D01*
X138528214Y-65735714D01*
X137813928Y-65878571D01*
X139813928Y-66378571D02*
X139813928Y-65592857D01*
X139742500Y-65450000D01*
X139599642Y-65378571D01*
X139313928Y-65378571D01*
X139171071Y-65450000D01*
X139813928Y-66307142D02*
X139671071Y-66378571D01*
X139313928Y-66378571D01*
X139171071Y-66307142D01*
X139099642Y-66164285D01*
X139099642Y-66021428D01*
X139171071Y-65878571D01*
X139313928Y-65807142D01*
X139671071Y-65807142D01*
X139813928Y-65735714D01*
X140742500Y-66378571D02*
X140599642Y-66307142D01*
X140528214Y-66164285D01*
X140528214Y-64878571D01*
X141099642Y-65378571D02*
X141671071Y-65378571D01*
X141313928Y-64878571D02*
X141313928Y-66164285D01*
X141385357Y-66307142D01*
X141528214Y-66378571D01*
X141671071Y-66378571D01*
X142171071Y-66378571D02*
X142171071Y-64878571D01*
X142813928Y-66378571D02*
X142813928Y-65592857D01*
X142742500Y-65450000D01*
X142599642Y-65378571D01*
X142385357Y-65378571D01*
X142242500Y-65450000D01*
X142171071Y-65521428D01*
X143528214Y-66378571D02*
X143528214Y-64878571D01*
X144099642Y-64878571D01*
X144242500Y-64950000D01*
X144313928Y-65021428D01*
X144385357Y-65164285D01*
X144385357Y-65378571D01*
X144313928Y-65521428D01*
X144242500Y-65592857D01*
X144099642Y-65664285D01*
X143528214Y-65664285D01*
X145671071Y-66378571D02*
X145671071Y-65592857D01*
X145599642Y-65450000D01*
X145456785Y-65378571D01*
X145171071Y-65378571D01*
X145028214Y-65450000D01*
X145671071Y-66307142D02*
X145528214Y-66378571D01*
X145171071Y-66378571D01*
X145028214Y-66307142D01*
X144956785Y-66164285D01*
X144956785Y-66021428D01*
X145028214Y-65878571D01*
X145171071Y-65807142D01*
X145528214Y-65807142D01*
X145671071Y-65735714D01*
X147028214Y-66378571D02*
X147028214Y-64878571D01*
X147028214Y-66307142D02*
X146885357Y-66378571D01*
X146599642Y-66378571D01*
X146456785Y-66307142D01*
X146385357Y-66235714D01*
X146313928Y-66092857D01*
X146313928Y-65664285D01*
X146385357Y-65521428D01*
X146456785Y-65450000D01*
X146599642Y-65378571D01*
X146885357Y-65378571D01*
X147028214Y-65450000D01*
X135456785Y-67793571D02*
X135813928Y-68793571D01*
X136171071Y-67793571D01*
X137028214Y-67293571D02*
X137171071Y-67293571D01*
X137313928Y-67365000D01*
X137385357Y-67436428D01*
X137456785Y-67579285D01*
X137528214Y-67865000D01*
X137528214Y-68222142D01*
X137456785Y-68507857D01*
X137385357Y-68650714D01*
X137313928Y-68722142D01*
X137171071Y-68793571D01*
X137028214Y-68793571D01*
X136885357Y-68722142D01*
X136813928Y-68650714D01*
X136742500Y-68507857D01*
X136671071Y-68222142D01*
X136671071Y-67865000D01*
X136742500Y-67579285D01*
X136813928Y-67436428D01*
X136885357Y-67365000D01*
X137028214Y-67293571D01*
X138171071Y-68650714D02*
X138242500Y-68722142D01*
X138171071Y-68793571D01*
X138099642Y-68722142D01*
X138171071Y-68650714D01*
X138171071Y-68793571D01*
X139671071Y-68793571D02*
X138813928Y-68793571D01*
X139242500Y-68793571D02*
X139242500Y-67293571D01*
X139099642Y-67507857D01*
X138956785Y-67650714D01*
X138813928Y-67722142D01*
D11*
%TO.C,REF\u002A\u002A*%
X127880000Y-60700000D02*
X127880000Y-61900000D01*
X127880000Y-70700000D02*
X127880000Y-69500000D01*
X127880000Y-69500000D02*
G75*
G03*
X130447768Y-67816497I0J2800000D01*
G01*
X122880000Y-66800000D02*
G75*
G03*
X132834422Y-66989845I5000000J1100000D01*
G01*
X132880000Y-64600000D02*
G75*
G03*
X122925578Y-64410155I-5000000J-1100000D01*
G01*
X127880000Y-61900000D02*
G75*
G03*
X125312232Y-63583503I0J-2800000D01*
G01*
D12*
X134130000Y-65700000D02*
G75*
G03*
X134130000Y-65700000I-6250000J0D01*
G01*
%TD*%
%LPC*%
D13*
%TO.C,K21*%
X68680000Y-124210000D03*
D14*
X71220000Y-129290000D03*
D15*
X66140000Y-129290000D03*
D14*
X61060000Y-129290000D03*
D13*
X62330000Y-126750000D03*
%TD*%
D15*
%TO.C,K31*%
X66150000Y-148340000D03*
D13*
X62340000Y-145800000D03*
D14*
X61070000Y-148340000D03*
X71230000Y-148340000D03*
D13*
X68690000Y-143260000D03*
%TD*%
%TO.C,K02*%
X95885136Y-77954412D03*
D14*
X88589475Y-83490127D03*
X98730525Y-82869873D03*
D13*
X89702043Y-80877333D03*
D15*
X93660000Y-83180000D03*
%TD*%
D13*
%TO.C,K15*%
X166853543Y-102024345D03*
D14*
X158516058Y-105813428D03*
D15*
X163530000Y-106630000D03*
D14*
X168543942Y-107446572D03*
D13*
X160177830Y-103510600D03*
%TD*%
%TO.C,K12*%
X106164679Y-97600649D03*
D14*
X108867352Y-102596002D03*
D15*
X103790000Y-102760000D03*
D13*
X99899987Y-100344322D03*
D14*
X98712648Y-102923998D03*
%TD*%
D13*
%TO.C,K24*%
X135370000Y-119450000D03*
D15*
X132830000Y-124530000D03*
D13*
X129020000Y-121990000D03*
D14*
X127750000Y-124530000D03*
X137910000Y-124530000D03*
%TD*%
%TO.C,K00*%
X58714935Y-87144244D03*
X48725065Y-88995756D03*
D15*
X53720000Y-88070000D03*
D13*
X55291711Y-82612187D03*
X49510921Y-86266850D03*
%TD*%
%TO.C,K55*%
X152822500Y-188662500D03*
D14*
X151552500Y-191202500D03*
X161712500Y-191202500D03*
D15*
X156632500Y-191202500D03*
D13*
X159172500Y-186122500D03*
%TD*%
%TO.C,K06*%
X170576677Y-84878215D03*
D15*
X173860000Y-88070000D03*
D13*
X177283224Y-83537943D03*
D14*
X178854935Y-88995756D03*
X168865065Y-87144244D03*
%TD*%
D15*
%TO.C,K41*%
X66160000Y-167400000D03*
D14*
X61080000Y-167400000D03*
D13*
X62350000Y-164860000D03*
X68700000Y-162320000D03*
D14*
X71240000Y-167400000D03*
%TD*%
D15*
%TO.C,K36*%
X180460000Y-148340000D03*
D13*
X176650000Y-145800000D03*
X183000000Y-143260000D03*
D14*
X185540000Y-148340000D03*
X175380000Y-148340000D03*
%TD*%
%TO.C,K26*%
X185540000Y-129290000D03*
D13*
X176650000Y-126750000D03*
D14*
X175380000Y-129290000D03*
D13*
X183000000Y-124210000D03*
D15*
X180460000Y-129290000D03*
%TD*%
D13*
%TO.C,K51*%
X68680000Y-181370000D03*
D14*
X61060000Y-186450000D03*
D15*
X66140000Y-186450000D03*
D13*
X62330000Y-183910000D03*
D14*
X71220000Y-186450000D03*
%TD*%
D15*
%TO.C,K44*%
X151870000Y-167390000D03*
D13*
X148060000Y-164850000D03*
X154410000Y-162310000D03*
D14*
X146790000Y-167390000D03*
X156950000Y-167390000D03*
%TD*%
D13*
%TO.C,K22*%
X90920000Y-121990000D03*
X97270000Y-119450000D03*
D14*
X99810000Y-124530000D03*
X89650000Y-124530000D03*
D15*
X94730000Y-124530000D03*
%TD*%
D13*
%TO.C,K56*%
X176635000Y-188662500D03*
D15*
X180445000Y-191202500D03*
D13*
X182985000Y-186122500D03*
D14*
X185525000Y-191202500D03*
X175365000Y-191202500D03*
%TD*%
D13*
%TO.C,K20*%
X49650000Y-124200000D03*
D14*
X42030000Y-129280000D03*
D15*
X47110000Y-129280000D03*
D14*
X52190000Y-129280000D03*
D13*
X43300000Y-126740000D03*
%TD*%
D15*
%TO.C,K10*%
X64020000Y-106620000D03*
D14*
X69033942Y-105803428D03*
X59006058Y-107436572D03*
D13*
X59851258Y-104725458D03*
X65710399Y-101197772D03*
%TD*%
%TO.C,K04*%
X130242170Y-80392143D03*
D14*
X128819475Y-82849873D03*
D13*
X136735389Y-78244539D03*
D14*
X138960525Y-83470127D03*
D15*
X133890000Y-83160000D03*
%TD*%
D14*
%TO.C,K11*%
X88896186Y-103578691D03*
D13*
X79802206Y-101910389D03*
D15*
X83840000Y-104070000D03*
D13*
X85876784Y-98768160D03*
D14*
X78783814Y-104561309D03*
%TD*%
D13*
%TO.C,K33*%
X116320000Y-138500000D03*
D14*
X108700000Y-143580000D03*
D13*
X109970000Y-141040000D03*
D14*
X118860000Y-143580000D03*
D15*
X113780000Y-143580000D03*
%TD*%
D13*
%TO.C,K03*%
X109960000Y-80020000D03*
D14*
X108690000Y-82560000D03*
D15*
X113770000Y-82560000D03*
D13*
X116310000Y-77480000D03*
D14*
X118850000Y-82560000D03*
%TD*%
%TO.C,K23*%
X118860000Y-124530000D03*
D13*
X116320000Y-119450000D03*
D15*
X113780000Y-124530000D03*
D14*
X108700000Y-124530000D03*
D13*
X109970000Y-121990000D03*
%TD*%
D14*
%TO.C,K32*%
X99810000Y-143580000D03*
D13*
X90920000Y-141040000D03*
D15*
X94730000Y-143580000D03*
D14*
X89650000Y-143580000D03*
D13*
X97270000Y-138500000D03*
%TD*%
%TO.C,K46*%
X186160000Y-169612500D03*
D15*
X189970000Y-172152500D03*
D14*
X195050000Y-172152500D03*
D13*
X192510000Y-167072500D03*
D14*
X184890000Y-172152500D03*
%TD*%
D13*
%TO.C,K45*%
X173460000Y-167072500D03*
X167110000Y-169612500D03*
D15*
X170920000Y-172152500D03*
D14*
X176000000Y-172152500D03*
X165840000Y-172152500D03*
%TD*%
%TO.C,K01*%
X78632134Y-84400904D03*
D15*
X73590000Y-85020000D03*
D14*
X68547866Y-85639096D03*
D13*
X69498851Y-82963255D03*
X75491971Y-79668317D03*
%TD*%
D14*
%TO.C,K25*%
X156330000Y-129290000D03*
D13*
X157600000Y-126750000D03*
D15*
X161410000Y-129290000D03*
D14*
X166490000Y-129290000D03*
D13*
X163950000Y-124210000D03*
%TD*%
D15*
%TO.C,K34*%
X132830000Y-143580000D03*
D14*
X137910000Y-143580000D03*
D13*
X135370000Y-138500000D03*
X129020000Y-141040000D03*
D14*
X127750000Y-143580000D03*
%TD*%
D13*
%TO.C,K35*%
X163950000Y-143260000D03*
D15*
X161410000Y-148340000D03*
D13*
X157600000Y-145800000D03*
D14*
X166490000Y-148340000D03*
X156330000Y-148340000D03*
%TD*%
D15*
%TO.C,K05*%
X153940000Y-85030000D03*
D14*
X148897866Y-84410904D03*
D13*
X157080163Y-80297414D03*
X150467947Y-82044611D03*
D14*
X158982134Y-85649096D03*
%TD*%
D13*
%TO.C,K13*%
X120053985Y-100098326D03*
D14*
X128857352Y-102923998D03*
D15*
X123780000Y-102760000D03*
D14*
X118702648Y-102596002D03*
D13*
X126482674Y-97764647D03*
%TD*%
D14*
%TO.C,K14*%
X138663814Y-103558691D03*
X148776186Y-104541309D03*
D13*
X146739402Y-99239469D03*
D15*
X143720000Y-104050000D03*
D13*
X140173515Y-101153425D03*
%TD*%
D16*
%TO.C,J1*%
X116690000Y-64150000D03*
X110910000Y-64150000D03*
D17*
X118120000Y-64680000D03*
D18*
X118120000Y-60500000D03*
X109480000Y-60500000D03*
D17*
X109480000Y-64680000D03*
%TD*%
M02*
