M48
; DRILL file {KiCad (6.0.1)} date Sat Feb 18 19:59:15 2023
; FORMAT={-:-/ absolute / inch / decimal}
; #@! TF.CreationDate,2023-02-18T19:59:15-08:00
; #@! TF.GenerationSoftware,Kicad,Pcbnew,(6.0.1)
; #@! TF.FileFunction,NonPlated,1,2,NPTH
FMAT,2
INCH
; #@! TA.AperFunction,NonPlated,NPTH,ComponentDrill
T1C0.0256
; #@! TA.AperFunction,NonPlated,NPTH,ComponentDrill
T2C0.0669
; #@! TA.AperFunction,NonPlated,NPTH,ComponentDrill
T3C0.1161
; #@! TA.AperFunction,NonPlated,NPTH,ComponentDrill
T4C0.1567
%
G90
G05
T1
X4.3665Y-2.5256
X4.5941Y-2.5256
T2
X1.6547Y-5.0898
X1.9183Y-3.5038
X2.0547Y-5.0898
X2.3116Y-3.4309
X2.3231Y-4.2298
X2.4039Y-5.0902
X2.4039Y-7.3406
X2.4043Y-5.8402
X2.4047Y-6.5906
X2.6987Y-3.3716
X2.7179Y-4.1655
X2.8039Y-5.0902
X2.8039Y-7.3406
X2.8043Y-5.8402
X2.8047Y-6.5906
X3.0958Y-3.3229
X3.1017Y-4.1166
X3.4878Y-3.287
X3.4998Y-4.0779
X3.5295Y-4.9028
X3.5295Y-5.6528
X3.8863Y-4.0521
X3.887Y-3.2626
X3.9295Y-4.9028
X3.9295Y-5.6528
X4.2791Y-3.2504
X4.2795Y-4.9028
X4.2795Y-5.6528
X4.2861Y-4.0392
X4.6733Y-4.0392
X4.6791Y-3.2504
X4.6795Y-4.9028
X4.6795Y-5.6528
X5.0295Y-4.9028
X5.0295Y-5.6528
X5.0716Y-3.2618
X5.0731Y-4.0521
X5.4295Y-4.9028
X5.4295Y-5.6528
X5.4592Y-4.0771
X5.4709Y-3.2862
X5.7791Y-6.5902
X5.8573Y-4.1158
X5.8621Y-3.3233
X5.9666Y-7.5277
X6.1547Y-5.0902
X6.1547Y-5.8402
X6.1791Y-6.5902
X6.2408Y-4.1659
X6.2591Y-3.372
X6.3666Y-7.5277
X6.5291Y-6.7777
X6.5547Y-5.0902
X6.5547Y-5.8402
X6.6356Y-4.2302
X6.6482Y-3.4309
X6.9041Y-7.5277
X6.9047Y-5.0902
X6.9047Y-5.8402
X6.9291Y-6.7777
X7.0415Y-3.5038
X7.2791Y-6.7777
X7.3041Y-7.5277
X7.3047Y-5.0902
X7.3047Y-5.8402
X7.6791Y-6.7777
T3
X1.7047Y-4.9898
X1.9492Y-3.3963
X1.9547Y-4.8898
X2.1768Y-3.2524
X2.3563Y-4.123
X2.4539Y-4.9902
X2.4539Y-7.2406
X2.4543Y-5.7402
X2.4547Y-6.4906
X2.587Y-3.9842
X2.7039Y-4.8902
X2.7039Y-7.1406
X2.7043Y-5.6402
X2.7047Y-6.3906
X2.7362Y-3.2663
X2.9721Y-3.1365
X3.1418Y-4.0122
X3.381Y-3.8885
X3.5316Y-3.1841
X3.5795Y-4.8028
X3.5795Y-5.5528
X3.775Y-3.0691
X3.8295Y-4.7028
X3.8295Y-5.4528
X3.9331Y-3.9506
X4.1797Y-3.8425
X4.3291Y-3.1504
X4.3295Y-4.8028
X4.3295Y-5.5528
X4.5791Y-3.0504
X4.5795Y-4.7028
X4.5795Y-5.4528
X4.7265Y-3.9409
X4.9796Y-3.849
X5.0795Y-4.8028
X5.0795Y-5.5528
X5.1276Y-3.165
X5.3295Y-4.7028
X5.3295Y-5.4528
X5.3833Y-3.0805
X5.5186Y-3.9824
X5.7771Y-3.9071
X5.8291Y-6.4902
X5.9239Y-3.2301
X6.0166Y-7.4277
X6.0791Y-6.3902
X6.1843Y-3.1613
X6.2047Y-4.9902
X6.2047Y-5.7402
X6.2666Y-7.3277
X6.3062Y-4.0752
X6.4547Y-4.8902
X6.4547Y-5.6402
X6.569Y-4.0167
X6.5791Y-6.6777
X6.7156Y-3.3417
X6.8291Y-6.5777
X6.9541Y-7.4277
X6.9547Y-4.9902
X6.9547Y-5.7402
X6.9797Y-3.2889
X7.2041Y-7.3277
X7.2047Y-4.8902
X7.2047Y-5.6402
X7.3291Y-6.6777
X7.5791Y-6.5777
T4
X1.8547Y-5.0898
X2.115Y-3.4673
X2.5205Y-4.1976
X2.6039Y-5.0902
X2.6039Y-7.3406
X2.6043Y-5.8402
X2.6047Y-6.5906
X2.8972Y-3.3472
X3.3008Y-4.0972
X3.6874Y-3.2748
X3.7295Y-4.9028
X3.7295Y-5.6528
X4.0862Y-4.0457
X4.4791Y-3.2504
X4.4795Y-4.9028
X4.4795Y-5.6528
X4.8732Y-4.0457
X5.2295Y-4.9028
X5.2295Y-5.6528
X5.2713Y-3.274
X5.6583Y-4.0965
X5.9791Y-6.5902
X6.0606Y-3.3476
X6.1666Y-7.5277
X6.3547Y-5.0902
X6.3547Y-5.8402
X6.4382Y-4.198
X6.7291Y-6.7777
X6.8449Y-3.4673
X7.1041Y-7.5277
X7.1047Y-5.0902
X7.1047Y-5.8402
X7.4791Y-6.7777
T0
M30
