%TF.GenerationSoftware,KiCad,Pcbnew,(6.0.1)*%
%TF.CreationDate,2023-02-18T19:59:15-08:00*%
%TF.ProjectId,StealthPad,53746561-6c74-4685-9061-642e6b696361,rev?*%
%TF.SameCoordinates,Original*%
%TF.FileFunction,Soldermask,Bot*%
%TF.FilePolarity,Negative*%
%FSLAX46Y46*%
G04 Gerber Fmt 4.6, Leading zero omitted, Abs format (unit mm)*
G04 Created by KiCad (PCBNEW (6.0.1)) date 2023-02-18 19:59:15*
%MOMM*%
%LPD*%
G01*
G04 APERTURE LIST*
G04 Aperture macros list*
%AMRoundRect*
0 Rectangle with rounded corners*
0 $1 Rounding radius*
0 $2 $3 $4 $5 $6 $7 $8 $9 X,Y pos of 4 corners*
0 Add a 4 corners polygon primitive as box body*
4,1,4,$2,$3,$4,$5,$6,$7,$8,$9,$2,$3,0*
0 Add four circle primitives for the rounded corners*
1,1,$1+$1,$2,$3*
1,1,$1+$1,$4,$5*
1,1,$1+$1,$6,$7*
1,1,$1+$1,$8,$9*
0 Add four rect primitives between the rounded corners*
20,1,$1+$1,$2,$3,$4,$5,0*
20,1,$1+$1,$4,$5,$6,$7,0*
20,1,$1+$1,$6,$7,$8,$9,0*
20,1,$1+$1,$8,$9,$2,$3,0*%
%AMRotRect*
0 Rectangle, with rotation*
0 The origin of the aperture is its center*
0 $1 length*
0 $2 width*
0 $3 Rotation angle, in degrees counterclockwise*
0 Add horizontal line*
21,1,$1,$2,0,0,$3*%
G04 Aperture macros list end*
%ADD10R,1.200000X0.900000*%
%ADD11C,2.950000*%
%ADD12C,1.700000*%
%ADD13C,3.980180*%
%ADD14R,2.550000X2.500000*%
%ADD15RoundRect,0.225000X0.250000X-0.225000X0.250000X0.225000X-0.250000X0.225000X-0.250000X-0.225000X0*%
%ADD16RoundRect,0.200000X0.275000X-0.200000X0.275000X0.200000X-0.275000X0.200000X-0.275000X-0.200000X0*%
%ADD17RoundRect,0.150000X0.150000X-0.587500X0.150000X0.587500X-0.150000X0.587500X-0.150000X-0.587500X0*%
%ADD18RoundRect,0.200000X-0.275000X0.200000X-0.275000X-0.200000X0.275000X-0.200000X0.275000X0.200000X0*%
%ADD19RoundRect,0.150000X0.150000X-0.512500X0.150000X0.512500X-0.150000X0.512500X-0.150000X-0.512500X0*%
%ADD20RotRect,2.550000X2.500000X183.500000*%
%ADD21R,0.998220X0.698500*%
%ADD22RotRect,2.550000X2.500000X170.750000*%
%ADD23RotRect,2.550000X2.500000X181.850000*%
%ADD24RoundRect,0.225000X-0.250000X0.225000X-0.250000X-0.225000X0.250000X-0.225000X0.250000X0.225000X0*%
%ADD25RotRect,2.550000X2.500000X190.500000*%
%ADD26RoundRect,0.225000X-0.225000X-0.250000X0.225000X-0.250000X0.225000X0.250000X-0.225000X0.250000X0*%
%ADD27R,1.400000X1.200000*%
%ADD28RotRect,2.550000X2.500000X169.500000*%
%ADD29RoundRect,0.225000X0.225000X0.250000X-0.225000X0.250000X-0.225000X-0.250000X0.225000X-0.250000X0*%
%ADD30RoundRect,0.225000X-0.017678X0.335876X-0.335876X0.017678X0.017678X-0.335876X0.335876X-0.017678X0*%
%ADD31RotRect,2.550000X2.500000X189.250000*%
%ADD32RotRect,2.550000X2.500000X176.500000*%
%ADD33RoundRect,0.150000X-0.150000X0.650000X-0.150000X-0.650000X0.150000X-0.650000X0.150000X0.650000X0*%
%ADD34RotRect,2.550000X2.500000X185.550000*%
%ADD35RoundRect,0.250000X-0.625000X0.375000X-0.625000X-0.375000X0.625000X-0.375000X0.625000X0.375000X0*%
%ADD36RotRect,2.550000X2.500000X187.000000*%
%ADD37RoundRect,0.200000X-0.200000X-0.275000X0.200000X-0.275000X0.200000X0.275000X-0.200000X0.275000X0*%
%ADD38RoundRect,0.050000X0.387500X0.050000X-0.387500X0.050000X-0.387500X-0.050000X0.387500X-0.050000X0*%
%ADD39RoundRect,0.050000X0.050000X0.387500X-0.050000X0.387500X-0.050000X-0.387500X0.050000X-0.387500X0*%
%ADD40RoundRect,0.144000X1.456000X1.456000X-1.456000X1.456000X-1.456000X-1.456000X1.456000X-1.456000X0*%
%ADD41RotRect,2.550000X2.500000X173.000000*%
%ADD42RotRect,2.550000X2.500000X178.150000*%
%ADD43RotRect,2.550000X2.500000X174.450000*%
%ADD44C,0.650000*%
%ADD45R,0.600000X1.450000*%
%ADD46R,0.300000X1.450000*%
%ADD47O,1.000000X2.100000*%
%ADD48O,1.000000X1.600000*%
%ADD49RoundRect,0.225000X-0.335876X-0.017678X-0.017678X-0.335876X0.335876X0.017678X0.017678X0.335876X0*%
G04 APERTURE END LIST*
D10*
%TO.C,D12*%
X109900000Y-108930000D03*
X109900000Y-105630000D03*
%TD*%
D11*
%TO.C,K21*%
X68680000Y-124210000D03*
D12*
X71220000Y-129290000D03*
D13*
X66140000Y-129290000D03*
D12*
X61060000Y-129290000D03*
D11*
X62330000Y-126750000D03*
D14*
X58780000Y-126750000D03*
X72230000Y-124210000D03*
%TD*%
D15*
%TO.C,C2*%
X114900000Y-192675000D03*
X114900000Y-191125000D03*
%TD*%
D16*
%TO.C,R6*%
X113000000Y-164025000D03*
X113000000Y-162375000D03*
%TD*%
D17*
%TO.C,U4*%
X106325000Y-160537500D03*
X104425000Y-160537500D03*
X105375000Y-158662500D03*
%TD*%
D18*
%TO.C,R5*%
X114550000Y-162375000D03*
X114550000Y-164025000D03*
%TD*%
D10*
%TO.C,D14*%
X148860000Y-111060000D03*
X148860000Y-107760000D03*
%TD*%
%TO.C,D26*%
X186350000Y-135670000D03*
X186350000Y-132370000D03*
%TD*%
D19*
%TO.C,U2*%
X114750000Y-71522500D03*
X113800000Y-71522500D03*
X112850000Y-71522500D03*
X112850000Y-69247500D03*
X113800000Y-69247500D03*
X114750000Y-69247500D03*
%TD*%
D10*
%TO.C,D24*%
X138730000Y-130860000D03*
X138730000Y-127560000D03*
%TD*%
D13*
%TO.C,K31*%
X66150000Y-148340000D03*
D11*
X62340000Y-145800000D03*
D12*
X61070000Y-148340000D03*
X71230000Y-148340000D03*
D11*
X68690000Y-143260000D03*
D14*
X58790000Y-145800000D03*
X72240000Y-143260000D03*
%TD*%
D11*
%TO.C,K02*%
X95885136Y-77954412D03*
D12*
X88589475Y-83490127D03*
X98730525Y-82869873D03*
D11*
X89702043Y-80877333D03*
D13*
X93660000Y-83180000D03*
D20*
X86158665Y-81094055D03*
X99428514Y-77737690D03*
%TD*%
D21*
%TO.C,SW1*%
X130250260Y-161924120D03*
X136249740Y-161924120D03*
X136249740Y-158225880D03*
X130250260Y-158225880D03*
%TD*%
D11*
%TO.C,K15*%
X166853543Y-102024345D03*
D12*
X158516058Y-105813428D03*
D13*
X163530000Y-106630000D03*
D12*
X168543942Y-107446572D03*
D11*
X160177830Y-103510600D03*
D22*
X156673993Y-102939964D03*
X170357380Y-102594981D03*
%TD*%
D10*
%TO.C,D02*%
X99975000Y-89075000D03*
X99975000Y-85775000D03*
%TD*%
D11*
%TO.C,K12*%
X106164679Y-97600649D03*
D12*
X108867352Y-102596002D03*
D13*
X103790000Y-102760000D03*
D11*
X99899987Y-100344322D03*
D12*
X98712648Y-102923998D03*
D23*
X96351837Y-100458927D03*
X109712828Y-97486045D03*
%TD*%
D10*
%TO.C,D15*%
X168180000Y-114030000D03*
X168180000Y-110730000D03*
%TD*%
D11*
%TO.C,K24*%
X135370000Y-119450000D03*
D13*
X132830000Y-124530000D03*
D11*
X129020000Y-121990000D03*
D12*
X127750000Y-124530000D03*
X137910000Y-124530000D03*
D14*
X125470000Y-121990000D03*
X138920000Y-119450000D03*
%TD*%
D24*
%TO.C,C10*%
X114775000Y-185025000D03*
X114775000Y-186575000D03*
%TD*%
D12*
%TO.C,K00*%
X58714935Y-87144244D03*
X48725065Y-88995756D03*
D13*
X53720000Y-88070000D03*
D11*
X55291711Y-82612187D03*
X49510921Y-86266850D03*
D25*
X46020366Y-86913786D03*
X58782266Y-81965251D03*
%TD*%
D10*
%TO.C,D20*%
X53010000Y-135640000D03*
X53010000Y-132340000D03*
%TD*%
%TO.C,D35*%
X167300000Y-154700000D03*
X167300000Y-151400000D03*
%TD*%
D26*
%TO.C,C7*%
X102875000Y-162500000D03*
X104425000Y-162500000D03*
%TD*%
D11*
%TO.C,K55*%
X152822500Y-188662500D03*
D12*
X151552500Y-191202500D03*
X161712500Y-191202500D03*
D13*
X156632500Y-191202500D03*
D11*
X159172500Y-186122500D03*
D14*
X149272500Y-188662500D03*
X162722500Y-186122500D03*
%TD*%
D15*
%TO.C,C5*%
X117400000Y-169575000D03*
X117400000Y-168025000D03*
%TD*%
D10*
%TO.C,D13*%
X129460000Y-109360000D03*
X129460000Y-106060000D03*
%TD*%
D27*
%TO.C,Y1*%
X120100000Y-192825000D03*
X117900000Y-192825000D03*
X117900000Y-191125000D03*
X120100000Y-191125000D03*
%TD*%
D11*
%TO.C,K06*%
X170576677Y-84878215D03*
D13*
X173860000Y-88070000D03*
D11*
X177283224Y-83537943D03*
D12*
X178854935Y-88995756D03*
X168865065Y-87144244D03*
D28*
X167086122Y-84231279D03*
X180773779Y-84184879D03*
%TD*%
D10*
%TO.C,D55*%
X162540000Y-197590000D03*
X162540000Y-194290000D03*
%TD*%
D13*
%TO.C,K41*%
X66160000Y-167400000D03*
D12*
X61080000Y-167400000D03*
D11*
X62350000Y-164860000D03*
X68700000Y-162320000D03*
D12*
X71240000Y-167400000D03*
D14*
X58800000Y-164860000D03*
X72250000Y-162320000D03*
%TD*%
D13*
%TO.C,K36*%
X180460000Y-148340000D03*
D11*
X176650000Y-145800000D03*
X183000000Y-143260000D03*
D12*
X185540000Y-148340000D03*
X175380000Y-148340000D03*
D14*
X173100000Y-145800000D03*
X186550000Y-143260000D03*
%TD*%
D12*
%TO.C,K26*%
X185540000Y-129290000D03*
D11*
X176650000Y-126750000D03*
D12*
X175380000Y-129290000D03*
D11*
X183000000Y-124210000D03*
D13*
X180460000Y-129290000D03*
D14*
X173100000Y-126750000D03*
X186550000Y-124210000D03*
%TD*%
D24*
%TO.C,C1*%
X123240000Y-191135000D03*
X123240000Y-192685000D03*
%TD*%
D11*
%TO.C,K51*%
X68680000Y-181370000D03*
D12*
X61060000Y-186450000D03*
D13*
X66140000Y-186450000D03*
D11*
X62330000Y-183910000D03*
D12*
X71220000Y-186450000D03*
D14*
X58780000Y-183910000D03*
X72230000Y-181370000D03*
%TD*%
D10*
%TO.C,D33*%
X119690000Y-149960000D03*
X119690000Y-146660000D03*
%TD*%
%TO.C,D45*%
X176840000Y-178550000D03*
X176840000Y-175250000D03*
%TD*%
D13*
%TO.C,K44*%
X151870000Y-167390000D03*
D11*
X148060000Y-164850000D03*
X154410000Y-162310000D03*
D12*
X146790000Y-167390000D03*
X156950000Y-167390000D03*
D14*
X144510000Y-164850000D03*
X157960000Y-162310000D03*
%TD*%
D11*
%TO.C,K22*%
X90920000Y-121990000D03*
X97270000Y-119450000D03*
D12*
X99810000Y-124530000D03*
X89650000Y-124530000D03*
D13*
X94730000Y-124530000D03*
D14*
X87370000Y-121990000D03*
X100820000Y-119450000D03*
%TD*%
D11*
%TO.C,K56*%
X176635000Y-188662500D03*
D13*
X180445000Y-191202500D03*
D11*
X182985000Y-186122500D03*
D12*
X185525000Y-191202500D03*
X175365000Y-191202500D03*
D14*
X173085000Y-188662500D03*
X186535000Y-186122500D03*
%TD*%
D10*
%TO.C,D00*%
X60775000Y-93025000D03*
X60775000Y-89725000D03*
%TD*%
%TO.C,D34*%
X138730000Y-149930000D03*
X138730000Y-146630000D03*
%TD*%
D18*
%TO.C,R3*%
X110900000Y-68985000D03*
X110900000Y-70635000D03*
%TD*%
D10*
%TO.C,D21*%
X72040000Y-135640000D03*
X72040000Y-132340000D03*
%TD*%
D24*
%TO.C,C4*%
X112050000Y-169500000D03*
X112050000Y-171050000D03*
%TD*%
D10*
%TO.C,D46*%
X195880000Y-178550000D03*
X195880000Y-175250000D03*
%TD*%
D11*
%TO.C,K20*%
X49650000Y-124200000D03*
D12*
X42030000Y-129280000D03*
D13*
X47110000Y-129280000D03*
D12*
X52190000Y-129280000D03*
D11*
X43300000Y-126740000D03*
D14*
X39750000Y-126740000D03*
X53200000Y-124200000D03*
%TD*%
D29*
%TO.C,C9*%
X108825000Y-172525000D03*
X107275000Y-172525000D03*
%TD*%
D10*
%TO.C,D51*%
X72060000Y-192830000D03*
X72060000Y-189530000D03*
%TD*%
D29*
%TO.C,C15*%
X105375000Y-156725000D03*
X103825000Y-156725000D03*
%TD*%
D16*
%TO.C,R1*%
X119550000Y-158225000D03*
X119550000Y-156575000D03*
%TD*%
D30*
%TO.C,C11*%
X107023008Y-180901992D03*
X105926992Y-181998008D03*
%TD*%
D10*
%TO.C,D22*%
X100620000Y-130860000D03*
X100620000Y-127560000D03*
%TD*%
%TO.C,D31*%
X72040000Y-154700000D03*
X72040000Y-151400000D03*
%TD*%
D13*
%TO.C,K10*%
X64020000Y-106620000D03*
D12*
X69033942Y-105803428D03*
X59006058Y-107436572D03*
D11*
X59851258Y-104725458D03*
X65710399Y-101197772D03*
D31*
X56347421Y-105296095D03*
X69214236Y-100627136D03*
%TD*%
D11*
%TO.C,K04*%
X130242170Y-80392143D03*
D12*
X128819475Y-82849873D03*
D11*
X136735389Y-78244539D03*
D12*
X138960525Y-83470127D03*
D13*
X133890000Y-83160000D03*
D32*
X126698791Y-80175420D03*
X140278768Y-78461261D03*
%TD*%
D33*
%TO.C,U1*%
X121420000Y-156575000D03*
X122690000Y-156575000D03*
X123960000Y-156575000D03*
X125230000Y-156575000D03*
X125230000Y-163775000D03*
X123960000Y-163775000D03*
X122690000Y-163775000D03*
X121420000Y-163775000D03*
%TD*%
D12*
%TO.C,K11*%
X88896186Y-103578691D03*
D11*
X79802206Y-101910389D03*
D13*
X83840000Y-104070000D03*
D11*
X85876784Y-98768160D03*
D12*
X78783814Y-104561309D03*
D34*
X76268848Y-102253725D03*
X89410142Y-98424824D03*
%TD*%
D11*
%TO.C,K33*%
X116320000Y-138500000D03*
D12*
X108700000Y-143580000D03*
D11*
X109970000Y-141040000D03*
D12*
X118860000Y-143580000D03*
D13*
X113780000Y-143580000D03*
D14*
X106420000Y-141040000D03*
X119870000Y-138500000D03*
%TD*%
D10*
%TO.C,D04*%
X139350000Y-89925000D03*
X139350000Y-86625000D03*
%TD*%
D16*
%TO.C,R7*%
X117050000Y-186600000D03*
X117050000Y-184950000D03*
%TD*%
D10*
%TO.C,D23*%
X119690000Y-130860000D03*
X119690000Y-127560000D03*
%TD*%
D11*
%TO.C,K03*%
X109960000Y-80020000D03*
D12*
X108690000Y-82560000D03*
D13*
X113770000Y-82560000D03*
D11*
X116310000Y-77480000D03*
D12*
X118850000Y-82560000D03*
D14*
X106410000Y-80020000D03*
X119860000Y-77480000D03*
%TD*%
D35*
%TO.C,F1*%
X108575000Y-71135000D03*
X108575000Y-73935000D03*
%TD*%
D12*
%TO.C,K23*%
X118860000Y-124530000D03*
D11*
X116320000Y-119450000D03*
D13*
X113780000Y-124530000D03*
D12*
X108700000Y-124530000D03*
D11*
X109970000Y-121990000D03*
D14*
X106420000Y-121990000D03*
X119870000Y-119450000D03*
%TD*%
D12*
%TO.C,K32*%
X99810000Y-143580000D03*
D11*
X90920000Y-141040000D03*
D13*
X94730000Y-143580000D03*
D12*
X89650000Y-143580000D03*
D11*
X97270000Y-138500000D03*
D14*
X87370000Y-141040000D03*
X100820000Y-138500000D03*
%TD*%
D11*
%TO.C,K46*%
X186160000Y-169612500D03*
D13*
X189970000Y-172152500D03*
D12*
X195050000Y-172152500D03*
D11*
X192510000Y-167072500D03*
D12*
X184890000Y-172152500D03*
D14*
X182610000Y-169612500D03*
X196060000Y-167072500D03*
%TD*%
D11*
%TO.C,K45*%
X173460000Y-167072500D03*
X167110000Y-169612500D03*
D13*
X170920000Y-172152500D03*
D12*
X176000000Y-172152500D03*
X165840000Y-172152500D03*
D14*
X163560000Y-169612500D03*
X177010000Y-167072500D03*
%TD*%
D12*
%TO.C,K01*%
X78632134Y-84400904D03*
D13*
X73590000Y-85020000D03*
D12*
X68547866Y-85639096D03*
D11*
X69498851Y-82963255D03*
X75491971Y-79668317D03*
D36*
X65975312Y-83395891D03*
X79015510Y-79235681D03*
%TD*%
D37*
%TO.C,R2*%
X110650000Y-182400000D03*
X112300000Y-182400000D03*
%TD*%
D10*
%TO.C,D05*%
X158900000Y-92200000D03*
X158900000Y-88900000D03*
%TD*%
D12*
%TO.C,K25*%
X156330000Y-129290000D03*
D11*
X157600000Y-126750000D03*
D13*
X161410000Y-129290000D03*
D12*
X166490000Y-129290000D03*
D11*
X163950000Y-124210000D03*
D14*
X154050000Y-126750000D03*
X167500000Y-124210000D03*
%TD*%
D10*
%TO.C,D06*%
X178350000Y-95600000D03*
X178350000Y-92300000D03*
%TD*%
D38*
%TO.C,U3*%
X118412500Y-174500000D03*
X118412500Y-174900000D03*
X118412500Y-175300000D03*
X118412500Y-175700000D03*
X118412500Y-176100000D03*
X118412500Y-176500000D03*
X118412500Y-176900000D03*
X118412500Y-177300000D03*
X118412500Y-177700000D03*
X118412500Y-178100000D03*
X118412500Y-178500000D03*
X118412500Y-178900000D03*
X118412500Y-179300000D03*
X118412500Y-179700000D03*
D39*
X117575000Y-180537500D03*
X117175000Y-180537500D03*
X116775000Y-180537500D03*
X116375000Y-180537500D03*
X115975000Y-180537500D03*
X115575000Y-180537500D03*
X115175000Y-180537500D03*
X114775000Y-180537500D03*
X114375000Y-180537500D03*
X113975000Y-180537500D03*
X113575000Y-180537500D03*
X113175000Y-180537500D03*
X112775000Y-180537500D03*
X112375000Y-180537500D03*
D38*
X111537500Y-179700000D03*
X111537500Y-179300000D03*
X111537500Y-178900000D03*
X111537500Y-178500000D03*
X111537500Y-178100000D03*
X111537500Y-177700000D03*
X111537500Y-177300000D03*
X111537500Y-176900000D03*
X111537500Y-176500000D03*
X111537500Y-176100000D03*
X111537500Y-175700000D03*
X111537500Y-175300000D03*
X111537500Y-174900000D03*
X111537500Y-174500000D03*
D39*
X112375000Y-173662500D03*
X112775000Y-173662500D03*
X113175000Y-173662500D03*
X113575000Y-173662500D03*
X113975000Y-173662500D03*
X114375000Y-173662500D03*
X114775000Y-173662500D03*
X115175000Y-173662500D03*
X115575000Y-173662500D03*
X115975000Y-173662500D03*
X116375000Y-173662500D03*
X116775000Y-173662500D03*
X117175000Y-173662500D03*
X117575000Y-173662500D03*
D40*
X114975000Y-177100000D03*
%TD*%
D29*
%TO.C,C3*%
X121425000Y-165650000D03*
X119875000Y-165650000D03*
%TD*%
D10*
%TO.C,D11*%
X90375000Y-109700000D03*
X90375000Y-106400000D03*
%TD*%
%TO.C,D01*%
X80275000Y-90500000D03*
X80275000Y-87200000D03*
%TD*%
D13*
%TO.C,K34*%
X132830000Y-143580000D03*
D12*
X137910000Y-143580000D03*
D11*
X135370000Y-138500000D03*
X129020000Y-141040000D03*
D12*
X127750000Y-143580000D03*
D14*
X125470000Y-141040000D03*
X138920000Y-138500000D03*
%TD*%
D10*
%TO.C,D44*%
X157790000Y-173780000D03*
X157790000Y-170480000D03*
%TD*%
D15*
%TO.C,C8*%
X110075000Y-171050000D03*
X110075000Y-169500000D03*
%TD*%
D10*
%TO.C,D25*%
X167320000Y-135670000D03*
X167320000Y-132370000D03*
%TD*%
D11*
%TO.C,K35*%
X163950000Y-143260000D03*
D13*
X161410000Y-148340000D03*
D11*
X157600000Y-145800000D03*
D12*
X166490000Y-148340000D03*
X156330000Y-148340000D03*
D14*
X154050000Y-145800000D03*
X167500000Y-143260000D03*
%TD*%
D10*
%TO.C,D56*%
X186360000Y-197580000D03*
X186360000Y-194280000D03*
%TD*%
D29*
%TO.C,C16*%
X108825000Y-174050000D03*
X107275000Y-174050000D03*
%TD*%
D15*
%TO.C,C13*%
X115500000Y-169575000D03*
X115500000Y-168025000D03*
%TD*%
%TO.C,C14*%
X120450000Y-174150000D03*
X120450000Y-172600000D03*
%TD*%
D10*
%TO.C,D41*%
X72040000Y-173770000D03*
X72040000Y-170470000D03*
%TD*%
%TO.C,D10*%
X70950000Y-111750000D03*
X70950000Y-108450000D03*
%TD*%
%TO.C,D32*%
X100620000Y-149960000D03*
X100620000Y-146660000D03*
%TD*%
D13*
%TO.C,K05*%
X153940000Y-85030000D03*
D12*
X148897866Y-84410904D03*
D11*
X157080163Y-80297414D03*
X150467947Y-82044611D03*
D12*
X158982134Y-85649096D03*
D41*
X146944408Y-81611974D03*
X160603702Y-80730050D03*
%TD*%
D11*
%TO.C,K13*%
X120053985Y-100098326D03*
D12*
X128857352Y-102923998D03*
D13*
X123780000Y-102760000D03*
D12*
X118702648Y-102596002D03*
D11*
X126482674Y-97764647D03*
D42*
X116505835Y-99983721D03*
X130030823Y-97879251D03*
%TD*%
D21*
%TO.C,SW2*%
X136269740Y-168210880D03*
X130270260Y-168210880D03*
X130270260Y-171909120D03*
X136269740Y-171909120D03*
%TD*%
D12*
%TO.C,K14*%
X138663814Y-103558691D03*
X148776186Y-104541309D03*
D11*
X146739402Y-99239469D03*
D13*
X143720000Y-104050000D03*
D11*
X140173515Y-101153425D03*
D43*
X136640157Y-100810089D03*
X150272760Y-99582805D03*
%TD*%
D10*
%TO.C,D03*%
X119700000Y-88925000D03*
X119700000Y-85625000D03*
%TD*%
D24*
%TO.C,C6*%
X112550000Y-185025000D03*
X112550000Y-186575000D03*
%TD*%
D10*
%TO.C,D36*%
X186370000Y-154700000D03*
X186370000Y-151400000D03*
%TD*%
D44*
%TO.C,J1*%
X116690000Y-64150000D03*
X110910000Y-64150000D03*
D45*
X110550000Y-65595000D03*
X111350000Y-65595000D03*
D46*
X112550000Y-65595000D03*
X113550000Y-65595000D03*
X114050000Y-65595000D03*
X115050000Y-65595000D03*
D45*
X116250000Y-65595000D03*
X117050000Y-65595000D03*
X117050000Y-65595000D03*
X116250000Y-65595000D03*
D46*
X115550000Y-65595000D03*
X114550000Y-65595000D03*
X113050000Y-65595000D03*
X112050000Y-65595000D03*
D45*
X111350000Y-65595000D03*
X110550000Y-65595000D03*
D47*
X118120000Y-64680000D03*
D48*
X118120000Y-60500000D03*
X109480000Y-60500000D03*
D47*
X109480000Y-64680000D03*
%TD*%
D18*
%TO.C,R4*%
X116675000Y-68985000D03*
X116675000Y-70635000D03*
%TD*%
D49*
%TO.C,C12*%
X123703984Y-179753984D03*
X124800000Y-180850000D03*
%TD*%
M02*
